<svg width="16" height="16" viewBox="0 0 16 16" fill="none" xmlns="http://www.w3.org/2000/svg">
<path d="M11.159 9.59199L10.1296 10.1705C10.006 10.2399 9.86314 10.2671 9.7227 10.2478C9.58225 10.2286 9.45198 10.164 9.35176 10.064L5.91609 6.63643C5.81589 6.53641 5.75122 6.40645 5.73193 6.26636C5.71264 6.12627 5.7398 5.98372 5.80926 5.86046L6.38918 4.83353C6.49357 4.6487 6.53443 4.43486 6.50554 4.22468C6.47665 4.01451 6.37959 3.81954 6.22918 3.66957L4.68636 2.1304C4.59593 2.04014 4.48856 1.96854 4.37039 1.91969C4.25222 1.87085 4.12556 1.8457 3.99765 1.8457C3.86973 1.8457 3.74307 1.87085 3.6249 1.91969C3.50673 1.96854 3.39936 2.04014 3.30894 2.1304L2.60841 2.82877C2.19877 3.23744 1.93783 3.771 1.86709 4.34463C1.79636 4.91825 1.91988 5.499 2.21803 5.99453L2.56952 6.57897C4.36452 9.56347 6.8981 12.0378 9.92725 13.7646L9.99666 13.8043C11.0314 14.3942 12.3099 14.2223 13.1384 13.3962L13.87 12.6664C13.9604 12.5762 14.0322 12.4691 14.0812 12.3512C14.1301 12.2333 14.1553 12.1069 14.1553 11.9793C14.1553 11.8517 14.1301 11.7254 14.0812 11.6075C14.0322 11.4896 13.9604 11.3825 13.87 11.2923L12.3262 9.7521C12.1759 9.60186 11.9804 9.50486 11.7696 9.47595C11.5588 9.44704 11.3443 9.4878 11.159 9.59199Z" fill="#5B5B5B"/>
</svg>
