<svg width="190" height="49" viewBox="0 0 190 49" fill="none" xmlns="http://www.w3.org/2000/svg">
<path d="M175.367 46.7674C175.958 46.517 176.525 46.0963 177.141 45.7857C177.749 45.4452 178.324 45.0044 178.948 44.6338C180.131 43.7423 181.347 42.7807 182.424 41.5687C184.62 39.2248 186.419 36.1095 187.173 32.9042C187.367 32.1629 187.432 33.2447 187.845 31.5419C188.404 28.3566 188.704 24.1696 188.023 19.9224C187.683 17.7989 187.067 15.7154 186.306 13.7621C185.512 11.8189 184.499 10.076 183.453 8.55342L183.786 8.83389C183.413 8.21285 182.813 7.74206 182.27 7.21117C181.695 6.72035 181.079 6.28963 180.577 5.78879C180.609 5.70865 180.966 5.99914 180.771 5.68862C180.399 5.64855 178.713 4.24621 178.122 4.16607C177.684 3.8255 177.814 3.62517 177.206 3.24453L176.428 3.17441C175.902 3.08426 175.342 2.97408 174.743 2.83384C174.443 2.76373 174.143 2.64352 173.827 2.57341C173.511 2.50329 173.187 2.43317 172.855 2.36305C171.542 2.05253 170.092 1.9724 168.706 2.14269C168.844 2.08259 169.111 2.0325 168.893 1.9724C164.42 2.36305 158.829 2.29294 153.829 2.43317C154.032 2.333 154.21 2.16272 153.919 2.05253C153.675 2.333 152.128 2.41314 150.791 2.46322C150.183 2.17274 148.49 2.73368 146.918 2.57341L147.055 2.51331C145.897 2.81381 145.33 2.333 144.39 2.70362L143.652 2.47324C143.142 2.88393 141.975 2.26289 141.011 2.47324L141.043 2.55337C140.136 2.65354 139.666 2.44319 138.831 2.51331L138.75 2.46322C136.781 2.57341 135.639 2.34302 135.687 2.66356C134.998 2.40312 137.591 2.54336 136.514 2.17274C130.048 2.50329 123.379 2.44319 116.864 2.44319C116.127 2.31297 115.657 2.2729 115.487 2.1527C114.839 2.2128 113.04 2.2128 112.448 2.37307C112.667 2.36305 112.027 2.2128 111.686 2.19277C110.503 2.07257 110.39 2.54336 109.094 2.40312C109.612 2.31297 109.782 2.2128 109.612 2.0926C108.502 2.34302 107.019 2.30295 105.707 2.38309C105.909 2.333 106.225 2.29294 106.177 2.19277C104.742 2.47324 103.559 2.13267 102.303 2.31297L102.773 2.12265C100.748 1.90228 102.174 2.51331 100.424 2.37307C100.845 2.31297 100.699 2.24285 100.772 2.16272C99.1433 2.50329 96.5018 2.39311 94.8731 2.50329C94.9703 2.47324 94.946 2.42316 94.946 2.42316C93.1715 2.46322 91.3159 2.36305 89.3632 2.50329C88.6501 2.42316 89.5981 2.05253 87.7183 2.12265C87.7831 2.49327 84.5339 2.2729 85.6358 2.69361C84.0315 2.63351 81.4953 2.49327 80.4257 2.62349C81.1469 2.48326 79.6478 2.17274 80.9767 2.13267L79.972 1.9123C80.1178 1.76205 81.0091 1.96238 80.6931 1.77207C80.0206 1.78208 78.0759 1.93233 77.4763 1.87223C76.2365 2.10262 75.1021 2.52332 73.1007 2.57341C74.0407 2.43317 72.566 2.16272 73.2061 2.10262L70.4106 2.84386C69.7462 2.86389 70.2647 2.55337 69.3005 2.64352C69.3491 2.74369 68.9278 2.80379 68.6361 2.88393C68.3849 2.84386 65.8649 2.97408 65.5732 2.61347C65.2815 2.47324 66.659 2.53334 65.9216 2.40312C64.69 2.40312 64.6333 2.53334 63.4016 2.53334L63.3773 2.48326C62.567 2.43317 60.9789 2.64352 61.8621 2.84386C62.4293 2.85388 61.6514 2.62349 62.486 2.73368C61.9107 2.94403 60.4846 3.00413 59.253 3.01414C59.6743 2.95404 59.6257 2.85388 59.7878 2.75371C58.1348 3.04419 56.3765 3.13435 54.529 3.25455C54.4966 3.42483 55.2178 2.93401 55.4933 3.03418C53.1272 2.79378 50.5991 3.37475 48.6301 3.02416C48.9543 2.99411 48.8084 3.27458 48.7841 3.2245C47.6416 3.20446 47.6902 2.95404 46.9529 3.04419C46.8799 2.89394 46.021 3.09428 45.2513 3.13435C44.8542 3.24453 45.0487 3.06423 45.7212 3.04419C44.6516 3.17441 40.3895 3.39478 37.9263 3.18443C37.9749 3.2846 36.411 3.54503 35.8438 3.53502L36.0626 3.30463C35.544 3.1644 34.1666 3.32466 34.0693 3.12433C32.862 3.4048 38.7285 2.88393 37.0917 3.1043C36.6703 2.91398 34.8148 3.4649 35.1632 3.15438C34.0207 3.1644 32.9187 3.42483 31.8329 3.20446C32.1489 3.24453 32.7567 2.88393 31.841 2.90396C30.2205 2.94403 31.3792 3.01414 30.0665 3.09428L29.24 3.18443C29.1833 3.4048 27.7977 3.15438 28.3973 3.4048C28.1948 3.2245 26.0475 3.51498 26.2096 3.14436L26.4364 2.85388C25.7396 2.87391 25.2939 3.1644 24.7429 3.29461C24.6538 3.26456 24.4675 3.20446 24.4999 3.1644C24.3864 3.60513 22.8307 3.12433 21.9961 3.47492C21.2668 3.39478 20.3269 3.39478 19.5004 3.37475C18.7063 3.41481 18.0095 3.4048 17.6611 3.31465C17.1344 3.48493 16.632 3.65522 16.1215 3.79545C15.611 3.98577 15.0925 4.18611 14.4847 4.32634C14.7116 4.21616 15.0357 4.09595 15.0763 3.98577C14.2984 4.07592 14.1444 4.29629 13.5043 4.66691C13.5691 4.60681 13.1883 4.69696 12.6859 4.85723C12.1916 5.06758 11.5758 5.318 11.1626 5.4983C10.2794 6.29964 10.7088 6.26959 10.6764 6.46993C10.4252 6.53003 10.1416 6.70031 9.84181 6.92068C9.55821 7.1711 9.27461 7.49164 8.97481 7.81218L8.52915 8.29298C8.3914 8.46326 8.25365 8.63355 8.1159 8.79382C7.86472 9.0843 7.58112 9.35476 7.29752 9.53506C7.5325 9.18447 8.34278 8.07261 7.61353 8.73372C7.37044 8.86394 7.15977 9.03422 6.98151 9.26461C6.81135 9.50501 6.65739 9.78548 6.49534 10.086C6.33328 10.3865 6.16312 10.697 5.96865 11.0376C5.79039 11.3882 5.57971 11.7488 5.31232 12.1094L5.78228 11.9391C5.16647 12.47 4.67219 14.4333 4.48583 14.0626C4.28326 14.6636 3.57831 16.066 3.89432 16.0059C3.5459 16.677 3.33522 17.5284 3.05973 18.3598C2.9706 18.8006 2.87336 19.2413 2.78423 19.682C2.687 20.1228 2.60597 20.5635 2.56545 21.0043C2.45201 21.8857 2.33857 22.7171 2.28996 23.4784C2.21703 24.2297 2.11169 24.8807 2.02256 25.3816C2.08739 25.8424 2.08739 26.9943 2.22513 26.7439C2.35478 25.9726 2.07118 25.6921 2.16841 25.3916C2.19272 25.8023 2.27375 25.8824 2.31427 25.9225C2.26565 26.9141 2.35478 27.7055 2.02256 26.7939C2.04687 27.9158 2.25755 28.4768 2.46012 29.0778C2.58976 29.3783 2.72751 29.6888 2.85716 30.0895C2.99491 30.4901 3.09214 31.011 3.2785 31.6621C3.13265 31.592 3.14886 31.8123 3.39194 32.5736C3.57831 33.0444 3.8457 33.4651 4.08879 33.8958C4.67219 35.5486 4.23464 34.9676 4.04827 35.1379C4.50203 35.9493 4.972 37.0211 5.33663 37.2414L5.71746 38.3934C5.57971 37.9727 5.70126 38.1129 5.88762 38.3934C6.07399 38.6838 6.3819 39.0645 6.51964 39.2147L6.22794 38.9142C6.26846 39.1045 6.90858 39.946 7.27321 40.3066C7.257 40.1363 6.6817 39.2047 6.36569 38.7239C6.71411 39.0144 7.09495 39.6354 7.55681 39.976C7.41906 39.986 7.63784 40.2865 7.93764 40.6471C8.23745 41.0178 8.63449 41.4385 8.88568 41.6588C9.43667 42.2298 9.63924 42.0795 9.8013 42.2398C9.73647 42.39 10.7817 43.0111 10.2226 42.8108C9.98766 42.6906 9.8013 42.35 9.42857 42.1296C9.76078 42.5603 9.61493 42.7206 10.5306 43.2114C11.2274 43.562 10.5468 42.7206 11.7136 43.6622C11.357 43.5219 11.2598 43.572 10.9843 43.4618C11.3327 43.8024 11.7379 44.0228 12.1106 44.3133L12.2403 44.143C12.378 44.2932 12.2646 44.2432 12.3294 44.3133C12.4347 44.3133 12.6049 44.3734 12.7994 44.4635C13.0019 44.5336 13.2369 44.6238 13.4719 44.724C13.9337 44.9043 14.3875 45.1046 14.5577 45.0144C15.1978 45.1647 15.8541 45.6455 16.478 45.7557H16.3565C16.7292 45.8959 17.1749 45.9861 17.6043 46.0462C18.0338 46.0963 18.4632 46.0261 18.7874 45.9861L18.7711 46.0762C18.9818 46.0963 19.3302 46.1263 19.7111 46.1063C20.1 46.0862 20.4971 46.0462 20.7726 45.9761C21.8907 46.1463 21.1534 46.8175 22.385 46.537C23.5194 46.527 24.1676 46.1263 23.7058 45.9861C25.7477 46.1363 28.0651 45.7757 29.9531 46.1163C30.2448 46.0261 30.0584 45.966 30.6661 45.916C33.6642 46.0061 36.9944 45.6555 39.3767 46.0862C38.5097 46.1764 39.32 46.3066 39.3362 46.4368C40.0492 46.2365 40.1951 46.6472 40.4544 46.2966C40.3814 46.0963 40.4544 45.9961 39.6117 45.916C41.4024 45.8058 44.1169 45.8058 45.1054 45.9961C44.6111 45.9059 44.992 45.8458 45.3809 45.7757C45.2513 46.0963 46.572 46.1463 47.5687 46.0362L47.7064 45.8358L48.3546 46.0362C48.7355 45.9761 48.776 45.6255 49.7645 45.8158C49.8132 45.8959 49.8699 45.966 50.0562 46.0261C51.0853 45.8659 52.5438 45.5954 53.662 45.7557L54.5776 46.0462C55.0557 46.0161 55.8579 45.8458 55.0152 45.7557C56.9275 45.926 58.1591 45.946 58.7587 46.1964C62.0485 45.5954 66.821 45.5654 70.6537 45.6154L70.5402 45.7657C71.5693 45.9059 71.075 45.5053 71.7881 45.6154C71.4559 45.7557 72.5741 45.916 71.7638 46.0862C73.2304 46.2365 73.6598 45.8358 74.616 45.7657C74.7618 45.5754 73.8462 45.8859 74.0326 45.6455C74.1946 45.5754 76.0664 45.7957 76.2933 45.5053C76.6579 45.6154 76.3743 45.8358 76.1798 45.956L77.0792 45.8158C78.1812 46.1564 74.5755 46.4268 75.7261 46.8475L76.5526 46.7974C77.3385 47.0979 74.3648 47.138 76.4391 47.2482C77.3385 47.1079 78.1164 46.6772 77.3061 46.557C79.186 46.4769 78.1731 45.8659 80.1907 45.8859C80.7417 46.0562 78.5783 45.926 78.9672 46.1664C79.9152 46.3968 80.8795 46.0362 81.7222 46.1163C80.7822 46.0061 81.5763 45.7156 82.184 45.6555C83.2131 45.7958 81.5196 45.936 82.97 45.956C83.2131 45.7857 84.5501 45.6655 83.3914 45.5453C83.918 45.1647 84.9066 45.6555 85.6926 45.355C86.1706 45.6255 84.1935 45.9761 85.7898 46.1063C85.5386 45.8458 87.7588 45.7557 86.9161 45.375C87.54 45.4452 87.6048 45.6555 87.1511 45.8158C88.0424 45.9761 89.3226 45.345 89.6143 45.8559L89.9223 45.5954C90.2059 45.6856 90.6029 45.7457 91.0566 45.8859C91.8426 45.8859 93.5928 45.5253 93.528 45.926C93.7792 45.8859 95.578 45.9059 94.8893 45.6255C93.7711 45.4552 93.6009 45.8258 92.977 45.4552C93.763 45.7557 94.5895 45.4151 95.2377 45.3149L95.3431 45.4652C95.732 45.4051 96.6152 45.4351 96.8583 45.2749C96.5666 45.365 96.7124 45.4652 97.0203 45.5053L97.4255 45.2749C98.9893 45.1547 97.7901 45.6856 99.3135 45.6154L98.1547 45.7958C98.4059 45.7557 98.9245 45.9761 99.6538 45.9059C99.9374 45.6956 100.472 45.4351 100.715 45.2649C101.574 45.1747 101.096 45.5053 101.947 45.2849L100.845 45.5453C100.675 45.6155 101.59 45.8959 102.741 45.8959C103.47 45.8258 104.613 45.5153 103.454 45.3951C104.029 45.3951 104.831 45.5253 104.378 45.6755C105.682 45.6054 104.208 45.4452 105.334 45.3149C105.796 45.4552 107.222 45.6655 108.089 45.8659L106.914 46.2265H107.692C106.679 46.517 108.202 46.4468 107.635 46.7473C108.17 46.7974 108.81 46.6872 109.329 46.6171C107.773 46.1363 111.079 45.956 110.625 45.5153C112.756 45.3951 111.962 46.5871 114.182 45.8959C113.818 45.7857 114.871 45.4452 113.526 45.5754C114.855 45.6255 114.425 45.1346 115.997 45.3149C114.839 45.4953 117.245 45.7657 115.568 46.0261C115.681 45.8759 114.636 45.916 114.377 45.956C114.928 46.1263 114.263 46.3968 115.624 46.3968C116.451 46.3567 117.585 46.3467 117.423 46.1163C117.391 45.8659 116.159 46.1463 116.686 45.8859C118.339 45.7958 118.614 46.1864 119.295 45.7356C118.25 45.7657 117.991 45.5053 118.007 45.335L119.222 45.2248L118.987 45.3951C120.932 45.5153 119.562 45.0946 121.45 45.1346L122.35 45.4752C121.904 45.7657 119.611 45.345 119.943 45.8158C121.167 45.8358 121.572 45.5954 122.731 45.7156C122.471 45.7457 122.123 45.7857 121.872 45.8058C122.309 45.8258 122.747 46.4368 124.497 46.0762C125.397 45.936 124.732 45.9059 124.756 45.7356C126.725 45.6856 127.309 45.5053 128.581 45.4752C128.322 45.8158 130.817 45.5053 129.424 45.8559C128.775 45.6555 125.931 45.6755 125.234 45.9961C125.948 46.3968 123.687 45.936 123.265 46.3467C124.846 46.3567 124.764 46.7574 125.024 47.0178C125.461 47.0378 125.883 46.9276 126.15 46.8876C126.336 46.6472 125.761 46.6472 125.729 46.3968C127.487 46.4669 129.189 46.3266 130.153 46.0862C130.744 46.2064 130.558 46.4569 129.861 46.4769C131.96 46.4068 134.196 46.4368 136.181 46.5069C134.893 46.1063 138.402 46.4168 137.526 46.0762C136.457 45.9861 135.541 45.7056 136.133 45.5253C136.797 45.5553 136.108 45.6956 136.392 45.7857C137.243 45.5654 137.713 46.1363 138.547 45.7958C136.635 45.926 138.175 46.2866 137.826 46.5971C139.204 46.4168 137.77 46.8175 139.131 46.8175C140.508 46.6472 142.194 46.5069 143.725 46.4368C145.646 46.7373 148.587 46.4468 150.305 46.4268C151.204 46.5871 150.596 46.9377 151.569 46.9978C152.711 46.9877 150.718 46.6171 152.411 46.7774L152.249 46.8475C152.76 46.7674 155.353 47.0879 155.847 46.5771L155.328 46.9577C155.644 46.9877 155.936 46.9076 156.195 46.8675C156.212 46.9877 156.576 47.1079 156.058 47.1881C157.103 47.4485 158.254 47.148 159.388 47.138L158.659 46.9076C160.603 46.7273 161.9 46.9577 163.78 46.8776L163.723 47.0979L164.841 46.9677C164.566 47.1781 165.595 47.3183 166.186 47.138L163.277 47.6789C162.467 47.5487 164.161 47.4085 163.65 47.1881C163.221 46.9978 161.478 47.0579 161.203 47.2682C161.867 47.2882 161.9 47.2482 162.418 47.168C162.637 47.4786 161.624 47.4686 161.13 47.6689C161.478 47.6589 161.973 47.749 162.046 47.6489C161.365 47.7991 160.668 47.8191 159.526 47.8292C160.295 47.709 159.104 47.6388 159.396 47.5487C159.307 47.8191 158.213 47.9093 156.803 47.8292C155.798 47.5186 154.154 48.0295 152.517 47.9494C153.181 47.6689 154.024 47.4485 155.021 47.3383C154 47.1981 153.878 47.3484 152.849 47.2081C152.355 47.4185 151.998 47.729 150.661 47.8492L150.588 47.6489C149.373 47.749 149.373 48.0495 147.833 47.9994C145.192 47.8993 142.469 47.8993 140.452 47.8692L140.379 47.6689C139.252 48.0996 136.635 47.8292 135.128 48.0195C132.551 47.8191 129.537 48.2098 128.224 47.8592C123.687 48.0195 119.716 48.1697 115.017 48.0896L115.811 47.7891C114.968 48.0095 115.26 47.6188 114.441 47.6589C115.39 47.8993 113.299 47.9694 112.716 48.1497C110.625 47.9193 107.935 48.1697 106.079 48.3801L106.006 48.1797C104.127 48.5604 101.89 48.2298 99.5565 48.1597C99.2891 48.0796 98.8678 47.8893 98.171 47.9093C96.8988 48.2398 96.2425 48.2098 94.3788 48.4201C93.0175 48.4201 90.8136 48.34 89.4361 48.2098C84.3313 48.6706 79.1131 48.3801 73.7976 48.6505L73.4168 48.4101C68.2714 48.921 61.935 48.4602 57.5433 48.7206L57.9646 48.31C56.5871 48.1797 54.8207 48.4201 55.1772 48.7106C53.7998 48.5904 51.7335 48.911 50.8503 48.5704C49.4404 48.4903 49.1244 48.7607 47.9495 48.8108C45.1216 48.6605 44.0763 48.6906 41.4105 48.7707L42.0668 48.8008C42.3585 48.7106 42.3828 48.5403 41.7184 48.5103C40.7218 48.6205 38.064 48.4001 39.0526 48.8909C36.2085 48.6105 32.4163 49.1213 29.6452 48.7407C29.8802 48.8709 29.1833 48.9009 28.8916 48.9911C26.3959 49.0011 23.7706 48.7307 21.7773 48.951C21.3803 48.8809 22.4093 48.7206 21.3965 48.7106C20.7969 48.7607 21.3803 48.8809 20.6429 48.961C19.6706 49.0412 18.5281 48.9911 17.4504 48.8709C16.9075 48.7607 16.3727 48.6405 15.8379 48.5303C15.3031 48.3901 14.7927 48.1797 14.2741 47.9994C12.224 47.1781 10.3685 45.956 8.71552 44.6438C7.26511 43.4418 5.87952 42.0495 4.72081 40.3867C3.58641 38.7039 2.54115 36.8808 1.8281 34.8675L1.5445 34.1262L1.31762 33.3549C1.13125 32.8841 0.969193 32.3733 0.831445 31.8524C0.628874 30.7906 0.345274 29.7589 0.256143 28.6771C-0.0679712 26.5535 -0.0274569 24.41 0.0697772 22.3365L0.142703 22.4367C0.126497 21.7355 0.215628 20.9842 0.312863 20.2129C0.4182 19.4416 0.653182 18.6904 0.831445 17.9391C1.25279 16.4867 1.72276 15.1344 1.94154 14.0226C2.20083 13.4416 2.9706 11.8489 2.88957 12.3598C3.23799 11.3281 4.00776 10.086 4.93149 8.87395C5.40145 8.27295 5.87142 7.64189 6.3981 7.08095C6.65739 6.79046 6.90858 6.49998 7.15167 6.20949C7.41096 5.93904 7.66215 5.66859 7.89713 5.39813C7.70266 5.56842 7.60543 5.6786 7.40285 5.91901C9.54201 4.11599 11.4948 2.48326 14.193 1.70195C13.9256 1.81213 13.4638 2.05254 13.4152 2.18275C13.9256 2.02248 14.5091 1.78208 15.0438 1.53166C15.5786 1.27123 16.081 1.15103 16.397 1.33133C16.9885 1.21113 16.7941 1.02081 16.4294 1.10094C16.8022 1.04084 17.1749 0.980741 17.5476 0.92064C17.9285 0.900607 18.3012 0.880573 18.682 0.86054C19.4599 0.800439 20.1729 0.820473 20.8941 0.820473C22.3445 0.800439 23.803 0.780406 25.2777 0.760372C28.2191 0.690255 31.1928 0.610121 34.1179 0.540003C38.3233 0.820473 34.3772 1.33133 37.6913 0.980741C37.9587 1.07089 37.8858 0.800439 37.9344 0.900607C39.2146 0.770389 39.9277 1.4315 40.819 1.18108C40.4544 0.89059 41.4105 1.02081 41.4348 0.840506C44.0034 1.03082 44.522 1.29126 46.5477 1.07089L46.3938 1.22114C48.7679 0.790422 51.5229 1.02081 53.5324 0.51997C66.6428 0.379735 79.2103 0.2395 91.9885 0.0992656C104.621 0.189416 116.994 -0.0309523 129.829 0.229484C132.835 0.630154 133.062 0.620137 136.36 0.459869C136.23 0.51997 136.019 0.540003 136.238 0.600104C136.4 0.269551 138.564 0.570054 138.88 0.259534C143.62 0.319634 147.995 0.229484 152.873 0.229484C152.104 0.269551 151.715 0.529987 152.63 0.509953L153.594 0.299601L153.748 0.389752C154.372 0.339668 155.061 0.1794 154.413 0.0692153C157.476 -0.000902062 160.53 -0.0109188 163.577 0.0091147C165.1 0.0291482 166.616 0.039165 168.131 0.0591985L170.416 0.109282L171.656 0.20945C172.069 0.229484 172.482 0.279567 172.887 0.379735C179.459 1.52165 185.268 6.94072 188.048 14.2029C188.704 15.9258 189.279 18.1395 189.644 20.4433C190.041 22.7472 190.041 25.1512 189.952 27.2247C189.263 33.3449 186.776 38.6638 183.283 42.4401C179.791 46.2265 175.245 48.5504 170.278 48.7206C170.278 48.7206 170.602 48.4903 171.413 48.1998C171.615 48.1297 171.842 48.0495 172.109 47.9794C172.369 47.8792 172.66 47.7791 172.993 47.6489C173.317 47.5387 173.681 47.4185 174.078 47.2882C174.475 47.118 174.905 46.9477 175.367 46.7674Z" fill="#8BC8E3"/>
</svg>
