<svg id="header-cart" viewBox="0 0 32 43" fill="none" xmlns="http://www.w3.org/2000/svg">
<path d="M24.5947 39.4753C25.1522 39.1346 25.7902 38.8372 26.3478 38.3664C26.9115 37.908 27.3885 37.2948 27.5495 36.6319C27.5929 36.4832 27.7168 36.7496 27.7973 36.3903C27.8531 36.0558 27.884 35.6841 27.915 35.2877C27.9212 34.885 27.9336 34.4638 27.9398 34.024C27.9708 33.1505 28.0699 32.2399 28.1752 31.447L28.2309 31.5461C28.2681 31.2425 28.0885 30.8771 28.1132 30.5549C28.1504 30.5549 28.1628 30.6602 28.2123 30.5859C28.1008 30.5054 28.1628 30.0098 28.0823 29.8735C28.1256 29.7496 28.2124 29.762 28.2619 29.5948L28.138 29.4089C27.8407 28.901 28.1566 28.17 28.0079 27.4762C28.0389 27.5072 28.0575 27.5753 28.0885 27.5257C27.9088 26.4107 27.9398 25.0169 27.8778 23.7656C27.9212 23.8151 28.0017 23.8585 28.0513 23.7903C27.9212 23.7284 27.884 23.3443 27.8593 23.0098C27.9955 22.8611 27.7354 22.4337 27.8097 22.0434L27.8407 22.0744C27.6982 21.7833 27.9212 21.647 27.7539 21.4116L27.8593 21.2258C27.6672 21.0957 27.9584 20.8045 27.8593 20.5691L27.8221 20.5753C27.7725 20.3523 27.8716 20.2346 27.8407 20.024L27.8654 20.0054C27.8159 19.516 27.9212 19.2311 27.7725 19.2435C27.8902 19.07 27.8283 19.7204 28.0017 19.4479C27.8469 17.8311 27.8778 16.1709 27.8778 14.5479C27.9398 14.362 27.9584 14.2443 28.0141 14.2072C27.9831 14.0461 27.9893 13.5939 27.9088 13.4514C27.9088 13.5072 27.9831 13.3461 27.9893 13.2594C28.0451 12.962 27.8283 12.9373 27.8902 12.6151C27.9274 12.7452 27.977 12.7886 28.0327 12.7452C27.915 12.4665 27.9336 12.101 27.8964 11.7727C27.9212 11.8222 27.9336 11.9028 27.9831 11.8904C27.8531 11.5311 28.0141 11.2399 27.9274 10.924L28.0141 11.0417C28.1194 10.5399 27.8345 10.8868 27.8964 10.4842C27.9212 10.5709 27.9584 10.5337 27.9893 10.5399C27.9088 10.3417 27.884 10.1125 27.8716 9.8709C27.6362 9.88329 27.4194 9.88329 27.246 9.90807C27.2708 9.89568 27.2708 9.8709 27.2708 9.8709C27.1716 9.8709 27.0725 9.8771 26.9734 9.8771C26.8619 9.8771 26.7442 9.8771 26.6327 9.8709C26.4035 9.8709 26.1619 9.8771 25.9203 9.90807C25.7407 9.8709 25.9761 9.69745 25.5115 9.72842C25.5301 9.90188 24.7185 9.79657 24.9911 9.9948C24.5885 9.96382 23.9566 9.90188 23.6902 9.95763C23.8699 9.88949 23.4982 9.74701 23.8265 9.73462L23.5725 9.62931C23.6097 9.56117 23.8327 9.65409 23.7522 9.56736C23.5849 9.57356 23.1017 9.6417 22.9531 9.61692C22.6433 9.72223 22.3584 9.92046 21.8628 9.93904C22.0982 9.8709 21.7265 9.74701 21.8876 9.72223L21.1876 10.0505C21.0203 10.0567 21.1504 9.91426 20.9088 9.95763C20.9212 10.001 20.8159 10.032 20.7416 10.0691C20.6796 10.0505 20.0478 10.1125 19.9796 9.94524C19.9053 9.8771 20.2522 9.90807 20.0663 9.84612C19.7566 9.84612 19.7442 9.90807 19.4407 9.90807L19.4345 9.88329C19.2301 9.85851 18.8336 9.95763 19.0566 10.0505C19.1991 10.0567 19.0009 9.95143 19.2115 9.9948C19.069 10.0939 18.7097 10.1187 18.4062 10.1249C18.5115 10.1001 18.4991 10.0505 18.5425 10.0072C18.1274 10.1435 17.6938 10.1806 17.2292 10.2364C17.223 10.3169 17.4026 10.0877 17.4708 10.1311C16.8823 10.0196 16.2504 10.2921 15.761 10.1249C15.8416 10.1125 15.8044 10.2364 15.7982 10.2178C15.5133 10.2054 15.5256 10.0877 15.3398 10.1311C15.3212 10.0629 15.1044 10.1559 14.9186 10.1744C14.8195 10.224 14.869 10.1435 15.0363 10.1311C14.7699 10.1868 13.7044 10.2921 13.0911 10.193C13.1035 10.2364 12.7133 10.3603 12.5708 10.3541L12.6265 10.2488C12.4964 10.1868 12.1557 10.255 12.131 10.1682C11.8274 10.2983 13.2956 10.0567 12.8867 10.1559C12.7814 10.0691 12.3168 10.3231 12.4035 10.1806C12.1186 10.1868 11.846 10.3045 11.5734 10.2054C11.654 10.224 11.8026 10.0567 11.5734 10.0629C11.1708 10.0815 11.4557 10.1125 11.1336 10.1497L10.9292 10.193C10.9168 10.2983 10.5699 10.1806 10.7186 10.2921C10.669 10.2054 10.1301 10.3417 10.1734 10.1744L10.2292 10.0382C10.0557 10.0505 9.94424 10.1806 9.80795 10.2426C9.78317 10.2302 9.73981 10.2054 9.74601 10.1806C9.72123 10.3851 9.33096 10.1621 9.12034 10.3231C8.75486 10.2488 8.19114 10.3169 8.01769 10.1868C7.73893 10.2488 7.47875 10.3231 7.15663 10.2798C7.21858 10.2612 7.3115 10.255 7.32389 10.2116C7.11946 10.1497 7.0699 10.2054 6.89026 10.2364C6.93362 10.2054 6.48761 10.1187 6.2646 10.0444C5.98584 10.1063 6.07876 10.2178 6.05398 10.2859C5.8 10.0815 5.26725 10.416 4.94513 10.2302C5.04424 10.1992 5.35398 10.1311 5.11858 10.0815C5.00088 9.98241 4.83363 10.0196 4.75309 10.0691C4.65398 10.1187 4.59203 10.1868 4.44336 10.1373C4.49292 10.193 4.54248 10.2488 4.59203 10.3045C4.49911 10.2364 4.42478 10.2983 4.38141 10.3045C4.38141 10.3355 4.36902 10.3417 4.30708 10.2859C4.36902 10.3974 4.25133 10.509 4.41858 10.5647C4.4 10.5895 4.38761 10.6267 4.38141 10.6638C4.37522 10.7196 4.36902 10.7134 4.36902 10.8373C4.36902 11.0293 4.36902 11.2275 4.36902 11.4196C4.36902 11.7974 4.35044 12.1443 4.20177 12.355C4.22655 12.4541 4.20177 12.6957 4.28849 12.6461C4.38141 12.4851 4.22035 12.4231 4.28849 12.3612C4.29469 12.4479 4.33805 12.4665 4.36283 12.4789C4.32566 12.6895 4.31327 12.8567 4.17699 12.6585C4.07168 13.1293 4.45575 13.1417 4.3938 13.7364C4.32566 13.7116 4.30088 13.755 4.31327 13.9284L4.43097 14.2567C4.40619 14.6408 4.2761 14.4735 4.15841 14.4859C4.17699 14.6904 4.17079 14.9443 4.25752 15.0373L4.11504 15.2851C4.22035 15.1054 4.18318 15.4523 4.21416 15.5514L4.18318 15.4523C4.13363 15.4895 4.1646 15.7311 4.17699 15.8488C4.25133 15.8178 4.2761 15.5762 4.30088 15.4461C4.35044 15.5514 4.33805 15.7125 4.4 15.855C4.28849 15.8116 4.31947 16.1895 4.30708 16.3567C4.2823 16.5426 4.40619 16.5674 4.40619 16.6231C4.34425 16.6293 4.3938 16.9266 4.31327 16.7842C4.29469 16.7222 4.36902 16.6355 4.31947 16.5302C4.2761 16.6541 4.17079 16.6417 4.24513 16.8957C4.30088 17.0877 4.46814 16.8461 4.4 17.2116C4.36902 17.1125 4.32566 17.1001 4.28849 17.0258L4.22655 17.3665L4.33186 17.3789C4.30708 17.4222 4.29469 17.3912 4.2823 17.416C4.3938 17.5151 4.31327 17.9426 4.43717 18.0169C4.44956 18.1904 4.36283 18.3824 4.35663 18.5496L4.35044 18.5187C4.28849 18.7231 4.33186 18.9895 4.4 19.1567L4.37522 19.1505C4.36902 19.262 4.38141 19.5222 4.44336 19.6585C4.36283 19.9373 4.0531 19.7514 4.18318 20.0612C4.18938 20.3461 4.37522 20.5072 4.43717 20.3895C4.36902 20.8974 4.53628 21.4735 4.37522 21.9505C4.41858 22.0249 4.44336 21.9753 4.46814 22.1302C4.42478 22.8797 4.59203 23.7098 4.38761 24.3045C4.34425 24.0877 4.2823 24.2921 4.22655 24.2921C4.31947 24.4718 4.12743 24.5089 4.28849 24.5709C4.38141 24.5523 4.42478 24.5709 4.46814 24.3603C4.5177 24.8063 4.5177 25.4815 4.43097 25.7293C4.47433 25.6054 4.50531 25.6983 4.53009 25.7974C4.38141 25.7665 4.35663 26.0948 4.41239 26.3426L4.50531 26.3797L4.3938 26.5346C4.42478 26.6275 4.58584 26.6399 4.49911 26.8877C4.46194 26.9001 4.43097 26.9125 4.4 26.962C4.47433 27.2222 4.59823 27.5815 4.52389 27.8603L4.3938 28.0833C4.40619 28.201 4.48672 28.4054 4.52389 28.1948C4.44336 28.6718 4.43097 28.9815 4.31947 29.1302C4.59823 29.9479 4.61062 31.1434 4.59203 32.0974L4.52389 32.0664C4.46194 32.3204 4.64159 32.1965 4.59823 32.3762C4.53628 32.2956 4.45575 32.5744 4.37522 32.37C4.30088 32.7355 4.49292 32.8408 4.52389 33.0824C4.61062 33.1195 4.46814 32.8903 4.57964 32.9337C4.61062 32.9771 4.5115 33.4417 4.64779 33.4974C4.59203 33.5903 4.49292 33.516 4.44336 33.4664L4.5115 33.6894C4.35044 33.962 4.22655 33.0638 4.03451 33.3549L4.0531 33.5594C3.91062 33.7576 3.89203 33.0142 3.84248 33.5284C3.91062 33.7514 4.10265 33.9434 4.1646 33.7452C4.20177 34.216 4.48672 33.962 4.47433 34.4638C4.3938 34.6001 4.45575 34.0611 4.34425 34.1602C4.23894 34.3956 4.4 34.6434 4.36902 34.8417C4.41239 34.6187 4.55486 34.8169 4.58584 34.9346C4.53628 35.1576 4.44956 34.7983 4.44956 35.108C4.5177 35.1576 4.6292 35.424 4.64159 35.1824C4.83982 35.2629 4.6292 35.4983 4.80885 35.6346C4.70973 35.7647 4.44956 35.3806 4.47433 35.7337C4.57964 35.6594 4.73451 36.0992 4.8646 35.8762C4.8646 36.0063 4.79026 36.0496 4.68495 35.9815C4.68495 36.1921 5.04424 36.3284 4.8584 36.4771L4.99469 36.4832C4.98849 36.5514 4.98849 36.6443 4.9823 36.762C5.02566 36.8363 5.13097 36.9293 5.20531 37.016C5.28584 37.0965 5.33539 37.1647 5.26106 37.2142C5.30442 37.2514 5.54601 37.5487 5.55221 37.3505C5.45929 37.1275 5.31062 37.1956 5.37256 36.9912C5.35398 37.208 5.58318 37.2514 5.71327 37.3071L5.6761 37.3691C5.74424 37.4124 5.86194 37.5549 5.95486 37.524C5.88053 37.5116 5.87433 37.5673 5.9053 37.6231L6.04159 37.5983C6.31415 37.7594 5.97345 37.7965 6.24601 37.9638L5.99822 37.8832C6.05398 37.9018 6.07876 38.0505 6.22743 38.1124C6.33274 38.0691 6.4938 38.0195 6.57433 37.9824C6.74159 38.0319 6.58052 38.1248 6.78495 38.1124C6.69822 38.1186 6.61769 38.1063 6.53097 38.1063C6.48141 38.1124 6.57433 38.3355 6.80973 38.4346C6.9646 38.4841 7.24336 38.416 7.03893 38.2859C7.15044 38.3231 7.28052 38.4346 7.16902 38.4717C7.43539 38.5337 7.17521 38.3602 7.40442 38.3788C7.47256 38.4594 7.73274 38.639 7.90619 38.7505C7.81327 38.7877 7.72035 38.8372 7.62123 38.8682C7.67698 38.8868 7.73274 38.893 7.79468 38.8992C7.5407 38.9983 7.8938 39.0169 7.73893 39.1346C7.86282 39.1717 8.01769 39.1593 8.14158 39.1284C7.81327 38.8806 8.55663 38.8434 8.45132 38.6328C8.95309 38.5832 8.77344 39.1346 9.32477 38.8124C9.23185 38.7567 9.49822 38.6018 9.15751 38.6638C9.48583 38.6886 9.38052 38.4594 9.77079 38.5461C9.47964 38.6328 10.0805 38.7567 9.66548 38.8744C9.69645 38.8063 9.43008 38.8248 9.36813 38.8434C9.50441 38.924 9.33716 39.0478 9.67787 39.0478C9.88229 39.0293 10.1672 39.0231 10.1301 38.9178C10.1239 38.8001 9.81415 38.9301 9.94424 38.8124C10.3593 38.7691 10.4274 38.9487 10.5947 38.7443C10.3345 38.7629 10.2664 38.639 10.2726 38.5585L10.5761 38.5089L10.5203 38.5894C11.0035 38.6452 10.6628 38.447 11.1336 38.4717L11.3566 38.6266C11.2451 38.7567 10.6752 38.5647 10.7557 38.7815C11.0593 38.7877 11.1646 38.6824 11.4495 38.7381C11.3876 38.7567 11.3009 38.7629 11.2327 38.7815C11.3442 38.7877 11.4495 39.0726 11.8894 38.9054C12.1124 38.8372 11.9513 38.831 11.9575 38.7505C12.4469 38.7257 12.5956 38.6452 12.9115 38.6328C12.8495 38.7939 13.469 38.6452 13.1221 38.8124C12.961 38.7195 12.2487 38.7319 12.0752 38.8806C12.2549 39.0664 11.6911 38.8558 11.5858 39.0417C11.9823 39.0478 11.9637 39.2275 12.0256 39.3514C12.1372 39.3576 12.2425 39.308 12.3044 39.2894C12.3478 39.1779 12.2053 39.1779 12.1991 39.0602C12.6389 39.0912 13.0602 39.0293 13.3018 38.9178C13.4504 38.9735 13.4009 39.085 13.2274 39.0974C13.7478 39.0664 14.3115 39.0788 14.8071 39.116C14.4849 38.9301 15.3584 39.0726 15.1416 38.9178C14.8752 38.8744 14.646 38.7443 14.7947 38.6638C14.9619 38.6762 14.7885 38.7443 14.8566 38.7877C15.0672 38.6886 15.1849 38.9487 15.3956 38.7877C14.9186 38.8496 15.3026 39.0107 15.2159 39.1594C15.5628 39.0788 15.2035 39.2647 15.5442 39.2647C15.8849 39.1841 16.3062 39.1222 16.6902 39.0912C17.1672 39.2275 17.9044 39.0912 18.3318 39.0912C18.5548 39.1655 18.4062 39.3266 18.6478 39.3576C18.9327 39.3514 18.4371 39.1779 18.8584 39.2585L18.815 39.2894C18.9451 39.2523 19.5894 39.4009 19.7132 39.1655L19.5832 39.3452C19.6637 39.3638 19.7318 39.3204 19.8 39.3018C19.8 39.3576 19.8929 39.4133 19.769 39.4505C20.0292 39.5744 20.3141 39.4319 20.5991 39.4257L20.4194 39.3204C20.9026 39.2399 21.2309 39.3452 21.6955 39.308L21.6832 39.4133L21.9619 39.3514C21.8938 39.4505 22.1478 39.5186 22.2964 39.4319L21.5717 39.6859C21.3734 39.624 21.7885 39.562 21.6646 39.4629C21.5593 39.3762 21.1256 39.4009 21.0513 39.5001C21.2186 39.5124 21.2247 39.4877 21.3548 39.4505C21.4106 39.593 21.1566 39.5868 21.0327 39.6859C21.1194 39.6797 21.2433 39.7231 21.2619 39.6797C21.0885 39.7478 20.9212 39.7602 20.6363 39.7664C20.8283 39.7107 20.5309 39.6797 20.6053 39.6363C20.5805 39.7602 20.3079 39.8036 19.961 39.7664C19.7071 39.6178 19.2982 39.8594 18.8955 39.8222C19.0628 39.6921 19.2734 39.593 19.5212 39.5372C19.2672 39.4753 19.2363 39.5434 18.9823 39.4753C18.8584 39.5682 18.7717 39.7169 18.4371 39.7726L18.4186 39.6797C18.115 39.7293 18.115 39.8655 17.731 39.8408C17.0743 39.7974 16.3929 39.7974 15.8911 39.785L15.8725 39.6921C15.5938 39.8965 14.9371 39.7664 14.5593 39.8532C13.915 39.7602 13.1655 39.9461 12.8372 39.7788C11.7035 39.8532 10.7124 39.9213 9.54158 39.8903L9.73981 39.754C9.52919 39.8532 9.60353 39.6735 9.3991 39.6983C9.6345 39.8098 9.11415 39.8408 8.96548 39.9213C8.7115 39.8717 8.40796 39.8717 8.07964 39.8779C7.76371 39.8717 7.44778 39.8717 7.1876 39.847L7.1938 39.754C6.64247 39.7912 6.10353 39.3947 5.61416 39.0045C5.57699 38.9301 5.53982 38.7877 5.38495 38.6886C5.03186 38.5832 4.89557 38.4532 4.49292 38.1248C4.25133 37.8337 3.94779 37.2886 3.86106 36.9169C3.47699 36.3222 3.29115 35.5912 3.27876 34.8664C3.26637 34.2036 3.27257 33.5594 3.20442 32.8903L3.31593 32.7974C3.08053 31.5151 3.29115 29.9355 3.17345 28.839L3.36549 28.9443C3.42124 28.6036 3.31593 28.1638 3.17965 28.2505C3.2354 27.9036 3.08673 27.3895 3.24159 27.1726C3.27876 26.8195 3.15487 26.739 3.13009 26.4479C3.20442 25.7417 3.18584 25.4815 3.14867 24.8187L3.13628 24.9859C3.17965 25.0603 3.26018 25.0665 3.27257 24.8992C3.22301 24.6514 3.32212 23.9886 3.09911 24.2364C3.2292 23.524 2.99381 22.5824 3.16726 21.8886C3.10531 21.9505 3.09292 21.7709 3.04956 21.7027C3.04956 21.0771 3.17345 20.4266 3.06814 19.9311C3.09911 19.8319 3.17345 20.0859 3.17965 19.8381C3.15487 19.6895 3.09911 19.8319 3.06195 19.6523C2.94425 18.6426 3.17965 17.6081 3.14867 16.6912C3.03097 15.062 3.08673 13.3585 3.06814 11.7974L3.1115 11.816C2.99381 11.5125 3.03717 11.2028 3.07434 10.9116C3.09292 10.8063 3.10531 10.5213 3.09911 10.2983C3.09292 10.0691 3.06814 9.84612 3 9.61692C3.03097 9.46205 3.02478 9.04701 3.06195 8.98506C3.10531 8.99745 3.1177 9.00984 3.10531 9.02843C3.40265 8.96648 3.95398 8.99745 4.49911 9.02223C4.62301 9.02843 4.75309 9.03462 4.87699 9.04081L5.11858 9.04701C5.27964 9.04701 5.4407 9.02843 5.58938 8.99126C5.53362 8.98506 5.50265 8.99745 5.4407 9.01604C6.04778 9.11515 6.58672 8.97887 7.22477 9.06559C7.15663 9.08418 7.03893 9.09657 7.02035 9.14612C7.26813 9.23285 7.60884 8.95409 7.74512 9.1709C7.8876 9.1709 7.84424 9.0594 7.75751 9.06559C9.16371 9.15232 10.6628 9.00984 12.1248 8.96028C13.1717 9.09037 12.1867 9.32577 13.0168 9.16471C13.0849 9.20807 13.0664 9.07798 13.0787 9.12754C13.4009 9.06559 13.5743 9.36913 13.7973 9.25763C13.7044 9.12135 13.946 9.18329 13.9522 9.10276C14.5902 9.18949 14.7203 9.31338 15.2283 9.20807L15.1911 9.27621C15.7858 9.07798 16.4734 9.18329 16.969 8.95409C20.2398 8.91073 23.3743 8.78683 26.5646 8.75586C27.3637 8.76205 28.1566 8.76205 28.9495 8.76825C28.9557 10.4284 28.9557 12.0762 28.9619 13.7364C28.9619 15.0682 28.9495 16.4063 28.9 17.7691C28.7141 18.5187 28.7203 18.5744 28.7947 19.3983C28.7637 19.3673 28.7575 19.3116 28.7327 19.3673C28.8876 19.4107 28.7451 19.9496 28.8938 20.024C28.8628 21.2072 28.9062 22.2974 28.9062 23.5178C28.8876 23.3257 28.7637 23.2266 28.7761 23.4558L28.8752 23.6974L28.8318 23.7346C28.8566 23.8895 28.9309 24.0629 28.9805 23.9019C29.1106 26.962 28.807 29.9726 28.8442 32.9647C28.8132 33.3178 28.8132 33.7514 28.8194 34.1912C28.8256 34.4142 28.8318 34.6372 28.838 34.854C28.8318 35.108 28.8442 35.3558 28.807 35.585C28.5159 36.9231 27.7663 38.0319 26.8 38.8063C25.8336 39.5806 24.6318 40.0576 23.3062 40.1381C23.3062 40.1381 23.3929 40.039 23.6035 39.9151C23.8079 39.7974 24.1301 39.6549 24.5947 39.4753Z" fill="var(--icon-color, #8BC8E3)"/>
<path d="M15.4813 38.9611C15.4751 38.9859 15.3822 38.9302 15.3574 38.9178C15.4441 38.9116 15.5247 38.8496 15.599 38.8868C15.5061 38.893 15.5185 38.9302 15.4813 38.9611Z" fill="var(--icon-color, #8BC8E3)"/>
<path d="M13.6602 38.9182C13.6849 38.85 14.0752 38.7943 14.3044 38.7881L13.6602 38.9182Z" fill="var(--icon-color, #8BC8E3)"/>
<path d="M11.9636 38.6395C11.8149 38.5837 11.8583 38.5527 12.0565 38.5527C12.0689 38.5899 12.007 38.6023 11.9636 38.6395Z" fill="var(--icon-color, #8BC8E3)"/>
<path d="M11.8452 38.795C11.7027 38.795 11.6345 38.7579 11.5664 38.7207C11.5726 38.7765 11.8947 38.6773 11.8452 38.795Z" fill="var(--icon-color, #8BC8E3)"/>
<path d="M8.22767 38.5775C8.15334 38.5837 7.99228 38.6147 7.93652 38.5342C8.00466 38.6085 8.28962 38.4908 8.22767 38.5775Z" fill="var(--icon-color, #8BC8E3)"/>
<path d="M6.85268 38.3292C6.81551 38.3044 6.80312 38.2858 6.74737 38.2796C6.68542 38.2176 6.79073 38.2115 6.85268 38.2362V38.3292Z" fill="var(--icon-color, #8BC8E3)"/>
<path d="M4.70977 10.2556L4.63544 10.2866L4.62305 10.2246L4.70977 10.2556Z" fill="var(--icon-color, #8BC8E3)"/>
<path d="M18.2324 10.2555C18.4183 10.2122 18.3625 10.3175 18.3935 10.3299C18.22 10.3361 18.4492 10.2431 18.2324 10.2555Z" fill="var(--icon-color, #8BC8E3)"/>
<path d="M8.52562 14.9629C8.5566 15.093 8.64332 14.8947 8.57518 15.0496C8.52562 15.031 8.48226 15.0063 8.52562 14.9629Z" fill="var(--icon-color, #8BC8E3)"/>
<path d="M23.8201 14.6228C23.4608 14.214 23.8201 13.6689 23.5909 13.2228C23.5785 13.1733 23.7829 13.2352 23.7395 13.1175C23.4608 12.6839 23.6218 11.9963 23.8263 11.4636L23.882 11.4945C23.9192 11.3954 23.7395 11.2715 23.7643 11.1662C23.8015 11.1662 23.8139 11.1972 23.8634 11.1724C23.7519 11.1476 23.8077 10.9804 23.7272 10.937C23.7705 10.8936 23.8572 10.8998 23.9006 10.8441L23.7767 10.7821C23.4794 10.6149 23.7891 10.3671 23.6342 10.1379C23.6652 10.1503 23.6838 10.1689 23.7148 10.1503C23.5227 9.7848 23.5599 9.30161 23.4608 8.91135C23.5041 8.92374 23.5909 8.92374 23.6342 8.89276C23.4979 8.88657 23.4484 8.76887 23.3988 8.66356C23.5227 8.58922 23.244 8.4963 23.2935 8.36002L23.3245 8.36622C23.1696 8.29807 23.3864 8.21135 23.1944 8.16799L23.2811 8.08745C23.0829 8.08745 23.3431 7.93259 23.2316 7.87684L23.1944 7.88923C23.1325 7.82728 23.213 7.76533 23.1634 7.70958L23.182 7.69719C23.0953 7.55471 23.1696 7.43082 23.0272 7.48038C23.1263 7.39365 23.1201 7.61666 23.2626 7.48038C23.1077 7.24498 22.99 6.99719 22.8847 6.7494C22.7608 6.50781 22.6741 6.24763 22.544 6.01224C22.5687 5.93171 22.5687 5.88834 22.6059 5.85118C22.5564 5.8202 22.482 5.68392 22.3953 5.67772C22.4077 5.69011 22.4449 5.60958 22.4387 5.57861C22.4387 5.46091 22.2528 5.56622 22.2466 5.44233C22.3024 5.45472 22.3519 5.44852 22.3953 5.40516C22.2466 5.38657 22.1909 5.27507 22.1041 5.20073C22.1351 5.20073 22.1599 5.21312 22.1971 5.18834C22.0236 5.15737 22.1041 4.99011 21.9741 4.94675L22.067 4.92817C22.0608 4.72994 21.8997 4.98392 21.8564 4.83525C21.8997 4.84764 21.9183 4.81666 21.9493 4.80427C21.7387 4.78569 21.6457 4.58746 21.5218 4.51312C21.5342 4.51312 21.5528 4.49454 21.5528 4.49454C21.4537 4.38923 21.3856 4.24675 21.2245 4.17242C21.2121 4.10428 21.3918 4.04233 21.2617 3.94941C21.1378 4.0733 21.0325 3.80693 20.9519 4.00516C20.89 3.88746 20.7723 3.70782 20.667 3.68923C20.7723 3.68304 20.7785 3.491 20.8714 3.55295L20.8776 3.41667C20.9334 3.3733 20.9272 3.491 20.9643 3.41047C20.9148 3.3795 20.7475 3.31755 20.7289 3.2618C20.5864 3.26799 20.382 3.36711 20.2395 3.28658C20.3449 3.28038 20.3201 3.10693 20.382 3.11932L20.0041 3.24321C19.9546 3.21844 20.0723 3.12552 19.9856 3.11313C19.9608 3.15029 19.9174 3.15649 19.8803 3.16888C19.8803 3.13791 19.6696 3.08835 19.744 2.93348C19.7626 2.86534 19.8369 2.95206 19.8183 2.86534C19.7316 2.81578 19.6944 2.85914 19.6077 2.80959L19.6201 2.791C19.5767 2.73525 19.4157 2.74764 19.428 2.87153C19.4652 2.90251 19.4652 2.77242 19.4962 2.85295C19.4033 2.9149 19.298 2.87153 19.2112 2.83437C19.2546 2.82198 19.2732 2.78481 19.3103 2.74764C19.1245 2.80339 18.982 2.78481 18.8334 2.77242C18.7962 2.84676 18.9449 2.66091 18.9449 2.71047C18.821 2.51844 18.536 2.69189 18.4493 2.48746C18.4803 2.48746 18.4183 2.60516 18.4307 2.58038C18.3502 2.53702 18.3935 2.43171 18.3254 2.4503C18.344 2.38215 18.2511 2.4441 18.1891 2.4441C18.1457 2.48127 18.1829 2.40693 18.2387 2.41932C18.1396 2.43171 17.7926 2.46268 17.6316 2.31401C17.6254 2.35738 17.4829 2.4441 17.4396 2.43171L17.4767 2.3326C17.4519 2.26446 17.328 2.32021 17.3404 2.22729C17.2227 2.3326 17.7183 2.19012 17.5758 2.26446C17.5573 2.15915 17.3652 2.38835 17.421 2.25207C17.3342 2.23968 17.2289 2.34499 17.1608 2.23348C17.1794 2.25207 17.2537 2.0972 17.1856 2.0972C17.0555 2.0972 17.1422 2.14056 17.0369 2.15915L16.9688 2.19012C16.9502 2.28923 16.8573 2.15915 16.8944 2.28304C16.8882 2.19012 16.7086 2.32021 16.7396 2.15295L16.7705 2.01667C16.7148 2.02286 16.6652 2.15295 16.6219 2.2087C16.6157 2.19631 16.6033 2.16534 16.6095 2.14676C16.5909 2.35118 16.4794 2.12198 16.4112 2.27684C16.2997 2.19012 16.1263 2.25826 16.0705 2.14056C15.9714 2.2149 15.8971 2.28923 15.798 2.25207C15.8165 2.23348 15.8413 2.22729 15.8475 2.17773C15.7794 2.12198 15.767 2.17773 15.7174 2.2087C15.7298 2.17773 15.5811 2.08481 15.5006 2.02906C15.4201 2.10339 15.4634 2.2087 15.4634 2.27684C15.3581 2.08481 15.2466 2.4441 15.1165 2.27684C15.1413 2.24587 15.2281 2.15915 15.1413 2.12198C15.0236 1.93614 15.005 2.28923 14.8626 2.22729L14.9307 2.38215C14.8502 2.29543 14.7758 2.52463 14.7449 2.35738C14.7201 2.42552 14.5838 2.34499 14.6396 2.49985C14.3918 2.40693 14.1935 2.72906 13.9643 2.49985C13.9458 2.53702 13.8652 2.53702 13.9086 2.61136C13.9891 2.6795 13.9519 2.52463 13.9891 2.58038C13.9643 2.59277 13.9767 2.63614 13.9829 2.66091C13.9086 2.64853 13.8528 2.65472 13.859 2.50605C13.6794 2.46269 13.8219 2.81578 13.636 2.84056C13.6174 2.77242 13.5927 2.76003 13.5493 2.791L13.5121 2.93968C13.3944 2.96445 13.382 2.82817 13.3263 2.72906C13.2767 2.77861 13.2024 2.80339 13.2148 2.89631L13.0723 2.80959C13.1714 2.87153 13.0599 2.89631 13.0475 2.93968L13.0599 2.89631C13.0227 2.85914 12.9732 2.92729 12.9484 2.95826C12.9918 3.01401 13.0723 3.00162 13.1157 2.99543C13.1157 3.05737 13.0661 3.07596 13.0599 3.15029C13.0166 3.04499 12.9298 3.13791 12.8803 3.15029C12.8183 3.16268 12.8803 3.26799 12.8617 3.27419C12.8307 3.22463 12.775 3.31755 12.7688 3.22463C12.775 3.19985 12.8369 3.24941 12.8369 3.18746C12.7812 3.16888 12.7254 3.08215 12.7006 3.18746C12.682 3.26799 12.8369 3.36711 12.7006 3.36711C12.7068 3.32375 12.6882 3.28658 12.6882 3.24321C12.6449 3.24321 12.6077 3.24941 12.5643 3.2556L12.6201 3.34233C12.5953 3.32994 12.5953 3.31755 12.5829 3.31136C12.6201 3.41667 12.4714 3.43525 12.5272 3.55295C12.49 3.59631 12.3971 3.56534 12.3475 3.58392V3.57153C12.2608 3.55914 12.2174 3.64587 12.2174 3.7264L12.205 3.70782C12.1741 3.7264 12.1245 3.79454 12.1307 3.86888C12.013 3.86888 11.852 3.59631 11.8643 3.75737C11.7962 3.81932 11.8891 3.99277 11.9573 4.01755C11.79 4.06711 11.7776 4.31489 11.567 4.31489C11.5794 4.35826 11.6104 4.37065 11.598 4.4202C11.4059 4.55649 11.3688 4.85383 11.0962 4.87861C11.1024 4.79808 11.0157 4.81047 10.9723 4.7733C11.0095 4.87242 10.8546 4.76711 10.9661 4.87861C11.0466 4.92817 11.0776 4.96534 11.1458 4.93436C11.1024 5.07065 10.9723 5.23171 10.8608 5.25029C10.9166 5.2441 10.9227 5.28126 10.9289 5.32463C10.8112 5.23171 10.7369 5.30604 10.7369 5.39896L10.805 5.46091L10.6997 5.45472C10.7059 5.49808 10.8422 5.5848 10.7245 5.60339C10.6935 5.591 10.6626 5.57241 10.6316 5.57241C10.6502 5.67772 10.6997 5.83879 10.5944 5.87595L10.4458 5.86976C10.4396 5.90693 10.4829 6.00604 10.5449 5.96268C10.4272 6.0494 10.3714 6.12994 10.2475 6.11755C10.3776 6.47684 10.2413 6.80516 10.1174 7.07153L10.0555 7.04055C9.96877 7.09011 10.1546 7.12108 10.0927 7.15825C10.0431 7.1087 9.93779 7.16445 9.88824 7.07772C9.78293 7.16445 9.95018 7.25737 9.95638 7.3379C10.0369 7.37507 9.91921 7.26356 10.0245 7.31312C10.0493 7.3379 9.90682 7.43701 10.0307 7.49896C9.96877 7.51135 9.88204 7.4556 9.83868 7.42462L9.87585 7.51135C9.6962 7.54852 9.67142 7.23878 9.4608 7.26356V7.3317C9.30594 7.35029 9.36788 7.1087 9.26877 7.25737C9.30594 7.35029 9.47319 7.46799 9.55372 7.42462C9.54134 7.57949 9.84487 7.58569 9.78912 7.73436C9.7024 7.75294 9.80151 7.60427 9.69001 7.60427C9.56611 7.64763 9.70859 7.76533 9.65903 7.82108C9.72718 7.76533 9.84487 7.85825 9.85726 7.914C9.77673 7.97595 9.74576 7.83347 9.7024 7.93878C9.77054 7.97595 9.80151 8.08746 9.87585 8.01931C10.0369 8.09984 9.80151 8.11843 9.91921 8.21135C9.78912 8.21754 9.67142 8.0317 9.5785 8.13701C9.6962 8.14321 9.7024 8.32285 9.88824 8.29807C9.84487 8.33524 9.75195 8.32285 9.69001 8.2733C9.60328 8.32905 9.87585 8.48391 9.64045 8.45914L9.75815 8.50869C9.71479 8.52108 9.67762 8.54586 9.60948 8.57064C9.59709 8.63259 9.73957 8.79365 9.55372 8.75648C9.56611 8.78126 9.53514 8.91754 9.67142 8.88037C9.76434 8.80604 9.59709 8.76887 9.77673 8.75029C9.62806 8.78745 9.77054 8.87418 9.80771 8.92993H9.73337C9.75195 8.97329 9.73337 9.00427 9.8139 9.02285C9.77673 9.01046 9.72718 9.01046 9.70859 9.02285L9.8139 9.04763C9.86346 9.15913 9.62187 9.06002 9.64664 9.17772L9.56611 9.0848C9.5847 9.10338 9.47939 9.14055 9.51036 9.2025C9.60948 9.23347 9.72718 9.27064 9.80151 9.29542C9.84487 9.36356 9.69001 9.3202 9.78912 9.39453L9.67142 9.30161C9.64045 9.28922 9.50417 9.35736 9.50417 9.45028C9.53514 9.51223 9.67762 9.60515 9.73337 9.51223C9.73337 9.56179 9.67142 9.62374 9.59709 9.58657C9.62806 9.69807 9.7024 9.57418 9.76434 9.6671C9.6962 9.70427 9.60328 9.82197 9.50417 9.89011L9.34311 9.79099V9.85294C9.21302 9.76621 9.2378 9.89011 9.10151 9.84055C9.07673 9.88391 9.12629 9.93966 9.16346 9.98303C9.39266 9.85913 9.467 10.1317 9.67142 10.1007C9.72098 10.2804 9.16965 10.1998 9.48558 10.3919C9.54133 10.3609 9.6962 10.4538 9.63426 10.3423C9.60948 10.4538 9.83868 10.4228 9.75195 10.5467C9.67142 10.4476 9.54134 10.6459 9.42364 10.5034C9.49178 10.5158 9.47939 10.429 9.45461 10.4043C9.37408 10.4476 9.25019 10.3919 9.24399 10.5034C9.26257 10.5715 9.26257 10.6706 9.37408 10.6582C9.49178 10.6582 9.36169 10.5529 9.47939 10.5963C9.51656 10.7326 9.33691 10.7574 9.54753 10.8131C9.53514 10.7264 9.65284 10.7078 9.73337 10.7078L9.78293 10.8069L9.7024 10.7883C9.64664 10.9494 9.84487 10.8379 9.8201 10.9928L9.66523 11.0671C9.53514 11.0299 9.72718 10.8379 9.51036 10.8627C9.49797 10.9618 9.60948 10.999 9.55372 11.0981C9.53514 11.0733 9.52895 11.0485 9.51036 11.0237C9.50417 11.0609 9.21302 11.0919 9.38027 11.2405C9.44222 11.3149 9.45461 11.2591 9.53514 11.2653C9.55992 11.4326 9.64045 11.4821 9.65284 11.5874C9.49797 11.5627 9.63426 11.7733 9.47319 11.6556C9.56611 11.5998 9.55992 11.3644 9.41125 11.3025C9.22541 11.3582 9.44222 11.1724 9.25019 11.1352C9.24399 11.2653 9.05815 11.2591 8.94045 11.2777C8.93426 11.3149 8.98381 11.3521 9.0024 11.3706C9.1139 11.3892 9.1139 11.3397 9.2316 11.3397C9.20063 11.4883 9.26257 11.6308 9.36788 11.7113C9.31213 11.7609 9.20063 11.7423 9.18824 11.6866C9.21921 11.86 9.20063 12.0459 9.16346 12.2131C9.3493 12.1078 9.20682 12.399 9.36169 12.3246C9.40505 12.2379 9.53514 12.1636 9.62187 12.2131C9.60948 12.2689 9.54134 12.2131 9.49797 12.2317C9.59709 12.306 9.33691 12.3432 9.49178 12.4113C9.43603 12.2503 9.26877 12.3804 9.1201 12.3494C9.20063 12.4671 9.01479 12.3432 9.01479 12.4547C9.09532 12.5724 9.15727 12.7149 9.18824 12.8388C9.05196 12.9998 9.18204 13.2476 9.18824 13.3901C9.10771 13.452 8.94045 13.4025 8.90948 13.483C8.90948 13.5759 9.08912 13.4149 9.00859 13.5574L8.97762 13.545C9.01479 13.5883 8.86611 13.8051 9.10151 13.8485L8.92187 13.8051C8.90328 13.8299 8.94665 13.8547 8.96523 13.8795C8.90948 13.8795 8.85373 13.9105 8.81656 13.8671C8.69266 13.9538 8.83514 14.0529 8.84134 14.1459L8.94665 14.0839C9.02718 14.245 8.92187 14.3565 8.95904 14.5113L8.85373 14.5051L8.91567 14.5981C8.81656 14.5733 8.74842 14.66 8.83514 14.7096L8.58116 14.468C8.64311 14.3998 8.70505 14.5423 8.80417 14.4989C8.89089 14.4618 8.86611 14.3193 8.767 14.2945C8.75461 14.3503 8.77939 14.3503 8.81656 14.3936C8.67408 14.4122 8.68027 14.3255 8.58116 14.2821C8.58735 14.3131 8.54399 14.3503 8.58735 14.3565C8.51921 14.3007 8.50682 14.2388 8.50682 14.1459C8.56258 14.2078 8.59355 14.1087 8.63691 14.1335C8.51302 14.1273 8.46966 14.0343 8.50682 13.9166C8.6555 13.8361 8.4139 13.6936 8.45727 13.5574C8.58735 13.6131 8.68647 13.6874 8.73603 13.768C8.79797 13.6813 8.73603 13.6751 8.79797 13.5883C8.71125 13.5512 8.56877 13.5202 8.50682 13.4087L8.60594 13.4025C8.55638 13.3034 8.4201 13.2972 8.44488 13.1733C8.49443 12.9503 8.49443 12.7273 8.50682 12.5538L8.59974 12.5476C8.40151 12.4547 8.5316 12.2317 8.43868 12.1078C8.5316 11.891 8.35196 11.637 8.51921 11.5317C8.45107 11.1538 8.38293 10.8193 8.42629 10.4228L8.56258 10.491C8.46346 10.4167 8.64311 10.4476 8.62452 10.3795C8.51302 10.46 8.48204 10.2804 8.40151 10.2308C8.51302 10.0574 8.40151 9.82816 8.30859 9.67329L8.40151 9.6671C8.22806 9.50604 8.38912 9.3202 8.42629 9.12197C8.46346 9.09719 8.55638 9.06621 8.55019 9.01046C8.40151 8.89276 8.4201 8.79365 8.35815 8.62639C8.37674 8.50869 8.45107 8.32285 8.5316 8.21754C8.45727 7.97595 8.50682 7.74675 8.55638 7.52374C8.59974 7.29454 8.67408 7.07772 8.69886 6.82994L8.81656 6.83613C8.767 6.56976 8.85373 6.32817 8.97142 6.10516C9.07673 5.88215 9.20063 5.67153 9.24399 5.4733L9.39266 5.59719C9.50417 5.51666 9.47939 5.33082 9.3493 5.29365C9.4608 5.21312 9.41744 4.97153 9.59709 4.99011C9.6962 4.90339 9.60948 4.81666 9.64664 4.71135C9.85107 4.5379 9.87585 4.44498 9.99974 4.23436L9.95638 4.27153C9.97496 4.31489 10.0369 4.36445 10.0803 4.32728C10.0927 4.22817 10.3219 4.09808 10.0927 4.02994C10.3466 3.90605 10.4024 3.491 10.7059 3.42906C10.644 3.40428 10.6812 3.34852 10.6688 3.29897C10.8174 3.11932 11.0962 3.06357 11.1581 2.85914C11.2077 2.85914 11.1829 2.97684 11.2573 2.92109C11.282 2.86534 11.2077 2.85914 11.2325 2.78481C11.4431 2.4503 11.8953 2.40693 12.1555 2.20251C12.5953 1.77508 13.2024 1.53348 13.7475 1.32906L13.7537 1.37242C13.8838 1.13083 14.2369 1.40339 14.3174 1.11224C14.3732 1.14322 14.4971 1.08747 14.4785 1.18039C14.6024 1.01313 14.9245 1.19897 15.1165 1.01313C15.098 1.01313 15.0856 1.02552 15.067 1.0441C15.3024 1.10605 15.482 0.938794 15.7298 1.02552C15.705 1.0441 15.6617 1.06269 15.6617 1.10605C15.7546 1.18658 15.8661 0.901626 15.9281 1.11844C15.9776 1.11224 15.959 1.00694 15.9281 1.01313C16.4422 1.07508 16.9997 0.975962 17.5511 1.02552C17.9103 1.21755 17.5015 1.38481 17.8298 1.29189C17.8422 1.34145 17.867 1.21755 17.8608 1.26092C17.9909 1.22994 17.9723 1.54587 18.0838 1.45295C18.09 1.31667 18.1581 1.3972 18.1829 1.31667C18.3873 1.45915 18.3873 1.58924 18.5918 1.55826L18.5546 1.62021C18.821 1.5149 19.0254 1.68835 19.2794 1.56446C20.4006 2.03525 21.4289 2.6795 22.2404 3.56534C22.9776 4.48215 23.6466 5.45472 23.9378 6.61312C23.851 6.93524 23.8634 6.94763 24.0307 7.214C23.9997 7.20781 23.9873 7.19542 23.9626 7.2202C24.1112 7.18923 24.0307 7.41843 24.1794 7.40604C24.2723 7.83347 24.3838 8.21754 24.4581 8.65737C24.4272 8.58922 24.3033 8.57683 24.3218 8.65737L24.4333 8.7317L24.3962 8.75029C24.4272 8.79365 24.5077 8.89896 24.551 8.79984C24.5882 9.02905 24.5944 9.11577 24.6068 9.26444C24.613 9.39453 24.6192 9.53082 24.613 9.65471C24.6068 9.91489 24.5882 10.1689 24.5634 10.4228C24.5139 10.9308 24.4519 11.4388 24.4767 11.9405C24.4148 12.1821 24.4767 12.5167 24.5077 12.7768C24.3095 13.5512 24.1546 14.2388 24.2971 15.0255C24.3033 15.0503 23.9068 14.945 23.8201 14.6228Z" fill="var(--icon-color, #8BC8E3)"/>
<path d="M8.5127 14.808C8.58703 14.7832 8.63039 14.6903 8.72951 14.7646C8.66137 14.7708 8.58084 14.8204 8.5127 14.808Z" fill="var(--icon-color, #8BC8E3)"/>
<path d="M9.31194 12.4359C9.28716 12.4297 9.34291 12.405 9.3553 12.3926C9.3615 12.4236 9.42344 12.4483 9.38628 12.4731C9.38008 12.4421 9.34291 12.4483 9.31194 12.4359Z" fill="var(--icon-color, #8BC8E3)"/>
<path d="M9.36719 11.8291C9.43533 11.8415 9.48489 11.9716 9.49728 12.0459L9.36719 11.8291Z" fill="var(--icon-color, #8BC8E3)"/>
<path d="M9.65234 11.2655C9.7081 11.2159 9.73907 11.2283 9.73907 11.2965C9.7019 11.2965 9.68332 11.2779 9.65234 11.2655Z" fill="var(--icon-color, #8BC8E3)"/>
<path d="M9.49805 11.2218C9.49805 11.1723 9.53522 11.1537 9.57858 11.1289C9.51663 11.1289 9.60955 11.2404 9.49805 11.2218Z" fill="var(--icon-color, #8BC8E3)"/>
<path d="M9.714 9.99563C9.70781 9.96465 9.65206 9.90271 9.73259 9.87793C9.67683 9.9089 9.81312 10.0204 9.714 9.99563Z" fill="var(--icon-color, #8BC8E3)"/>
<path d="M9.62793 9.43242C9.63412 9.41384 9.64651 9.40764 9.62793 9.38286C9.6589 9.35189 9.70846 9.38906 9.71466 9.41384L9.62793 9.43242Z" fill="var(--icon-color, #8BC8E3)"/>
<path d="M15.0108 2.32654L14.9613 2.3699L14.9551 2.30176L15.0108 2.32654Z" fill="var(--icon-color, #8BC8E3)"/>
<path d="M16.2619 20.4953C16.1318 20.3343 16.2185 20.6502 16.1504 20.4086C16.2123 20.4024 16.2681 20.4148 16.2619 20.4953Z" fill="var(--icon-color, #8BC8E3)"/>
<path d="M15.7545 19.8702C15.104 19.5605 14.8315 18.6809 14.1439 18.3773C14.0757 18.334 14.2863 18.2472 14.1191 18.1543C13.4253 17.9189 12.6757 17.2189 11.7713 16.9711L11.827 16.9154C11.6536 16.872 11.4492 17.0517 11.2757 17.0331C11.2695 16.9959 11.3253 16.9835 11.2819 16.934C11.2509 17.0455 10.9722 17.0517 10.9164 17.1508C10.8359 17.126 10.8235 17.0393 10.7182 17.0145L10.6562 17.157C10.5757 17.349 10.4394 17.4171 10.266 17.4729C10.1855 17.5039 10.0863 17.5225 10.0058 17.5658C9.93147 17.6154 9.86333 17.6835 9.80758 17.7702C9.80758 17.7331 9.81997 17.6959 9.7828 17.6897C9.68988 17.8136 9.58457 17.9375 9.47306 18.049C9.36776 18.1667 9.27484 18.3092 9.16333 18.4331L8.84121 18.8171C8.74829 18.9596 8.66156 19.1021 8.58103 19.2384C8.56864 19.1888 8.51908 19.1207 8.45714 19.1269C8.54386 19.2322 8.45714 19.4118 8.37661 19.5667C8.20935 19.5543 8.31466 19.8764 8.16599 20.0065L8.1474 19.9755C8.20935 20.1676 7.96156 20.1304 8.08546 20.3101L7.95537 20.3596C8.11643 20.4835 7.78811 20.5269 7.84386 20.6694L7.88103 20.6755C7.90581 20.7932 7.8005 20.8304 7.81289 20.9419L7.78811 20.9481C7.78192 21.1959 7.69519 21.3322 7.83767 21.3384C7.71378 21.4189 7.79431 21.0968 7.61466 21.2145C7.69519 22.0632 7.86245 22.8809 8.18457 23.6614C8.15979 23.7729 8.17838 23.8348 8.12882 23.8782C8.19077 23.9401 8.28988 24.157 8.389 24.1941C8.37661 24.1693 8.34563 24.2747 8.35802 24.318C8.3828 24.4791 8.58103 24.3924 8.60581 24.572C8.53767 24.5348 8.48811 24.5348 8.44475 24.5782C8.6182 24.6525 8.68634 24.8322 8.81023 24.9561C8.77307 24.9437 8.74209 24.9189 8.70492 24.9499C8.91554 25.0428 8.85979 25.2534 9.01466 25.3525L8.90935 25.3463C8.9651 25.6251 9.10138 25.3154 9.17572 25.5384C9.11997 25.5074 9.10758 25.5446 9.07041 25.5508C9.3182 25.6437 9.46687 25.9534 9.63413 26.0897C9.61554 26.0835 9.60315 26.1021 9.60315 26.1021C9.75183 26.2755 9.85714 26.4985 10.0678 26.6534C10.0925 26.7463 9.88191 26.7587 10.0616 26.9322C10.1855 26.8207 10.3775 27.2047 10.4394 26.9693C10.5509 27.1428 10.712 27.4401 10.8483 27.5021C10.7368 27.4773 10.7554 27.7189 10.6315 27.595L10.6377 27.7623C10.5695 27.7932 10.5633 27.6446 10.5262 27.7375C10.5881 27.7994 10.8111 27.9419 10.8421 28.0224C11.0279 28.072 11.2757 28.0472 11.4678 28.2207C11.3377 28.1773 11.3748 28.4003 11.3005 28.3631L11.7899 28.4003C11.858 28.4561 11.7031 28.5056 11.827 28.5676C11.858 28.5304 11.9138 28.549 11.9633 28.549C11.9695 28.5862 12.2421 28.772 12.1492 28.9207C12.1306 28.995 12.0253 28.8463 12.0501 28.9578C12.1678 29.0693 12.2111 29.0322 12.3288 29.1437L12.3164 29.1623C12.3722 29.2552 12.589 29.3295 12.5704 29.1808C12.5208 29.1251 12.5208 29.2738 12.4775 29.1623C12.6014 29.1437 12.7501 29.249 12.8677 29.3605C12.812 29.3419 12.781 29.3791 12.7315 29.3977C12.9793 29.4472 13.1713 29.5711 13.3819 29.695C13.4377 29.6392 13.2147 29.7446 13.2208 29.6888C13.3695 29.98 13.7908 29.9985 13.8713 30.2835C13.8279 30.2649 13.9332 30.1844 13.9146 30.203C14.02 30.3083 13.9332 30.395 14.0385 30.4198C14.0014 30.4755 14.1439 30.4817 14.2306 30.5313C14.2987 30.5251 14.2306 30.5746 14.1562 30.5251C14.2987 30.5746 14.7819 30.8472 14.9616 31.126C14.9863 31.0888 15.2155 31.1198 15.2713 31.1693L15.1846 31.2313C15.1969 31.3242 15.3828 31.38 15.3332 31.4543C15.5377 31.4543 14.8005 31.1631 15.0235 31.2189C15.0111 31.3242 15.358 31.2746 15.2279 31.3552C15.3456 31.4419 15.5315 31.4419 15.5748 31.603C15.5562 31.5658 15.389 31.6463 15.4881 31.7145C15.6616 31.8322 15.5686 31.7145 15.7173 31.7888C15.7607 31.8012 15.7793 31.8012 15.8102 31.8012C15.8722 31.7207 15.8969 31.8879 15.9155 31.7578C15.8969 31.8507 16.058 31.8012 15.9961 31.9684L15.9403 32.0923C15.9961 32.1233 16.058 32.0056 16.0952 31.9561C16.0952 31.9746 16.1076 32.0118 16.1014 32.0366C16.1262 31.8693 16.1509 31.9808 16.1943 32.0056C16.2067 31.9932 16.2253 31.9623 16.2315 31.8941C16.312 31.9189 16.3801 31.7764 16.4978 31.8446C16.5164 31.7826 16.5288 31.733 16.5474 31.6835C16.5846 31.6215 16.6341 31.5658 16.7146 31.5286C16.7023 31.5658 16.6713 31.5968 16.6961 31.6401C16.8138 31.6154 16.7952 31.5596 16.8447 31.4729C16.8509 31.51 17.0801 31.4233 17.2164 31.3985C17.2784 31.2561 17.1669 31.2065 17.1297 31.1446C17.3651 31.2003 17.3341 30.7729 17.5819 30.7915C17.5633 30.8472 17.5014 31.0083 17.6191 30.9649C17.8545 31.0207 17.7058 30.6738 17.9288 30.5932L17.7739 30.5065C17.9164 30.5189 17.9288 30.2154 18.0341 30.3578C18.0403 30.2649 18.2509 30.2215 18.1208 30.1224C18.4677 29.9738 18.6536 29.4658 19.0129 29.5092C19.0253 29.4534 19.1368 29.3853 19.0562 29.3419C18.9323 29.3357 19.0253 29.472 18.9571 29.4472C18.9819 29.41 18.9571 29.3729 18.9447 29.3543C19.05 29.3047 19.112 29.249 19.143 29.4162C19.3846 29.3109 19.1058 29.0446 19.3598 28.8649C19.4031 28.9207 19.4341 28.9207 19.4899 28.8463L19.5146 28.6419C19.6695 28.5118 19.7067 28.6605 19.7934 28.7348C19.8492 28.6419 19.9421 28.549 19.9049 28.4561H20.0969C19.9545 28.4561 20.1031 28.3446 20.1093 28.2888L20.0969 28.3446C20.1465 28.3631 20.2023 28.2516 20.2332 28.1897C20.1713 28.1525 20.066 28.2269 20.004 28.2702C19.9978 28.1959 20.066 28.1401 20.066 28.0472C20.1341 28.1401 20.2394 27.9667 20.3014 27.9109C20.3819 27.8552 20.2952 27.7623 20.3138 27.7437C20.3633 27.7808 20.4191 27.6322 20.4376 27.7375C20.4315 27.7746 20.3447 27.7561 20.3509 27.8366C20.4253 27.818 20.4996 27.8862 20.5244 27.7375C20.543 27.626 20.3323 27.6136 20.512 27.5145C20.4996 27.5702 20.5306 27.6074 20.5368 27.6631L20.6916 27.564L20.6173 27.4959C20.6545 27.4959 20.6483 27.5145 20.6669 27.5145C20.6173 27.4092 20.8093 27.2853 20.735 27.1738C20.7784 27.0994 20.9084 27.0747 20.9704 27.0127V27.0313C21.0819 26.9879 21.1376 26.8516 21.1315 26.7401L21.1438 26.7587C21.181 26.7216 21.2492 26.6039 21.243 26.5109C21.3916 26.4428 21.5837 26.703 21.5775 26.4985C21.6642 26.3808 21.5527 26.2012 21.466 26.2136C21.6704 26.0401 21.7014 25.7118 21.9615 25.5941C21.9492 25.5384 21.912 25.5446 21.9306 25.4702C22.1722 25.1791 22.2403 24.7393 22.5624 24.5782C22.55 24.6959 22.6491 24.6339 22.7049 24.6587C22.6677 24.5348 22.8412 24.6092 22.7173 24.5039C22.6306 24.4667 22.5934 24.4357 22.5129 24.5101C22.5748 24.2932 22.7297 23.9959 22.8536 23.9216C22.7854 23.9587 22.7854 23.903 22.7792 23.8472C22.9093 23.9278 22.9961 23.7853 23.0022 23.6552L22.9279 23.5994L23.0456 23.5623C23.0394 23.5065 22.8907 23.4384 23.0146 23.364C23.0518 23.3702 23.0828 23.3764 23.1199 23.3702C23.0952 23.2216 23.0518 23.0233 23.1633 22.918L23.3244 22.8561C23.3306 22.7941 23.281 22.6826 23.2129 22.7632C23.3615 22.5711 23.4111 22.4348 23.535 22.3915C23.3801 21.9393 23.4235 21.4251 23.4421 21.0039L23.5102 21.0163C23.566 20.9048 23.3863 20.9605 23.4297 20.8862C23.4978 20.9171 23.566 20.7932 23.6527 20.8738C23.7084 20.7003 23.5288 20.6694 23.4792 20.5764C23.3925 20.5764 23.5474 20.6508 23.4359 20.6446C23.4049 20.6322 23.4607 20.4216 23.3244 20.4278C23.3677 20.3782 23.473 20.3844 23.5288 20.3968L23.4483 20.3163C23.5784 20.1552 23.7828 20.5331 23.9438 20.372L23.9005 20.2791C24.0182 20.149 24.1111 20.5207 24.1049 20.2481C24.0182 20.1428 23.8076 20.1056 23.7704 20.2109C23.6899 20.0003 23.4359 20.1986 23.3801 19.9879C23.4359 19.9074 23.4545 20.1428 23.5474 20.0747C23.6155 19.9384 23.4173 19.895 23.4235 19.7959C23.4111 19.9136 23.2562 19.8826 23.2129 19.8331C23.2253 19.7092 23.3677 19.8455 23.3058 19.703C23.2191 19.7092 23.1076 19.6163 23.1138 19.7463C22.9341 19.7773 23.0828 19.5853 22.9279 19.5853C23.0084 19.4738 23.25 19.5853 23.2253 19.3994C23.1447 19.4862 22.9713 19.2941 22.8722 19.4676C22.8598 19.3871 22.9341 19.3313 23.027 19.3375C23.027 19.2074 22.6987 19.2384 22.8784 19.0773L22.7545 19.1145C22.7668 19.0649 22.7668 19.0092 22.7916 18.9225C22.7421 18.8419 22.4757 18.7862 22.6306 18.6747C22.5996 18.6623 22.4695 18.4888 22.4261 18.6313C22.4447 18.78 22.5934 18.6932 22.5005 18.8543C22.5562 18.6932 22.3704 18.718 22.2899 18.6871L22.3394 18.6313C22.2899 18.6127 22.2403 18.526 22.1598 18.557C22.2155 18.5508 22.2403 18.5074 22.2279 18.4702L22.1164 18.5074C21.9615 18.4207 22.2279 18.3463 22.0916 18.241L22.2403 18.2782C22.2093 18.272 22.2403 18.1543 22.1598 18.1171C22.0668 18.1605 21.943 18.2039 21.8686 18.2472C21.7695 18.2225 21.912 18.1357 21.7819 18.1543L21.9492 18.1419C21.9863 18.1295 21.9987 17.9685 21.9058 17.8817C21.8191 17.8508 21.6394 17.8817 21.7014 18.0056C21.658 17.9623 21.627 17.8756 21.7076 17.8446C21.5775 17.795 21.658 17.9375 21.5279 17.9251C21.5279 17.8508 21.4722 17.6711 21.435 17.5596C21.4969 17.5286 21.5651 17.4977 21.627 17.4791C21.6022 17.4605 21.5775 17.4481 21.5527 17.4295C21.7199 17.3676 21.5527 17.318 21.6828 17.2251C21.6394 17.1756 21.5465 17.1817 21.4784 17.1817C21.5217 17.4667 21.1748 17.3614 21.1376 17.5844C20.9518 17.5844 21.181 17.0517 20.8837 17.318C20.9022 17.3738 20.7784 17.5101 20.9023 17.4729C20.7969 17.4295 20.7846 17.6587 20.6854 17.5534C20.7969 17.4791 20.5987 17.3366 20.766 17.2313C20.7474 17.2994 20.8403 17.3056 20.8713 17.2871C20.8341 17.2003 20.927 17.0888 20.7845 17.0579C20.6916 17.0702 20.5739 17.0702 20.5925 17.1756C20.5925 17.2933 20.7164 17.1694 20.6545 17.2871C20.5058 17.3118 20.4686 17.1384 20.4191 17.3552C20.512 17.3304 20.5368 17.4543 20.5306 17.5348C20.4996 17.5472 20.4686 17.572 20.4376 17.5906L20.45 17.5101C20.289 17.4729 20.4191 17.6463 20.2766 17.6525L20.1713 17.5163C20.1837 17.3738 20.4067 17.5286 20.3509 17.3242C20.2394 17.318 20.227 17.4543 20.1093 17.4109C20.1279 17.3862 20.1589 17.3738 20.1775 17.349C20.1403 17.3552 20.0164 17.0702 19.8925 17.2994C19.8306 17.3924 19.8987 17.38 19.9235 17.4543C19.7562 17.541 19.7438 17.6525 19.6385 17.7207C19.5828 17.572 19.4341 17.8322 19.4713 17.6154C19.5766 17.6463 19.8182 17.5163 19.8306 17.3552C19.6943 17.2065 19.9854 17.3304 19.973 17.1322C19.812 17.1879 19.75 17.0145 19.6819 16.9092C19.6261 16.9216 19.5952 16.9835 19.5766 17.0207C19.6014 17.1322 19.6633 17.1012 19.7129 17.2065C19.5208 17.2623 19.3784 17.4171 19.3474 17.572C19.2607 17.5596 19.2111 17.4543 19.2792 17.4048C19.0872 17.5596 18.8766 17.7207 18.6722 17.857C18.9076 17.8879 18.5111 18.0738 18.6908 18.1109C18.8084 18.049 18.9757 18.08 18.9819 18.1853C18.92 18.2286 18.9261 18.1233 18.8766 18.1171C18.8766 18.2596 18.6536 18.1109 18.6969 18.2906C18.8146 18.0924 18.5669 18.0986 18.4925 17.9685C18.4306 18.1481 18.4244 17.8879 18.3067 18.0118C18.2447 18.1915 18.158 18.3897 18.0589 18.557C17.7987 18.6561 17.6872 19.0402 17.5757 19.2198C17.4518 19.2755 17.3589 19.1145 17.266 19.2074C17.1854 19.3313 17.4704 19.2136 17.2908 19.3561L17.2722 19.3189C17.2722 19.3932 16.9624 19.5977 17.1359 19.7773L17.0182 19.6286C16.981 19.6534 16.9996 19.7092 16.9996 19.7463C16.95 19.7154 16.8819 19.734 16.8819 19.6534C16.7085 19.7092 16.758 19.9074 16.6899 20.0375L16.8261 20.0065C16.7766 20.2667 16.6093 20.3596 16.535 20.595L16.4483 20.5455L16.4421 20.7003C16.3677 20.626 16.25 20.7189 16.2934 20.8242L16.2315 20.372C16.3306 20.3039 16.2934 20.5331 16.4111 20.5145C16.5164 20.5021 16.5908 20.2915 16.5226 20.2109C16.4731 20.2853 16.4916 20.2977 16.4916 20.372C16.3492 20.3348 16.4173 20.2171 16.3615 20.118C16.343 20.1614 16.2748 20.1986 16.312 20.2295C16.2934 20.118 16.3244 20.0313 16.3925 19.895C16.3925 20.0127 16.4978 19.8888 16.5164 19.9446C16.4111 19.8764 16.4483 19.7278 16.5722 19.5853C16.7642 19.5419 16.6713 19.2322 16.8261 19.0711C16.8881 19.2136 16.9129 19.3623 16.8943 19.4986C17.0182 19.418 16.9686 19.3685 17.0925 19.2879C17.0492 19.1826 16.95 19.0649 16.9996 18.8853L17.0863 18.9286C17.1359 18.7676 17.0182 18.6871 17.1607 18.5322C17.4023 18.272 17.6377 17.9871 17.8297 17.795L17.904 17.8508C17.8545 17.603 18.1952 17.4357 18.2943 17.2313C18.604 17.0579 18.8704 16.68 19.1182 16.7233C19.6323 16.364 20.2642 16.0977 20.9828 16.2711L20.8465 16.3826C20.9828 16.3083 20.9146 16.4756 21.0261 16.4817C20.9146 16.3517 21.2244 16.3702 21.3297 16.3269C21.5899 16.5251 21.9863 16.5933 22.2651 16.6862L22.2217 16.7667C22.5562 16.7791 22.7111 17.1198 22.9155 17.3676C22.9155 17.4233 22.8907 17.5286 22.9589 17.5906C23.1881 17.6154 23.25 17.6897 23.4792 17.8384C23.5969 17.9871 23.7518 18.2534 23.8014 18.4455C24.0863 18.6561 24.3031 18.9906 24.4642 19.3499C24.6191 19.7154 24.712 20.0932 24.8297 20.4835L24.7244 20.5517C24.8854 20.9171 24.8854 21.357 24.8297 21.7534C24.7739 22.1561 24.6624 22.5154 24.6438 22.8375L24.4766 22.726C24.3713 22.8932 24.396 23.1534 24.5385 23.1534C24.427 23.3207 24.4704 23.6428 24.2722 23.6985C24.1668 23.8658 24.266 23.9525 24.2226 24.1136C23.9872 24.4357 23.9562 24.5782 23.8076 24.9127L23.8633 24.8384C23.8447 24.7826 23.7766 24.7455 23.7208 24.8198C23.7022 24.9623 23.4421 25.2348 23.7022 25.2224C23.3987 25.495 23.3368 26.0587 22.9775 26.2755C23.0456 26.2817 23.0022 26.3685 23.0208 26.4242C22.835 26.7092 22.5315 26.926 22.4571 27.1985C22.4014 27.2233 22.4199 27.0685 22.3394 27.1738C22.3084 27.2543 22.4014 27.2233 22.3704 27.3224C22.1412 27.8304 21.6084 28.1216 21.3173 28.5118C20.8527 29.2552 20.1961 29.887 19.6323 30.5003L19.6076 30.4631C19.5394 30.7853 19.0253 30.8038 19.05 31.1446C18.9757 31.1569 18.858 31.3056 18.8332 31.2065C18.7589 31.4481 18.3129 31.5534 18.1828 31.8879C18.2076 31.8693 18.2138 31.8507 18.2261 31.8136C17.9226 31.9623 17.8049 32.2534 17.4952 32.4145C17.5076 32.3773 17.5447 32.3215 17.52 32.2844C17.3527 32.3153 17.4394 32.6189 17.1916 32.5384C17.1111 32.6127 17.1978 32.6808 17.2474 32.6251C16.9377 32.8605 16.5784 33.1578 16.2377 33.4614C15.6863 33.0897 15.1226 32.7118 14.5713 32.3401C14.2244 31.8879 14.7757 32.0366 14.3359 31.8817C14.3359 31.826 14.2616 31.9313 14.2863 31.8879C14.1191 31.826 14.243 31.5348 14.0757 31.5472C14.0262 31.6835 13.9704 31.5534 13.9146 31.6154C13.7102 31.3304 13.7412 31.1941 13.4748 31.095L13.5368 31.0578C13.1713 31.0021 12.9669 30.68 12.62 30.6676C11.3129 29.5215 10.0492 28.4065 8.9651 27.0313C8.46333 26.3313 7.96776 25.6189 7.55271 24.826C7.14387 24.0331 6.79077 23.1534 6.74121 22.1499C6.88988 21.6605 6.8713 21.6543 6.83413 21.1278C6.8651 21.1525 6.8651 21.1835 6.89608 21.1525C6.73502 21.1092 6.92086 20.7871 6.79696 20.7189C6.8713 20.341 6.99519 19.9817 7.13767 19.641C7.2244 19.4738 7.30493 19.3065 7.39165 19.1393C7.48457 19.003 7.58369 18.8605 7.6828 18.718C7.63324 18.8171 7.70139 18.9348 7.76953 18.8233V18.6561L7.81909 18.6623C7.85006 18.5755 7.85006 18.4517 7.75714 18.5012C8.20316 17.7455 8.92174 17.0702 9.82616 16.6366C10.0678 16.5499 10.2846 16.4198 10.5447 16.3764C10.8049 16.3331 11.0589 16.2649 11.3191 16.2649C11.5793 16.2773 11.8394 16.2649 12.0872 16.3145C12.3288 16.3702 12.5828 16.4074 12.812 16.4879C13.227 16.6986 13.8093 16.9402 14.1934 17.1941C15.1722 18.1853 15.7173 19.1517 16.5412 20.1366C16.5412 20.1676 16.12 20.2295 15.7545 19.8702Z" fill="var(--icon-color, #8BC8E3)"/>
<path d="M16.4045 20.6992C16.386 20.7302 16.3798 20.7674 16.3736 20.8045L16.0391 20.8231C16.0886 20.7983 16.1382 20.7921 16.163 20.8789L16.2559 20.8727H16.2497C16.3054 20.8231 16.3364 20.724 16.4045 20.6992Z" fill="var(--icon-color, #8BC8E3)"/>
<path d="M18.5484 18.2155C18.536 18.1969 18.6041 18.2031 18.6227 18.2031C18.5979 18.2341 18.6165 18.3084 18.567 18.3084C18.5917 18.2775 18.5608 18.2527 18.5484 18.2155Z" fill="var(--icon-color, #8BC8E3)"/>
<path d="M17.6875 30.6417L17.7309 30.5488L17.768 30.6108L17.6875 30.6417Z" fill="var(--icon-color, #8BC8E3)"/>
<path d="M13.0164 29.3107C12.9173 29.2736 13.0102 29.2178 13.0102 29.1992C13.0784 29.255 12.9297 29.2364 13.0164 29.3107Z" fill="var(--icon-color, #8BC8E3)"/>
<path d="M10.1857 26.7705L10.2105 26.7953L10.0928 26.8696L10.1857 26.7705Z" fill="var(--icon-color, #8BC8E3)"/>
<path d="M9.42941 35.8204C9.37985 35.8514 9.45419 35.9381 9.39844 35.8761C9.40463 35.8204 9.41083 35.777 9.42941 35.8204Z" fill="var(--icon-color, #8BC8E3)"/>
<path d="M22.2463 35.9012C22.0914 36.2543 21.8932 35.895 21.7197 36.1242C21.7011 36.1366 21.7259 35.9321 21.6826 35.9755C21.5215 36.2481 21.2613 36.087 21.0631 35.8764L21.0755 35.8206C21.0383 35.7835 20.9888 35.9631 20.9516 35.9383C20.9516 35.9012 20.964 35.8888 20.9578 35.8392C20.9454 35.9507 20.8834 35.8888 20.8711 35.9693C20.8525 35.9259 20.8587 35.8392 20.8339 35.7897L20.8091 35.9135C20.7472 36.2109 20.6542 35.895 20.5675 36.0436C20.5737 36.0127 20.5799 35.9941 20.5737 35.9631C20.4312 36.1427 20.2578 36.1118 20.1029 36.1737C20.1091 36.1304 20.1153 36.0498 20.1029 36.0003C20.0967 36.1304 20.0472 36.1675 20.0038 36.1923C19.9852 36.056 19.9295 36.3162 19.8799 36.2419L19.8861 36.2109C19.8489 36.3534 19.8303 36.1304 19.8056 36.2976L19.7808 36.1985C19.7622 36.3905 19.7312 36.0994 19.7003 36.1985V36.2357C19.6693 36.2852 19.6569 36.1861 19.6321 36.2171V36.1923C19.5702 36.2419 19.533 36.1366 19.5392 36.2852C19.5206 36.1675 19.6011 36.2295 19.564 36.056C19.3596 36.2109 19.1551 36.1799 18.9507 36.1799C18.9259 36.118 18.9135 36.0994 18.9073 36.0436C18.8888 36.0746 18.833 36.0684 18.8144 36.1489C18.8206 36.1489 18.802 36.0746 18.7896 36.0684C18.7525 36.0127 18.7463 36.2295 18.7091 36.1675C18.7277 36.1304 18.7277 36.0808 18.7277 36.025C18.6905 36.1427 18.6472 36.1242 18.6038 36.1613C18.61 36.1366 18.6224 36.1242 18.6162 36.0746C18.5728 36.2047 18.5357 36.0436 18.4923 36.1304L18.5047 36.0436C18.4427 35.9383 18.4861 36.2233 18.4304 36.1613C18.4427 36.1366 18.4365 36.0994 18.4427 36.0684C18.3932 36.2233 18.3065 36.1737 18.2569 36.2233C18.2569 36.2109 18.2569 36.1861 18.2569 36.1861C18.2011 36.2047 18.1454 36.1551 18.0835 36.2233C18.0587 36.1861 18.0896 36.0127 18.0339 36.0436C18.0339 36.2171 17.9348 36.1118 17.9719 36.31C17.9224 36.279 17.8419 36.2171 17.8109 36.2728C17.8357 36.2047 17.7861 36.0622 17.8295 36.0498L17.7985 35.9445C17.8047 35.8764 17.8295 35.9693 17.8233 35.8826C17.8047 35.8888 17.7427 35.9569 17.7242 35.9321C17.687 36.0374 17.6498 36.2357 17.5879 36.2543C17.6188 36.1861 17.5693 36.0622 17.5941 36.0374L17.5073 36.3658C17.4888 36.372 17.5012 36.2295 17.4702 36.2728C17.4702 36.3162 17.4578 36.3472 17.4516 36.3843C17.4454 36.3658 17.3649 36.4277 17.3587 36.2604C17.3525 36.1923 17.3896 36.2233 17.3711 36.1613C17.3339 36.1613 17.3339 36.2233 17.2905 36.2233V36.1985C17.2658 36.1737 17.2162 36.2728 17.241 36.3658C17.2596 36.372 17.2348 36.2666 17.2596 36.31C17.241 36.4091 17.1976 36.4339 17.1604 36.4401C17.1728 36.4153 17.1728 36.3658 17.179 36.3224C17.1295 36.4587 17.0737 36.4958 17.0118 36.5516C17.0118 36.6321 17.0304 36.4029 17.0427 36.4463C16.9684 36.3348 16.8879 36.6073 16.8259 36.4401C16.8383 36.4277 16.8321 36.5516 16.8321 36.533C16.795 36.5206 16.795 36.4029 16.7764 36.4463C16.7764 36.3781 16.7454 36.4711 16.7206 36.4897C16.7082 36.5392 16.7144 36.4587 16.733 36.4463C16.702 36.502 16.5658 36.6073 16.4914 36.5082C16.4914 36.5516 16.4419 36.6755 16.4295 36.6693L16.4357 36.564C16.4171 36.502 16.3737 36.5702 16.3737 36.4835C16.3366 36.6135 16.5224 36.372 16.4666 36.4711C16.4542 36.3843 16.3923 36.6383 16.4047 36.4958C16.3675 36.502 16.3366 36.6197 16.2994 36.5206C16.3118 36.5392 16.3304 36.372 16.2994 36.3781C16.2498 36.3967 16.287 36.4277 16.2436 36.4649L16.2189 36.5082C16.2189 36.6135 16.1755 36.4958 16.1941 36.6073C16.1879 36.5206 16.1197 36.6569 16.1259 36.4897L16.1321 36.3534C16.1073 36.3658 16.095 36.4958 16.0764 36.5578C16.0764 36.5454 16.0702 36.5206 16.0702 36.4958C16.064 36.7003 16.0206 36.4773 15.9896 36.6383C15.9463 36.564 15.8719 36.6321 15.8534 36.502C15.8162 36.564 15.7852 36.6383 15.7481 36.595C15.7543 36.5764 15.7666 36.5702 15.7666 36.5268C15.7419 36.4649 15.7357 36.5206 15.7109 36.5516C15.7171 36.5206 15.6613 36.4339 15.6304 36.3596C15.5932 36.4215 15.6056 36.533 15.6056 36.6012C15.5746 36.3967 15.5065 36.7312 15.4693 36.5454C15.4817 36.5144 15.5189 36.4463 15.4941 36.3967C15.4631 36.1923 15.4321 36.5454 15.3764 36.4463L15.3888 36.6135C15.364 36.5082 15.3144 36.7127 15.3206 36.5392C15.302 36.6012 15.2587 36.4835 15.2649 36.6507C15.1781 36.5082 15.0604 36.7374 15.0047 36.4401C14.9923 36.4649 14.9613 36.4401 14.9675 36.5268C14.9861 36.6197 14.9985 36.4587 15.0047 36.5268C14.9923 36.533 14.9923 36.5764 14.9923 36.6012C14.9675 36.564 14.9427 36.5516 14.9675 36.4153C14.9118 36.31 14.9056 36.6941 14.8312 36.6321C14.8374 36.564 14.8312 36.5392 14.8065 36.5516L14.7631 36.6693C14.7135 36.6445 14.7383 36.5144 14.7321 36.3967C14.7073 36.4153 14.6764 36.4091 14.664 36.4958L14.633 36.3534C14.6578 36.4587 14.6144 36.4215 14.602 36.4525L14.6144 36.4215C14.6082 36.372 14.5773 36.4029 14.5649 36.4153C14.5711 36.4897 14.5958 36.5144 14.6144 36.5392C14.602 36.5888 14.5835 36.5764 14.5649 36.6383C14.5711 36.5268 14.5215 36.5578 14.5029 36.5454C14.4781 36.5206 14.4781 36.6445 14.472 36.6445C14.472 36.5826 14.4348 36.6321 14.4534 36.5516C14.4596 36.533 14.472 36.6073 14.4843 36.5578C14.472 36.5144 14.472 36.4091 14.441 36.4835C14.4162 36.5392 14.4472 36.7065 14.4038 36.6383C14.4162 36.6073 14.4162 36.564 14.4286 36.5268L14.3852 36.4649V36.5702C14.379 36.5454 14.3852 36.533 14.379 36.5206C14.3666 36.6321 14.3109 36.5516 14.3047 36.6755C14.2799 36.6879 14.2613 36.6012 14.2366 36.595L14.2427 36.5888C14.218 36.5268 14.1808 36.5702 14.1622 36.6383V36.6135C14.1498 36.6074 14.1127 36.6197 14.1003 36.6817C14.0631 36.6012 14.0879 36.2914 14.0507 36.4215C14.0135 36.4277 13.995 36.6135 14.0074 36.6755C13.9454 36.6073 13.8711 36.7746 13.8091 36.6135C13.8029 36.6569 13.8029 36.6817 13.7843 36.7065C13.6914 36.6631 13.5861 36.8304 13.5118 36.6259C13.5366 36.5826 13.5118 36.5206 13.5118 36.4649C13.487 36.5578 13.487 36.3658 13.4746 36.5268C13.4746 36.6197 13.4746 36.6631 13.4994 36.7065C13.4436 36.756 13.3569 36.756 13.3259 36.6693C13.3383 36.7127 13.3321 36.7436 13.3197 36.7684C13.3259 36.6197 13.2826 36.595 13.2516 36.6507L13.2454 36.7436L13.2268 36.6507C13.2144 36.6817 13.2144 36.8427 13.1835 36.756C13.1835 36.7189 13.1773 36.6879 13.1773 36.6569C13.1463 36.7312 13.0967 36.8551 13.0658 36.7808L13.0348 36.6507C13.0224 36.6631 12.9976 36.7436 13.0224 36.7808C12.9604 36.7003 12.9233 36.6879 12.9047 36.5764C12.7994 36.8551 12.6507 36.8675 12.533 36.8489L12.5392 36.7808C12.5082 36.7189 12.5206 36.8985 12.502 36.8551C12.5144 36.7932 12.4773 36.7127 12.502 36.6321C12.4587 36.5578 12.4401 36.7498 12.4153 36.7808C12.4091 36.8675 12.4401 36.725 12.4339 36.8366C12.4277 36.8675 12.372 36.7684 12.3658 36.9047C12.3534 36.8489 12.3658 36.7498 12.372 36.7003L12.341 36.7684C12.3038 36.6135 12.4215 36.4835 12.3843 36.2914L12.3596 36.31C12.3348 36.1675 12.4277 36.1489 12.3658 36.0994C12.3348 36.1675 12.3162 36.3596 12.341 36.4215C12.2852 36.4587 12.3162 36.7436 12.2481 36.7312C12.2295 36.6507 12.2976 36.7127 12.2852 36.6012C12.2543 36.4897 12.2233 36.6631 12.1985 36.6259C12.2295 36.6755 12.2047 36.8118 12.1861 36.8366C12.1551 36.7746 12.2047 36.7065 12.1613 36.6941C12.1551 36.7746 12.1118 36.8304 12.1489 36.8861C12.1304 37.0658 12.0994 36.8366 12.0746 36.9728C12.0622 36.8489 12.1242 36.6879 12.0746 36.6259C12.0808 36.7436 12.0127 36.787 12.0374 36.9666C12.0189 36.9295 12.0127 36.8366 12.0312 36.7622C12.0003 36.6879 11.9631 36.979 11.9569 36.7436L11.9445 36.8675C11.9383 36.8304 11.9259 36.7994 11.9074 36.7312C11.8826 36.7312 11.8268 36.8985 11.833 36.7127C11.8268 36.7312 11.7711 36.725 11.7897 36.8489C11.8268 36.9295 11.8268 36.756 11.8516 36.9295C11.8268 36.787 11.802 36.9481 11.7835 36.9976L11.7773 36.9233C11.7649 36.9481 11.7401 36.9357 11.7277 37.01C11.7339 36.9666 11.7339 36.9233 11.7215 36.9047L11.7091 37.0162C11.6596 37.0719 11.6967 36.8242 11.6472 36.8551L11.6843 36.7684C11.6782 36.787 11.6596 36.6879 11.6348 36.7189C11.6286 36.818 11.61 36.9357 11.6038 37.0162C11.579 37.0596 11.5914 36.9047 11.5666 37.0038L11.6038 36.8861C11.61 36.8551 11.579 36.7189 11.5419 36.725C11.5171 36.7622 11.4861 36.9047 11.5171 36.9604C11.4985 36.9604 11.4737 36.8985 11.4861 36.8304C11.4428 36.8675 11.4923 36.9357 11.4551 36.9976C11.4428 36.9295 11.3932 36.8366 11.3684 36.7436L11.4056 36.5764H11.3808C11.4118 36.4401 11.3622 36.4773 11.3808 36.3348C11.3622 36.31 11.3436 36.3596 11.3251 36.3967C11.3746 36.6197 11.2693 36.7065 11.2817 36.9109C11.2135 36.9666 11.2383 36.4091 11.1702 36.7312C11.1826 36.787 11.1516 36.9419 11.1888 36.8799C11.1454 36.8551 11.1578 37.0843 11.1144 36.9976C11.1516 36.9109 11.0773 36.787 11.1268 36.6693C11.1206 36.7374 11.1578 36.7189 11.164 36.7003C11.1454 36.6197 11.1702 36.4958 11.1268 36.4958C11.102 36.5144 11.0649 36.5206 11.0711 36.6259C11.0711 36.7436 11.1082 36.6135 11.0959 36.7312C11.0463 36.7746 11.0339 36.595 11.0153 36.7994C11.0463 36.7808 11.0587 36.9047 11.0525 36.9852L11.0153 37.0348L11.0215 36.9543C10.9596 36.8985 11.0029 37.0967 10.9472 37.0719L10.9224 36.9171C10.9348 36.787 11.0091 36.979 10.9967 36.7622C10.9596 36.756 10.9472 36.8613 10.91 36.8056C10.9162 36.787 10.9286 36.7808 10.9348 36.7622C10.9224 36.756 10.91 36.4711 10.8543 36.6383C10.8233 36.7065 10.8481 36.7127 10.8481 36.7932C10.7861 36.818 10.7675 36.8985 10.7304 36.9109C10.7366 36.7498 10.6622 36.8985 10.7056 36.7312C10.7242 36.8242 10.8171 36.8118 10.8357 36.6631C10.8109 36.4773 10.8852 36.6879 10.8976 36.502C10.8481 36.4958 10.8481 36.3162 10.8419 36.1923C10.8295 36.1861 10.8171 36.2357 10.8047 36.2543C10.7985 36.3658 10.8171 36.3658 10.8171 36.4835C10.7613 36.4525 10.7118 36.5144 10.6808 36.6259C10.6622 36.5702 10.6684 36.4587 10.687 36.4463C10.6189 36.4773 10.5507 36.4649 10.4888 36.4277C10.5259 36.6135 10.4206 36.4711 10.4454 36.6259C10.4764 36.6693 10.5074 36.7994 10.4888 36.8799C10.4702 36.8675 10.4888 36.7994 10.4826 36.756C10.4578 36.8551 10.4392 36.595 10.4144 36.756C10.4764 36.6941 10.4268 36.533 10.4392 36.3843C10.3959 36.4649 10.4392 36.279 10.3959 36.279C10.3525 36.3596 10.3029 36.4215 10.2534 36.4525C10.1914 36.3162 10.0985 36.4525 10.049 36.4525C10.018 36.3781 10.0428 36.2171 10.0118 36.1861C9.97461 36.1923 10.0366 36.3658 9.987 36.2852L9.9932 36.2543C9.97461 36.2914 9.89408 36.1427 9.88169 36.3781L9.90028 36.1985C9.88789 36.1799 9.88169 36.2233 9.8755 36.2419C9.8755 36.1861 9.86311 36.1304 9.88169 36.0932C9.85072 35.9693 9.81355 36.1118 9.77638 36.118L9.80116 36.2233C9.73922 36.3038 9.70205 36.1985 9.6401 36.2357V36.1304L9.60293 36.1923C9.60913 36.0932 9.57815 36.025 9.55957 36.1118L9.65249 35.8578C9.67727 35.9197 9.62771 35.9817 9.6401 36.0808C9.65249 36.1675 9.70824 36.1427 9.71444 36.0436C9.69585 36.0312 9.68966 36.056 9.67727 36.0932C9.67107 35.9507 9.70205 35.9569 9.72063 35.8578C9.70824 35.864 9.69585 35.8206 9.68966 35.864C9.70824 35.7958 9.73302 35.7835 9.77019 35.7773C9.74541 35.833 9.78258 35.864 9.77638 35.9074C9.77638 35.7835 9.81355 35.7401 9.85691 35.7773C9.88789 35.9259 9.93745 35.6843 9.9932 35.7215C9.97461 35.8516 9.94364 35.9507 9.91267 36.0065C9.94364 36.0684 9.94983 36.0003 9.98081 36.0684C9.9932 35.9755 10.0056 35.8268 10.049 35.7711V35.864C10.0861 35.8144 10.0861 35.6781 10.1357 35.7029C10.2162 35.7463 10.3029 35.7463 10.3649 35.7587V35.8516C10.402 35.6472 10.4826 35.7773 10.5321 35.6905C10.6127 35.7835 10.7056 35.5976 10.7489 35.7649C10.8914 35.6905 11.0153 35.6224 11.164 35.6534L11.1392 35.7897C11.164 35.6905 11.1578 35.8702 11.1826 35.8454C11.1516 35.7339 11.2197 35.7029 11.2383 35.6224C11.3065 35.7277 11.387 35.61 11.4489 35.5171V35.61C11.5047 35.4304 11.579 35.5852 11.6534 35.6162C11.6596 35.6534 11.672 35.7463 11.6967 35.7339C11.7339 35.579 11.7587 35.5914 11.8144 35.4985C11.8578 35.4985 11.9259 35.5357 11.9693 35.5976C12.1304 35.3808 12.2914 35.5233 12.4587 35.3932L12.4711 35.5047C12.6321 35.2693 12.8304 35.4799 12.9666 35.3622L12.9543 35.5543C12.9976 35.61 13.0534 35.5047 13.041 35.3684C13.0843 35.4242 13.1463 35.2755 13.1773 35.4304C13.2206 35.4675 13.233 35.3436 13.2702 35.3189C13.3569 35.3932 13.3941 35.3746 13.4746 35.3374L13.456 35.3251C13.4498 35.3684 13.4436 35.4489 13.4684 35.4613C13.4994 35.4118 13.5799 35.5109 13.5489 35.2879C13.6357 35.418 13.7534 35.1826 13.8401 35.356C13.8339 35.2941 13.8525 35.2817 13.8649 35.2383C13.9454 35.2383 14.0259 35.3622 14.0879 35.2569C14.1003 35.2879 14.0693 35.3622 14.1003 35.3684C14.1189 35.3436 14.1003 35.2879 14.125 35.2507C14.2489 35.133 14.379 35.3684 14.4967 35.3374C14.7012 35.2197 14.9118 35.2755 15.11 35.2569V35.3003C15.1781 35.1268 15.2649 35.4799 15.3144 35.2197C15.333 35.2631 15.3764 35.2383 15.364 35.3251C15.4135 35.2012 15.5127 35.4428 15.587 35.2879C15.5808 35.2817 15.5746 35.2941 15.5684 35.3127C15.6427 35.4118 15.7109 35.2755 15.7914 35.3684C15.7852 35.387 15.7666 35.3994 15.7666 35.4489C15.7976 35.5357 15.841 35.2569 15.8596 35.4737C15.8781 35.4737 15.8719 35.3622 15.8596 35.3684C16.033 35.4551 16.225 35.3127 16.4047 35.2631C16.5348 35.3932 16.4109 35.6286 16.5162 35.4675C16.5224 35.5109 16.5224 35.3808 16.5224 35.4304C16.5596 35.3684 16.5843 35.672 16.6153 35.5604C16.6029 35.4242 16.6339 35.4861 16.6339 35.4056C16.7144 35.4923 16.733 35.6162 16.795 35.5109L16.7888 35.579C16.8631 35.3808 16.9498 35.4861 17.0118 35.2569C17.4206 35.2135 17.8171 35.0897 18.2135 35.0587C18.61 35.102 18.9941 34.9967 19.3967 35.1206C19.4896 35.3065 19.4958 35.3003 19.6011 35.2259C19.595 35.2569 19.5888 35.2631 19.595 35.2941C19.6011 35.1392 19.6693 35.2817 19.6755 35.133C19.8242 35.164 19.9604 35.1206 20.1153 35.1206C20.0905 35.1392 20.0781 35.2631 20.1091 35.2507L20.1401 35.1516L20.1463 35.195C20.1649 35.1702 20.1896 35.0958 20.1649 35.0463C20.5489 34.9162 20.9268 35.2197 21.2985 35.1826C21.3852 35.2445 21.5153 35.1888 21.6144 35.1578C21.8994 35.3622 22.1595 35.5233 22.4507 35.3808C22.4073 35.4118 22.3702 35.8082 22.2463 35.9012Z" fill="var(--icon-color, #8BC8E3)"/>
<path d="M9.48562 35.8086C9.49801 35.8829 9.52898 35.9263 9.50421 36.0254C9.49801 35.9573 9.47943 35.8767 9.48562 35.8086Z" fill="var(--icon-color, #8BC8E3)"/>
<path d="M10.3776 36.5883C10.3776 36.5635 10.39 36.6193 10.3962 36.6317C10.3838 36.6379 10.3776 36.6998 10.3652 36.6626C10.3714 36.6564 10.3714 36.6193 10.3776 36.5883Z" fill="var(--icon-color, #8BC8E3)"/>
<path d="M10.6059 36.6387C10.5997 36.7068 10.5564 36.7626 10.5254 36.7688L10.6059 36.6387Z" fill="var(--icon-color, #8BC8E3)"/>
<path d="M10.8171 36.917C10.8357 36.9727 10.8295 37.0037 10.8047 37.0037C10.8047 36.9665 10.8109 36.948 10.8171 36.917Z" fill="var(--icon-color, #8BC8E3)"/>
<path d="M10.8357 36.7627C10.8542 36.7627 10.8604 36.7999 10.8728 36.837C10.8666 36.7813 10.8295 36.8742 10.8357 36.7627Z" fill="var(--icon-color, #8BC8E3)"/>
<path d="M11.2937 36.9605C11.306 36.9543 11.3308 36.8985 11.337 36.9728C11.3246 36.9171 11.2875 37.0596 11.2937 36.9605Z" fill="var(--icon-color, #8BC8E3)"/>
<path d="M11.5107 36.8555C11.5169 36.8617 11.5231 36.8741 11.5293 36.8555C11.5417 36.8864 11.5293 36.936 11.5169 36.9422L11.5107 36.8555Z" fill="var(--icon-color, #8BC8E3)"/>
<path d="M15.4134 36.5827L15.3887 36.6137V36.5518L15.4134 36.5827Z" fill="var(--icon-color, #8BC8E3)"/>
<path d="M17.123 36.5827C17.1478 36.5393 17.1416 36.6446 17.1416 36.657C17.1169 36.6632 17.1478 36.5703 17.123 36.5827Z" fill="var(--icon-color, #8BC8E3)"/>
<path d="M18.0404 36.2418H18.0342L18.0404 36.1055V36.2418Z" fill="var(--icon-color, #8BC8E3)"/>
</svg>
