<svg id="tel--filled" viewBox="0 0 32 32" fill="none" xmlns="http://www.w3.org/2000/svg">
<g clip-path="url(#clip0_226_69150)">
<circle cx="16" cy="16" r="16" fill="var(--icon-color, #F6A6A3)"/>
<path d="M19.157 17.592L18.1276 18.1705C18.0041 18.2399 17.8612 18.2671 17.7207 18.2478C17.5803 18.2286 17.45 18.164 17.3498 18.064L13.9141 14.6364C13.8139 14.5364 13.7493 14.4065 13.73 14.2664C13.7107 14.1263 13.7378 13.9837 13.8073 13.8605L14.3872 12.8335C14.4916 12.6487 14.5325 12.4349 14.5036 12.2247C14.4747 12.0145 14.3776 11.8195 14.2272 11.6696L12.6844 10.1304C12.594 10.0401 12.4866 9.96854 12.3684 9.91969C12.2503 9.87085 12.1236 9.8457 11.9957 9.8457C11.8678 9.8457 11.7411 9.87085 11.6229 9.91969C11.5048 9.96854 11.3974 10.0401 11.307 10.1304L10.6065 10.8288C10.1968 11.2374 9.93588 11.771 9.86514 12.3446C9.79441 12.9183 9.91793 13.499 10.2161 13.9945L10.5676 14.579C12.3626 17.5635 14.8961 20.0378 17.9253 21.7646L17.9947 21.8043C19.0295 22.3942 20.308 22.2223 21.1365 21.3962L21.868 20.6664C21.9585 20.5762 22.0303 20.4691 22.0792 20.3512C22.1282 20.2333 22.1534 20.1069 22.1534 19.9793C22.1534 19.8517 22.1282 19.7254 22.0792 19.6075C22.0303 19.4896 21.9585 19.3825 21.868 19.2923L20.3242 17.7521C20.1739 17.6019 19.9784 17.5049 19.7676 17.4759C19.5568 17.447 19.3424 17.4878 19.157 17.592Z" fill="white"/>
</g>
<defs>
<clipPath id="clip0_226_69150">
<rect width="32" height="32" fill="white"/>
</clipPath>
</defs>
</svg>
