<svg id="tel" viewBox="0 0 32 32" fill="none" xmlns="http://www.w3.org/2000/svg">
<path d="M21.5773 19.0682L19.6424 20.1557C19.4102 20.2861 19.1416 20.3371 18.8776 20.3009C18.6136 20.2648 18.3688 20.1434 18.1804 19.9554L11.7225 13.5128C11.5341 13.3248 11.4126 13.0805 11.3763 12.8172C11.3401 12.5538 11.3911 12.2859 11.5217 12.0542L12.6117 10.1239C12.8079 9.7765 12.8848 9.37456 12.8305 8.9795C12.7762 8.58443 12.5937 8.21796 12.311 7.93607L9.411 5.04294C9.24103 4.87329 9.03921 4.73871 8.81709 4.64689C8.59497 4.55507 8.35689 4.50781 8.11646 4.50781C7.87602 4.50781 7.63794 4.55507 7.41582 4.64689C7.1937 4.73871 6.99188 4.87329 6.82191 5.04294L5.50516 6.35565C4.73516 7.12381 4.24469 8.12673 4.11173 9.20495C3.97877 10.2832 4.21096 11.3748 4.77137 12.3062L5.43206 13.4048C8.80605 19.0146 13.5683 23.6655 19.2621 26.9112L19.3926 26.986C21.3376 28.0947 23.7407 27.7716 25.2981 26.2189L26.6731 24.8471C26.8432 24.6775 26.9781 24.4762 27.0701 24.2546C27.1622 24.033 27.2095 23.7955 27.2095 23.5556C27.2095 23.3158 27.1622 23.0782 27.0701 22.8567C26.9781 22.6351 26.8432 22.4337 26.6731 22.2642L23.7713 19.3692C23.4888 19.0868 23.1213 18.9045 22.7251 18.8501C22.3289 18.7958 21.9257 18.8724 21.5773 19.0682Z" fill="var(--icon-color, #F6A6A3)"/>
</svg>
