<svg id="user" viewBox="0 0 18 18" fill="none" xmlns="http://www.w3.org/2000/svg">
<g clip-path="url(#clip0_305_26587)">
<path d="M9 2C6.96456 2 5.30859 3.65596 5.30859 5.69141C5.30859 7.72685 6.96456 9.38281 9 9.38281C11.0354 9.38281 12.6914 7.72685 12.6914 5.69141C12.6914 3.65596 11.0354 2 9 2Z" fill="var(--icon-color, #F6A6A3)"/>
<path d="M13.5928 11.7944C12.5822 10.7682 11.2424 10.2031 9.82031 10.2031H8.17969C6.75759 10.2031 5.4178 10.7682 4.40718 11.7944C3.4015 12.8155 2.84766 14.1634 2.84766 15.5898C2.84766 15.8164 3.0313 16 3.25781 16H14.7422C14.9687 16 15.1523 15.8164 15.1523 15.5898C15.1523 14.1634 14.5985 12.8155 13.5928 11.7944Z" fill="var(--icon-color, #F6A6A3)"/>
</g>
<defs>
<clipPath id="clip0_305_26587">
<rect width="14" height="14" fill="white" transform="translate(2 2)"/>
</clipPath>
</defs>
</svg>
