<svg id="whatsapp" viewBox="0 0 32 32" fill="none" xmlns="http://www.w3.org/2000/svg">
<path d="M16.0784 2.19336H16.0715C8.41807 2.19336 2.19435 8.41881 2.19435 16.074C2.1896 18.9976 3.11507 21.8469 4.83687 24.2097L3.107 29.3664L8.44236 27.6608C10.7055 29.1623 13.3625 29.9604 16.0784 29.9546C23.7318 29.9546 29.9556 23.7274 29.9556 16.074C29.9556 8.42054 23.7318 2.19336 16.0784 2.19336Z" fill="var(--icon-color, #F6A6A3)"/>
<path d="M24.1556 21.7955C23.8207 22.7411 22.4917 23.5253 21.4315 23.7544C20.7063 23.9088 19.7589 24.032 16.5699 22.7099C12.4907 21.0199 9.8638 16.8748 9.65906 16.6059C9.463 16.3369 8.01074 14.411 8.01074 12.4191C8.01074 10.4273 9.02229 9.45735 9.43003 9.04094C9.7649 8.69913 10.3184 8.54297 10.8493 8.54297C11.0211 8.54297 11.1755 8.55164 11.3143 8.55858C11.7221 8.57594 11.9268 8.60023 12.1957 9.24394C12.5306 10.0507 13.3461 12.0426 13.4433 12.2474C13.5422 12.4521 13.6411 12.7297 13.5023 12.9986C13.3721 13.2763 13.2576 13.3994 13.0529 13.6354C12.8481 13.8714 12.6538 14.0518 12.4491 14.3052C12.2617 14.5255 12.05 14.7615 12.286 15.1692C12.5219 15.5683 13.3374 16.8991 14.5381 17.9679C16.0875 19.3473 17.3437 19.788 17.7931 19.9754C18.128 20.1142 18.527 20.0812 18.7717 19.821C19.0823 19.4861 19.4657 18.9309 19.8561 18.3843C20.1337 17.9922 20.4842 17.9436 20.852 18.0824C21.2268 18.2125 23.21 19.1929 23.6177 19.3959C24.0255 19.6006 24.2944 19.6978 24.3933 19.8695C24.4905 20.0413 24.4905 20.8481 24.1556 21.7955Z" fill="#FAFAFA"/>
</svg>
