<svg width="599" height="964" viewBox="0 0 599 964" fill="none" xmlns="http://www.w3.org/2000/svg">
<path d="M179.482 890.761C196.947 849.649 224.799 812.322 261.377 786.282C280.444 772.66 300.365 762.234 322.221 753.669C341.141 746.131 360.663 739.371 378.467 729.586C380.888 728.212 383.092 726.881 385.296 725.55C385.296 725.55 385.512 725.508 385.685 725.249C387.069 724.304 389.577 722.24 387.026 724.088C390.14 721.681 393.037 719.316 395.893 716.736C396.066 716.478 396.671 716.134 397.234 715.575C398.143 714.499 401.086 711.228 401.044 711.012C402.3 709.42 403.513 707.611 404.511 705.845C405.855 703.562 408.249 696.363 405.551 704.295C406.986 700.2 408.465 696.321 409.9 692.226C410.031 691.751 410.335 691.019 410.424 690.329C410.293 690.803 410.205 691.493 410.159 692.399C410.247 691.709 410.335 691.019 410.381 690.113C410.731 688.474 410.865 686.878 410.558 688.733C410.646 688.043 410.735 687.352 410.865 686.878C411.395 682.737 411.667 678.423 411.722 674.152C411.686 671.692 411.693 669.448 411.873 666.946C411.788 666.515 411.961 666.256 411.919 666.04C411.876 665.824 411.834 665.609 411.791 665.393C407.331 626.804 394.668 589.832 390.034 551.502C387.255 528.279 387.795 505.973 392.953 483.206C397.672 462.767 408.907 442.391 420.995 425.21C433.603 407.255 449.311 391.379 466.308 377.492C474.049 371.259 482.049 365.199 490.349 359.527C495.667 355.789 501.028 352.267 506.388 348.745C507.771 347.799 509.155 346.854 510.538 345.909C510.712 345.651 515.078 342.773 515.683 342.429C523.552 336.843 531.378 331.041 538.645 324.677C540.159 323.257 541.674 321.838 543.188 320.419C543.75 319.859 544.355 319.516 544.702 318.999C544.875 318.741 545.049 318.482 545.222 318.224C546.867 316.33 548.47 314.221 549.856 312.154C550.377 311.379 553.281 306.77 553.15 307.244C560.921 290.914 556.951 276.447 551.182 257.402C544.857 236.672 535.733 214.25 534.121 190.125C532.548 167.338 535.809 144.047 545.362 123.105C565.555 78.7649 602.276 47.7634 647.2 29.9465C657.999 25.5773 669.184 22.0291 680.196 18.7393C687.839 16.5613 696.254 16.0253 704.754 15.921C708.689 13.128 713.267 11.3293 718.49 10.525C736.576 7.86016 760.058 18.9327 761.896 39.6496C771.548 146.73 805.593 249.008 834.155 351.916C862.888 455.688 879.494 560.503 886.514 667.878C889.977 723.032 892.102 778.226 893.579 833.547C894.521 865.653 897.565 901.605 864.033 919.196C852.668 925.247 839.415 927.408 827.024 930.521C813.552 933.847 800.081 937.173 786.394 940.541C680.309 966.59 574.483 992.814 468.398 1018.86C414.945 1032.08 361.708 1045.26 308.213 1058.26C281.054 1064.95 254.41 1073.11 226.343 1066.08C203.233 1060.32 183.872 1041.71 174.097 1020.54C155.839 979.06 162.537 931.099 179.482 890.761Z" fill="#F9DFA6"/>
</svg>
