<svg width="427" height="641" viewBox="0 0 427 641" fill="none" xmlns="http://www.w3.org/2000/svg">
<path d="M-273.285 177.44C-240.841 263.528 -215.424 341.361 -189.977 431.604C-164.909 520.428 -143.625 610.266 -125.887 701.054C-117.367 745.148 -110.738 789.749 -102.218 833.842C-93.3975 878.109 -81.0431 924.216 -55.7055 962.03C-42.5468 981.819 -25.9387 998.403 -3.6944 1007.65C18.5499 1016.89 43.4618 1015.29 66.3509 1009.91C110.474 999.612 154.2 986.882 197.626 973.979C273.429 951.387 364.111 923.794 383.762 835.405C401.468 754.887 361.319 673.145 306.913 615.75C279.283 586.407 247.229 562.304 211.24 544.324C193.096 535.248 174.213 528.143 155.266 520.802C146.543 517.564 137.992 514.026 129.614 510.189C128.478 509.733 122.846 506.681 123.145 506.854C119.011 504.667 115.051 502.18 111.09 499.694C107.365 497.144 103.641 494.594 100.09 491.744C100.026 491.508 99.7899 491.571 99.7265 491.334C98.4006 490.169 97.2478 488.704 95.9219 487.539C93.08 484.499 90.4744 481.396 87.8056 478.056C87.3791 477.41 86.9527 476.764 86.2897 476.181C86.2897 476.181 84.0937 472.715 83.3674 471.896C81.4079 468.366 79.385 464.6 77.5986 460.77C76.9186 459.179 76.2387 457.587 75.4954 455.759C75.3687 455.286 74.562 453.221 73.9455 451.866C73.7554 451.156 73.5653 450.447 73.5653 450.447C72.9318 448.083 72.3616 445.955 71.728 443.59C70.7607 439.034 69.9665 434.179 69.4721 429.496C69.4551 428.487 69.265 427.777 69.1383 427.305C69.0116 426.832 69.1214 426.295 69.1677 425.523C69.0998 421.486 69.205 417.15 69.61 412.986C69.9053 409.359 70.437 405.669 70.9687 401.979C70.6101 405.369 72.695 395.18 73.1973 393.272C74.4384 389.391 75.9159 385.447 77.6932 381.677C78.0394 381.077 78.1492 380.541 78.3223 380.241C79.1244 378.506 80.2262 376.943 81.0283 375.208C85.6384 366.877 90.7849 358.655 95.0952 350.151C105.856 329.781 114.109 308.563 113.356 284.943C112.602 261.323 106.583 238.86 94.9529 218.155C76.2743 184.386 48.0621 155.706 15.6493 134.993C-15.8642 114.8 -50.5225 101.786 -87.0805 95.869C-122.093 90.0451 -163.468 90.7412 -196.722 104.72C-204.681 108.12 -211.977 112.102 -219.083 116.794C-230.615 112.534 -243.97 112.819 -254.15 118.334C-275.784 131.227 -281.985 154.429 -273.285 177.44Z" fill="#F8DDE0"/>
</svg>
