<svg width="370" height="353" viewBox="0 0 370 353" fill="none" xmlns="http://www.w3.org/2000/svg">
<path d="M369.652 20.1114C369.652 8.6411 360.025 -0.479133 348.572 0.140558L18.9191 17.9764C8.30878 18.5504 -0.000366211 27.3213 -0.000366211 37.9472V332.621C-0.000366211 343.667 8.95395 352.621 19.9996 352.621H349.652C360.698 352.621 369.652 343.667 369.652 332.621V20.1114Z" fill="white"/>
<path d="M369.152 20.1114C369.152 8.92786 359.766 0.035629 348.599 0.639828L18.9461 18.4756C8.60104 19.0354 0.499634 27.587 0.499634 37.9472V332.621C0.499634 343.391 9.2301 352.121 19.9996 352.121H349.652C360.422 352.121 369.152 343.391 369.152 332.621V20.1114Z" stroke="black" stroke-opacity="0.04"/>
</svg>
