<svg width="169" height="520" viewBox="0 0 169 520" fill="none" xmlns="http://www.w3.org/2000/svg">
<path d="M-200.758 453.253C-325.628 360.258 -329.242 175.039 -269.575 43.4878C-240.708 -20.3315 -191.98 -81.0362 -125.219 -107.154C-61.7842 -131.964 13.6474 -128.763 70.6416 -89.7446C121.58 -55.1095 147.592 8.46966 143.477 69.1649C144.179 77.5376 144.429 85.6124 144.41 93.8986C143.996 125.784 135.844 159.179 120.762 187.354C103.478 219.653 80.436 247.117 58.8456 276.705C54.4621 282.761 50.3478 288.606 46.4161 294.96C45.4933 296.555 44.5993 297.911 43.6765 299.507C42.0134 303.208 39.8986 306.61 38.2356 310.311C36.5726 314.012 35.121 317.982 33.6983 321.712C33.3426 322.645 32.9581 323.817 32.8427 324.779C32.439 328.143 31.5835 331.21 31.1797 334.574C30.8913 336.977 30.8432 339.409 30.5549 341.812C30.5549 341.812 30.5549 341.812 30.526 342.053C30.526 342.053 30.526 342.053 30.4972 342.293C33.5732 363.384 36.9857 385.733 35.1688 406.968C33.275 430.875 22.2394 451.735 5.14782 468.211C-21.8642 494.223 -64.5547 500.558 -100.545 495.751C-136.449 490.224 -171.439 475.055 -200.758 453.253Z" fill="#FDFEB0"/>
</svg>
