<svg width="23" height="23" viewBox="0 0 23 23" fill="none" xmlns="http://www.w3.org/2000/svg">
<path d="M16.7428 18.6423C15.5154 17.8846 14.2879 17.123 13.0645 16.3654C11.0959 15.1477 9.1312 13.9299 7.16255 12.7161C6.71224 12.4384 6.26192 12.1608 5.81559 11.8831C5.52866 11.7046 5.52866 11.3 5.81559 11.1215C7.043 10.3639 8.27042 9.60229 9.49385 8.84466C11.4625 7.62293 13.4311 6.40517 15.3958 5.19137C15.8461 4.91371 16.2964 4.63604 16.7428 4.35838C17.229 4.05691 17.6753 4.81851 17.1931 5.11601C15.9657 5.8776 14.7383 6.63523 13.5108 7.39286C11.5422 8.61062 9.57754 9.82838 7.60889 11.0422C7.15857 11.3198 6.70825 11.5975 6.26192 11.8752C6.26192 11.6213 6.26192 11.3674 6.26192 11.1136C7.48933 11.8712 8.71675 12.6328 9.94018 13.3904C11.9088 14.6082 13.8735 15.826 15.8421 17.0398C16.2925 17.3174 16.7428 17.5951 17.1891 17.8727C17.6753 18.1782 17.229 18.9437 16.7428 18.6423Z" fill="#848483"/>
</svg>
