<svg id="cart" viewBox="0 0 23 17" fill="none" xmlns="http://www.w3.org/2000/svg">
<path d="M17.9198 7.98086L17.9206 8.29008H15.563L15.5622 7.98086H17.9198ZM18.4171 10.5422L19.0221 9.41829H19.0515L19.0513 9.36405L21.4399 4.92737L21.9634 5.11815L18.7178 11.1459L9.05667 11.1621L9.02819 12.2896C10.1923 12.3504 10.9462 13.1273 10.9469 13.8688C10.9476 14.6421 10.1278 15.4596 8.89713 15.4604C7.66568 15.4611 6.84194 14.6435 6.84125 13.8706C6.84059 13.1314 7.59288 12.3541 8.75503 12.2895L8.72248 11.1621L7.77859 11.1642L3.36989 1.43423L3.21978 1.10294H2.85607H0.769181V0.796524H3.70205L8.11108 10.5245L8.26151 10.8564L8.6259 10.8557L17.9214 10.8389L18.2577 10.8383L18.4171 10.5422ZM10.9387 5.40961H8.58112L8.58038 5.10039H10.938L10.9387 5.40961ZM16.176 5.40961H13.8184L13.8176 5.10039H16.1752L16.176 5.40961ZM12.6833 8.29008H10.3257L10.325 7.98086H12.6826L12.6833 8.29008ZM15.5643 13.8706C15.5636 13.0982 16.3858 12.2799 17.6175 12.2791C18.8479 12.2784 19.6693 13.0952 19.6699 13.8688C19.6706 14.6429 18.8498 15.4625 17.6202 15.4632C16.3898 15.4639 15.565 14.6443 15.5643 13.8706ZM10.3305 13.8678C10.3297 13.0545 9.59134 12.5851 8.89373 12.5855C8.19529 12.5859 7.45693 13.0588 7.45766 13.8717C7.45838 14.6873 8.19982 15.1516 8.89439 15.1512C9.58983 15.1508 10.3312 14.683 10.3305 13.8678ZM19.0535 13.8678C19.0528 13.052 18.3113 12.5879 17.6168 12.5883C16.9214 12.5887 16.18 13.0562 16.1807 13.8717C16.1814 14.6847 16.9198 15.1544 17.6175 15.154C18.316 15.1536 19.0543 14.6805 19.0535 13.8678Z" fill="#E0E0E0" stroke="#F6A6A3" stroke-width="1.12821"/>
</svg>
