<svg id="contact-time" viewBox="0 0 16 16" fill="none" xmlns="http://www.w3.org/2000/svg">
<g clip-path="url(#clip0_159_8388)">
<path d="M8.0013 0.666016C6.55091 0.666016 5.13308 1.09611 3.92712 1.90191C2.72116 2.7077 1.78123 3.85301 1.22619 5.193C0.671146 6.533 0.525922 8.00748 0.80888 9.43001C1.09184 10.8525 1.79027 12.1592 2.81586 13.1848C3.84144 14.2104 5.14812 14.9088 6.57064 15.1918C7.99317 15.4747 9.46766 15.3295 10.8077 14.7745C12.1476 14.2194 13.293 13.2795 14.0987 12.0735C14.9045 10.8676 15.3346 9.44975 15.3346 7.99935C15.3346 6.05443 14.562 4.18917 13.1868 2.8139C11.8115 1.43863 9.94623 0.666016 8.0013 0.666016ZM10.668 8.66602H8.0013C7.82449 8.66602 7.65492 8.59578 7.5299 8.47075C7.40488 8.34573 7.33464 8.17616 7.33464 7.99935V3.99935C7.33464 3.82254 7.40488 3.65297 7.5299 3.52794C7.65492 3.40292 7.82449 3.33268 8.0013 3.33268C8.17812 3.33268 8.34768 3.40292 8.47271 3.52794C8.59773 3.65297 8.66797 3.82254 8.66797 3.99935V7.33268H10.668C10.8448 7.33268 11.0144 7.40292 11.1394 7.52795C11.2644 7.65297 11.3346 7.82254 11.3346 7.99935C11.3346 8.17616 11.2644 8.34573 11.1394 8.47075C11.0144 8.59578 10.8448 8.66602 10.668 8.66602Z" fill="#5B5B5B"/>
</g>
<defs>
<clipPath id="clip0_159_8388">
<rect width="16" height="16" fill="white"/>
</clipPath>
</defs>
</svg>
