<svg width="16" height="16" viewBox="0 0 16 16" fill="none" xmlns="http://www.w3.org/2000/svg">
<path fill-rule="evenodd" clip-rule="evenodd" d="M6.74316 1.04154C4.66275 1.30985 2.93246 2.58452 2.28024 4.32933C1.71246 5.84816 1.98831 7.26716 3.28324 9.48926C4.0573 10.8175 4.99384 12.1087 6.29427 13.6406C6.83888 14.2821 7.48491 15 7.51761 15C7.53085 15 7.70654 14.8125 7.90805 14.5834C10.3061 11.8567 12.126 9.13163 12.7353 7.35512C12.9663 6.68161 13.001 6.48022 13 5.8203C12.9992 5.30875 12.988 5.17603 12.9238 4.91402C12.4673 3.05034 10.9616 1.64026 8.91002 1.15511C8.26896 1.0035 7.39379 0.957632 6.74316 1.04154ZM8.15073 3.81898C8.94461 4.03219 9.52815 4.55058 9.77828 5.26484C9.88747 5.57663 9.88734 6.0647 9.77798 6.37576C9.50806 7.14364 8.90999 7.65186 8.05328 7.84141C7.51354 7.96084 6.82822 7.87664 6.34802 7.63192C5.85726 7.38181 5.48767 6.98565 5.27985 6.48703C5.19796 6.2906 5.19081 6.23821 5.19061 5.83492C5.19041 5.42935 5.19736 5.37883 5.28319 5.16252C5.49181 4.63662 5.92905 4.1978 6.4775 3.96384C6.88343 3.79068 7.14918 3.74215 7.60578 3.75788C7.80852 3.76487 8.05001 3.79194 8.15073 3.81898Z" fill="#5B5B5B"/>
</svg>
