<svg width="24" height="24" viewBox="0 0 24 24" fill="none" xmlns="http://www.w3.org/2000/svg">
<g clip-path="url(#clip0)">
<path d="M23 7.77299C23 11.0775 20.375 14.0149 17.75 16.1261C14.6556 18.6149 10.368 18.6287 7.27129 16.1431C4.71602 14.0922 2 11.1333 2 7.77299C2 6.40113 2.44816 5.13941 3.19891 4.13956C6.13275 2.0039 10.2496 2.95074 12.0227 6.3045C14.4395 1.73334 20.7956 1.95444 22.9065 6.70053C22.9113 6.70559 23 7.20892 23 7.77299Z" fill="#FFBEBE"/>
<path d="M17.2549 2.24158C15.1963 2.24158 13.271 3.18045 12.0003 4.75114C10.7297 3.18045 8.80441 2.24158 6.7458 2.24158C1.69637 2.24158 -2.6124 8.00839 1.89412 14.1674C2.87025 15.5015 4.22264 16.8353 5.91376 18.1318C8.76097 20.3147 11.5649 21.633 11.6829 21.688C11.8838 21.7818 12.1161 21.7821 12.3178 21.688C12.4358 21.633 15.2397 20.3147 18.0869 18.1318C19.778 16.8353 21.1305 15.5015 22.1066 14.1674C26.6073 8.01628 22.3144 2.24158 17.2549 2.24158ZM12.0003 20.1714C10.2114 19.2701 1.49126 14.5878 1.49126 8.99737C1.49126 6.10001 3.84844 3.74283 6.7458 3.74283C8.65471 3.74283 10.4166 4.78126 11.344 6.45286C11.6293 6.9672 12.3711 6.96776 12.6567 6.45286C13.5841 4.78126 15.3459 3.74283 17.2549 3.74283C20.1523 3.74283 22.5094 6.10001 22.5094 8.99737C22.5094 14.5878 13.7892 19.2702 12.0003 20.1714Z" fill="#FFAAAA"/>
</g>
<defs>
<clipPath id="clip0">
<rect width="24" height="24" fill="white"/>
</clipPath>
</defs>
</svg>
