<svg id="search" viewBox="0 0 32 31" fill="none" xmlns="http://www.w3.org/2000/svg">
<g clip-path="url(#clip0_226_31932)">
<path d="M23.6489 13.4238C23.6325 13.1623 23.5345 13.5654 23.6107 13.2549C23.6543 13.2876 23.6924 13.342 23.6489 13.4238Z" fill="var(--icon-color, #8BC8E3)"/>
<path d="M23.5449 12.3887C23.3869 11.9801 23.2725 11.5171 23.2235 11.0268C23.1745 10.7871 23.12 10.5419 23.0546 10.3077C22.9947 10.0734 22.913 9.84464 22.7822 9.65397C22.7332 9.56136 22.9511 9.62674 22.8313 9.40883C22.5861 9.02749 22.3137 8.5372 22.0795 7.99243C21.8071 7.46946 21.5674 6.89745 21.295 6.41261L21.3713 6.4344C21.2678 6.24918 21.0063 6.13477 20.8755 5.96045C20.8973 5.93866 20.9573 5.98224 20.9573 5.91687C20.8483 5.93866 20.6576 5.64993 20.5432 5.63359C20.5105 5.54643 20.5759 5.4974 20.5269 5.38844L20.3635 5.3721C19.944 5.30673 19.7642 4.7783 19.3175 4.57129C19.3502 4.56584 19.3992 4.57674 19.3883 4.5386C18.691 4.1954 17.9392 3.63429 17.1493 3.32922C17.1984 3.30743 17.2583 3.2584 17.231 3.19848C17.1439 3.28564 16.8987 3.19848 16.6863 3.12221C16.6427 2.95878 16.2886 3.07863 16.0707 2.92609L16.1034 2.90975C15.88 2.95878 15.8582 2.74087 15.6621 2.82803L15.5749 2.69729C15.4442 2.83348 15.3298 2.54475 15.15 2.58289L15.1446 2.61557C14.9866 2.61557 14.9321 2.51752 14.7905 2.50662L14.7796 2.48483C14.4527 2.4358 14.2784 2.33229 14.2675 2.45759C14.1749 2.33774 14.5889 2.45759 14.4418 2.28327C13.3468 2.21245 12.241 2.14707 11.1514 2.23424C11.0261 2.1961 10.9444 2.1961 10.9117 2.15252C10.8082 2.1961 10.5032 2.23968 10.4214 2.3214C10.4596 2.31595 10.3397 2.26692 10.2798 2.26692C10.0728 2.25058 10.0891 2.43035 9.87123 2.4358C9.94749 2.38132 9.96928 2.3323 9.93115 2.28871C9.77317 2.4358 9.52802 2.47938 9.32101 2.56655C9.34825 2.53931 9.39727 2.51207 9.37548 2.47394C9.17392 2.64826 8.93967 2.5502 8.76535 2.70274L8.81437 2.60468C8.46572 2.63737 8.77079 2.7899 8.47662 2.83893C8.53654 2.7899 8.50386 2.77356 8.50386 2.74087C8.2914 2.96423 7.86103 3.06773 7.64312 3.24206C7.65402 3.22571 7.64312 3.20937 7.64312 3.20937C7.38708 3.36191 7.07657 3.43273 6.83142 3.66153C6.71157 3.69421 6.77149 3.48176 6.51545 3.67242C6.60262 3.79772 6.09054 4.00473 6.34113 4.05376C6.09054 4.15727 5.73644 4.38607 5.62204 4.52771C5.68196 4.40786 5.40413 4.45689 5.57845 4.31525L5.38778 4.34249C5.37144 4.27712 5.54032 4.25533 5.45316 4.22264C5.366 4.29891 5.13174 4.5386 5.04458 4.58763C4.94652 4.80009 4.91928 5.06158 4.69048 5.29583C4.76675 5.14874 4.51071 5.23591 4.57063 5.1433C4.5216 5.31762 4.47258 5.49195 4.44534 5.67717C4.37452 5.76433 4.34183 5.6118 4.26556 5.75888C4.29825 5.78068 4.27101 5.84605 4.26556 5.90597C4.22743 5.92776 3.98773 6.26552 3.84065 6.20559C3.76438 6.20559 3.9387 6.05306 3.81341 6.10754C3.67177 6.26007 3.72079 6.3091 3.5955 6.47253L3.57916 6.46163C3.4811 6.55969 3.38849 6.82118 3.54647 6.75036C3.6064 6.67954 3.45386 6.72312 3.56826 6.64141C3.57916 6.77215 3.45931 6.97372 3.33946 7.1317C3.36125 7.06088 3.32311 7.04454 3.30677 7.00096C3.23595 7.28423 3.13789 7.56207 3.01805 7.8399C3.07797 7.87803 2.96357 7.67647 3.01805 7.66012C2.71842 7.93796 2.74566 8.41735 2.48417 8.64615C2.49507 8.59168 2.58768 8.6625 2.56589 8.65705C2.47872 8.82048 2.38611 8.77145 2.36977 8.89675C2.30985 8.88585 2.31529 9.03839 2.2935 9.16368C2.30985 9.23995 2.25537 9.18547 2.28805 9.07652C2.28805 9.26719 2.10284 9.93181 1.92851 10.2968C1.96664 10.3022 2.01022 10.5746 1.98299 10.6563L1.90127 10.5964C1.825 10.6618 1.83045 10.896 1.74873 10.896C1.80866 11.114 1.84679 10.1388 1.86314 10.4166C1.77053 10.4657 1.91761 10.8143 1.80321 10.7272C1.75963 10.9069 1.81411 11.1031 1.70515 11.261C1.72694 11.212 1.60165 11.0867 1.58531 11.2392C1.56352 11.5062 1.61799 11.321 1.61799 11.5389L1.63433 11.6751C1.7215 11.6969 1.58531 11.9039 1.69971 11.8221C1.62344 11.8439 1.68336 12.2035 1.54172 12.1599L1.42732 12.1109C1.42732 12.2253 1.54172 12.3124 1.59075 12.4051C1.57986 12.4214 1.55262 12.4486 1.53628 12.4377C1.71605 12.4704 1.50904 12.7101 1.63978 12.8518C1.60165 12.9662 1.59075 13.1187 1.57986 13.2549C1.57986 13.3911 1.56896 13.5109 1.51993 13.5654C1.58531 13.7452 1.65612 13.9086 1.62889 14.1211C1.61254 14.0829 1.60165 14.023 1.56352 14.0176C1.51449 14.1538 1.56352 14.181 1.60165 14.3008C1.56352 14.2791 1.53083 14.5732 1.48725 14.7258C1.56896 14.9001 1.65613 14.8238 1.71605 14.8347C1.56896 15.0254 1.89038 15.3196 1.79232 15.5538C1.74874 15.4993 1.64523 15.3141 1.63433 15.4721C1.50359 15.6737 1.84679 15.7717 1.83045 16.0495L1.95575 15.946C1.89582 16.0877 2.13552 16.3001 1.98299 16.3165C2.04836 16.3873 2.03201 16.6324 2.15731 16.5616C2.19 17.0192 2.58223 17.5259 2.48417 17.8691C2.5332 17.9181 2.58223 18.0706 2.63126 18.0053C2.6585 17.8745 2.51686 17.8963 2.54954 17.8418C2.57678 17.8909 2.62036 17.8854 2.64215 17.88C2.66939 18.0162 2.70753 18.1197 2.5441 18.0543C2.60402 18.3703 2.8873 18.2341 3.03984 18.5827C2.97991 18.5991 2.97446 18.6317 3.03984 18.7244L3.2414 18.8551C3.35035 19.0785 3.19782 19.0512 3.1161 19.1111C3.19782 19.2201 3.27953 19.3617 3.38849 19.3672L3.38304 19.5742C3.38849 19.4271 3.49744 19.6287 3.55736 19.6614L3.49744 19.6232C3.47565 19.6668 3.5955 19.7812 3.64997 19.8357C3.68811 19.7812 3.61184 19.6396 3.57916 19.5579C3.65542 19.5851 3.7099 19.6777 3.80796 19.7158C3.7099 19.754 3.88423 19.9337 3.9387 20.0264C3.99318 20.1408 4.09668 20.0754 4.11847 20.1026C4.08034 20.1408 4.24377 20.2552 4.12392 20.2334C4.08579 20.2116 4.09669 20.1299 4.01497 20.1081C4.03676 20.1898 3.96594 20.2443 4.12937 20.326C4.24922 20.3859 4.25467 20.1734 4.36907 20.3913C4.30914 20.3641 4.27101 20.3805 4.21109 20.3696L4.32549 20.5711L4.39631 20.5166C4.40175 20.5548 4.37996 20.5439 4.37996 20.5657C4.49437 20.5493 4.63056 20.7999 4.73951 20.7618C4.82667 20.8326 4.87025 20.9634 4.94107 21.0451L4.91928 21.0396C4.97921 21.1649 5.13174 21.2575 5.25704 21.2848L5.2407 21.2957C5.28973 21.3501 5.42047 21.4536 5.52398 21.47C5.62748 21.6334 5.3551 21.7751 5.58935 21.8077C5.74189 21.9167 5.92166 21.8513 5.89987 21.7587C6.01427 21.884 6.1668 21.9712 6.30844 22.0638C6.46098 22.1455 6.60807 22.2272 6.70068 22.3689C6.7606 22.3634 6.74426 22.3253 6.84231 22.358C7.2291 22.663 7.78476 22.7284 8.0517 23.0662C7.91006 23.0389 8.00812 23.1479 7.99177 23.1969C8.12797 23.1751 8.08983 23.3276 8.18244 23.2187C8.20423 23.137 8.22603 23.1097 8.11707 23.028C8.40035 23.0934 8.80893 23.235 8.93422 23.3658C8.86885 23.3004 8.93967 23.3004 9.00504 23.3004C8.94512 23.4203 9.13579 23.5129 9.31012 23.502L9.35369 23.4312L9.42996 23.5347C9.49533 23.5238 9.53892 23.3876 9.67511 23.502C9.67511 23.5347 9.67511 23.5673 9.6969 23.5946C9.87667 23.5673 10.1164 23.5347 10.2798 23.6218L10.4051 23.758C10.4814 23.758 10.623 23.709 10.4977 23.6545C10.7864 23.7689 10.9825 23.807 11.0697 23.9214C11.6254 23.7253 12.3717 23.758 12.9764 23.7199L12.9601 23.7798C13.1289 23.8288 13.0363 23.6709 13.1562 23.709C13.1071 23.7689 13.2924 23.8288 13.1671 23.9051C13.4122 23.9596 13.4612 23.7744 13.6083 23.7253C13.6192 23.6436 13.4939 23.7961 13.5103 23.6926C13.5321 23.66 13.8371 23.7035 13.8589 23.5837C13.9243 23.6218 13.8916 23.7144 13.8698 23.7689L14.0006 23.6926C14.2021 23.8016 13.6356 23.9977 13.848 24.1394L13.9788 24.1012C14.1313 24.2047 13.6356 24.2973 13.9897 24.2864C14.1313 24.2047 14.2294 24.0141 14.0877 23.9868C14.3874 23.9051 14.1803 23.6926 14.4963 23.6382C14.5998 23.6926 14.2457 23.709 14.3274 23.7907C14.5018 23.867 14.6162 23.6654 14.7578 23.6709C14.5998 23.6654 14.6979 23.5183 14.785 23.4693C14.9594 23.4802 14.7088 23.6055 14.9376 23.5564C14.9594 23.4802 15.15 23.3767 14.9594 23.3767C14.9975 23.2078 15.2045 23.3603 15.2917 23.2132C15.3952 23.3004 15.1337 23.5129 15.3952 23.502C15.3298 23.4203 15.6512 23.2677 15.4769 23.1588C15.5804 23.1533 15.6131 23.2296 15.5695 23.3168C15.7275 23.3276 15.831 23.0171 15.9454 23.1969L15.9563 23.0771C16.0108 23.0934 16.0816 23.0988 16.1687 23.1261C16.294 23.0879 16.4902 22.8483 16.5392 22.9953C16.5664 22.9627 16.8334 22.8428 16.6863 22.7883C16.501 22.8047 16.5337 22.9518 16.3866 22.8537C16.5501 22.9136 16.61 22.7284 16.6808 22.6467L16.7244 22.6957C16.768 22.6467 16.8987 22.5977 16.9042 22.5214C16.8769 22.5759 16.9205 22.6031 16.9695 22.5922L16.9859 22.4778C17.182 22.3307 17.1166 22.6031 17.3182 22.4724C17.2801 22.5268 17.231 22.5704 17.1875 22.6194C17.2147 22.5868 17.3345 22.6358 17.4217 22.5486C17.4163 22.4506 17.4381 22.3144 17.4381 22.2327C17.5307 22.1292 17.5416 22.2871 17.6069 22.1401L17.5143 22.3198C17.5034 22.358 17.6886 22.3852 17.8466 22.2871C17.9338 22.2 18.0155 21.9984 17.8357 22.0529C17.912 22.0039 18.0482 21.9821 18.021 22.0747C18.1789 21.9439 17.9447 22.0093 18.07 21.8731C18.1626 21.884 18.3859 21.8132 18.5494 21.7968L18.484 22.0311L18.5875 21.9548C18.5221 22.1509 18.7074 21.9766 18.7074 22.1346C18.7891 22.0965 18.849 21.9984 18.898 21.9221C18.5766 21.9167 18.958 21.5354 18.7891 21.4428C19.0288 21.2085 19.2358 21.6498 19.3229 21.1976C19.2467 21.2031 19.2794 20.9851 19.1595 21.1704C19.3284 21.0451 19.1432 20.9416 19.3774 20.8326C19.2903 21.0124 19.6498 20.8326 19.5245 21.0941C19.4973 21.0396 19.3829 21.1595 19.3611 21.2031C19.47 21.1976 19.47 21.3501 19.6335 21.2031C19.7206 21.0995 19.8568 20.9743 19.7697 20.9252C19.6934 20.8544 19.628 21.0723 19.6171 20.9361C19.7914 20.7346 19.9276 20.8108 19.8732 20.5984C19.7751 20.7346 19.6662 20.6855 19.6171 20.631C19.6553 20.582 19.6825 20.5166 19.7152 20.4622L19.737 20.5384C19.9767 20.3478 19.7097 20.3859 19.9167 20.1789L20.1129 20.168C20.151 20.2987 19.786 20.4513 19.9603 20.5439C20.0965 20.4022 20.0693 20.2933 20.2273 20.1898C20.2109 20.2334 20.1782 20.2769 20.1619 20.3151C20.2109 20.2661 20.4506 20.3805 20.5269 20.0754C20.5705 19.9228 20.4996 20.0046 20.4452 19.9555C20.614 19.6886 20.614 19.5742 20.723 19.4053C20.8102 19.5197 20.9464 19.1275 20.93 19.389C20.7993 19.4271 20.5378 19.7867 20.5759 19.961C20.7775 19.9773 20.407 20.1408 20.4779 20.2933C20.6576 20.1081 20.772 20.217 20.8755 20.2497C20.9246 20.1952 20.93 20.1135 20.9464 20.0645C20.8864 19.9773 20.832 20.0536 20.7448 19.9937C20.9355 19.7812 21.0608 19.5252 21.0717 19.3454C21.1697 19.2964 21.2351 19.3781 21.1752 19.4761C21.3604 19.1874 21.5347 18.866 21.7417 18.61C21.4911 18.708 21.8943 18.2831 21.7036 18.3376C21.5837 18.4683 21.404 18.5337 21.3931 18.4193C21.4584 18.3321 21.453 18.4574 21.5075 18.4356C21.502 18.2776 21.7417 18.3212 21.6709 18.136C21.5837 18.4356 21.818 18.2831 21.9106 18.392C21.9433 18.1524 21.9869 18.4411 22.0849 18.2395C22.1231 17.9998 22.1884 17.7274 22.2756 17.4932C22.4989 17.2426 22.5534 16.7469 22.646 16.4854C22.7441 16.3601 22.8585 16.5017 22.9239 16.3492C22.9674 16.1639 22.7386 16.4418 22.8748 16.1912L22.8966 16.2239C22.8857 16.1367 23.12 15.7445 22.9402 15.6192L23.0709 15.739C23.0982 15.69 23.0764 15.6355 23.0709 15.5919C23.12 15.6028 23.1799 15.5484 23.1908 15.641C23.3488 15.4939 23.2344 15.276 23.2671 15.0853L23.1581 15.1888C23.1309 14.8565 23.2616 14.6604 23.2671 14.3444L23.3597 14.3608L23.3161 14.1701C23.4033 14.2246 23.4686 14.0557 23.3978 13.9522C23.4632 14.1211 23.534 14.2899 23.5885 14.4643C23.5177 14.595 23.4959 14.3063 23.3978 14.3826C23.3161 14.4479 23.2889 14.7367 23.3706 14.7966C23.3978 14.6876 23.376 14.6767 23.3597 14.5896C23.4904 14.5678 23.4577 14.7367 23.5286 14.8347C23.534 14.7748 23.583 14.6985 23.5449 14.6767C23.5885 14.802 23.5776 14.9219 23.5558 15.1125C23.5286 14.9709 23.4686 15.1725 23.4414 15.118C23.5503 15.1507 23.5558 15.3414 23.485 15.5756C23.3161 15.7172 23.4523 16.0332 23.3488 16.3001C23.2671 16.1585 23.218 15.9951 23.2126 15.8262C23.1145 15.9787 23.169 16.0169 23.0709 16.1694C23.1309 16.2729 23.2398 16.3655 23.2289 16.6052L23.1472 16.5943C23.1254 16.8068 23.2344 16.8395 23.1254 17.0846C23.0274 17.2916 22.9402 17.5095 22.8585 17.7111C22.7604 17.9072 22.6678 18.087 22.5861 18.245L22.5044 18.2232C22.5861 18.4792 22.2865 18.8333 22.2048 19.0894C22.0522 19.2582 21.9487 19.4761 21.8452 19.6668C21.7308 19.8466 21.6164 19.9991 21.4966 20.0481C21.3931 20.217 21.2896 20.375 21.1915 20.533C21.0825 20.6855 20.9627 20.8272 20.8483 20.9743C20.7284 21.1213 20.6086 21.263 20.4833 21.4046C20.3471 21.5408 20.1946 21.6661 20.042 21.8023L20.0638 21.6225C20.0148 21.786 19.9494 21.6334 19.8568 21.7424C20.042 21.7042 19.7969 21.9657 19.7642 22.091C19.4265 22.2545 19.1105 22.5977 18.898 22.87L18.8436 22.8101C18.6583 23.1206 18.2389 23.2024 17.8848 23.393C17.8303 23.3876 17.7268 23.3494 17.6233 23.4094C17.4871 23.6218 17.3781 23.6654 17.1166 23.8833C16.9042 23.9977 16.5228 24.0903 16.2831 24.1285C15.5041 24.6351 14.5617 24.7005 13.6519 24.9402L13.5756 24.853C13.1344 24.9837 12.6223 25.0328 12.132 25.011C11.6417 24.9728 11.1678 24.9565 10.7755 24.9293L10.8736 24.7767C10.6448 24.6896 10.3234 24.7386 10.3615 24.8639C10.2471 24.8203 10.0891 24.8203 9.94749 24.804C9.80585 24.7767 9.68056 24.744 9.62063 24.6569C9.38638 24.5643 9.30466 24.6569 9.09765 24.6242C8.6237 24.4444 8.46028 24.3573 7.99722 24.232L8.10617 24.281C8.1661 24.2646 8.19879 24.1993 8.08983 24.1502C7.90461 24.1448 7.51238 23.8615 7.5941 24.1176C7.38708 23.9541 7.1147 23.8506 6.83687 23.7362C6.56449 23.6273 6.31389 23.4638 6.13956 23.2786C6.14501 23.3494 6.03606 23.2895 5.97069 23.295C5.57301 23.0771 5.28973 22.6739 4.94107 22.5432C4.90294 22.4778 5.08816 22.5377 4.94652 22.4233C4.84847 22.3743 4.89749 22.4778 4.77764 22.4179C4.47802 22.2163 4.22198 21.9439 3.98228 21.677C3.75893 21.3937 3.56281 21.0995 3.33401 20.8707C2.50596 20.0373 1.89582 18.9586 1.43822 17.9399L1.4818 17.9344C1.19852 17.6403 1.32382 17.0574 1.00241 16.8558C1.00785 16.7632 0.931585 16.5235 1.01875 16.5671C0.84987 16.3001 0.882554 15.7445 0.697333 15.3414C0.697333 15.3795 0.713676 15.4013 0.735466 15.4449C0.768153 15.0036 0.550246 14.644 0.621066 14.1755C0.642856 14.2191 0.659199 14.3008 0.697333 14.3117C0.762705 14.132 0.506664 13.9032 0.697333 13.7997C0.691885 13.7016 0.599276 13.7343 0.604723 13.7942C0.615619 12.7973 0.604723 11.7241 0.779049 10.6836C1.07867 9.98083 1.10591 10.7163 1.11136 10.1116C1.16039 10.0734 1.05143 10.0571 1.08957 10.0625C1.08957 9.82285 1.38374 9.78472 1.34561 9.61039C1.20942 9.63218 1.31837 9.49054 1.253 9.46331C1.48725 9.06018 1.60165 9.0166 1.66157 8.6516L1.70515 8.70063C1.73239 8.25392 2.00477 7.84535 2.01567 7.44766C3.14334 5.39389 4.76675 3.67787 6.82597 2.58289C7.85013 2.05446 8.93967 1.70581 10.051 1.46067C11.1732 1.24821 12.3281 1.19918 13.4776 1.34627C14.0006 1.56962 14.0278 1.58596 14.627 1.60775C14.5998 1.62954 14.5617 1.62954 14.5944 1.66223C14.6543 1.52604 15.0029 1.7385 15.0847 1.62954C15.4987 1.75484 15.9018 1.83111 16.2886 1.98364C16.6808 2.11984 17.0785 2.25058 17.4707 2.45214C17.34 2.40312 17.231 2.47393 17.3836 2.53931H17.5742L17.5851 2.58289C17.6941 2.61557 17.8357 2.61013 17.7486 2.51752C18.7673 2.96967 19.6879 3.62884 20.4506 4.41876C20.8537 4.7892 21.1806 5.23591 21.5347 5.64448C21.8398 6.09664 22.1884 6.51066 22.4608 6.97916C22.5643 7.21886 22.7441 7.46946 22.8857 7.75273C23.0383 8.03057 23.1908 8.31385 23.3215 8.55899C23.8064 10.1606 23.9535 11.6151 24.0897 13.2603C24.0134 13.2549 23.6593 13.037 23.5449 12.3887Z" fill="var(--icon-color, #8BC8E3)"/>
<path d="M23.6434 13.7396C23.5726 13.7941 23.529 13.9739 23.4473 13.8213C23.5126 13.8105 23.5889 13.7178 23.6434 13.7396Z" fill="var(--icon-color, #8BC8E3)"/>
<path d="M21.7964 18.1361C21.8128 18.1525 21.7419 18.1852 21.7256 18.1906C21.7474 18.1361 21.7201 18.0653 21.7692 18.0381C21.7474 18.0926 21.7801 18.098 21.7964 18.1361Z" fill="var(--icon-color, #8BC8E3)"/>
<path d="M21.1694 19.1328C21.1313 19.0837 21.2185 18.844 21.2893 18.7188L21.1694 19.1328Z" fill="var(--icon-color, #8BC8E3)"/>
<path d="M20.3303 19.8573C20.2322 19.8954 20.2322 19.8627 20.3031 19.7646C20.3357 19.7755 20.3248 19.8191 20.3303 19.8573Z" fill="var(--icon-color, #8BC8E3)"/>
<path d="M20.3853 20.005C20.3253 20.0704 20.2709 20.0813 20.2109 20.0922C20.26 20.1248 20.3308 19.9178 20.3853 20.005Z" fill="var(--icon-color, #8BC8E3)"/>
<path d="M18.5823 21.4864C18.5387 21.5245 18.4733 21.6335 18.3916 21.6117C18.4679 21.6171 18.5659 21.3938 18.5823 21.4864Z" fill="var(--icon-color, #8BC8E3)"/>
<path d="M17.7435 22.1731C17.7108 22.1894 17.6945 22.1839 17.6672 22.2221C17.5964 22.233 17.6346 22.1622 17.6781 22.124L17.7435 22.1731Z" fill="var(--icon-color, #8BC8E3)"/>
<path d="M1.85799 15.7666L1.91791 15.8756H1.85254L1.85799 15.7666Z" fill="var(--icon-color, #8BC8E3)"/>
<path d="M3.35059 7.30057C3.38327 7.18072 3.4432 7.26244 3.46499 7.25154C3.40506 7.3387 3.42141 7.17527 3.35059 7.30057Z" fill="var(--icon-color, #8BC8E3)"/>
<path d="M6.64031 3.79183L6.60762 3.81362L6.55859 3.69922L6.64031 3.79183Z" fill="var(--icon-color, #8BC8E3)"/>
<path d="M20.8871 20.4732C20.8271 20.4569 20.838 20.5713 20.8271 20.4841C20.8707 20.4514 20.9034 20.4351 20.8871 20.4732Z" fill="var(--icon-color, #8BC8E3)"/>
<path d="M31.5809 30.7201C31.2377 30.8236 31.2867 30.4368 31.0089 30.4422C30.9817 30.4368 31.1288 30.3224 31.0634 30.3169C30.7583 30.3605 30.6439 30.0555 30.6058 29.7613L30.6494 29.734C30.6439 29.6796 30.4914 29.7558 30.475 29.7068C30.4968 29.685 30.5186 29.685 30.5404 29.6469C30.4641 29.7068 30.4478 29.6196 30.3879 29.6578C30.3988 29.6196 30.4532 29.5652 30.4641 29.5161L30.3715 29.5761C30.1373 29.7122 30.2571 29.4399 30.0882 29.4671C30.11 29.4508 30.1318 29.4453 30.1427 29.4235C29.9139 29.429 29.7886 29.2655 29.6197 29.1838C29.6524 29.162 29.7069 29.113 29.7287 29.0749C29.6415 29.1511 29.5816 29.1348 29.5326 29.1184C29.598 29.0149 29.3964 29.1402 29.4018 29.0531L29.4236 29.0367C29.3092 29.0967 29.4291 28.9441 29.2983 29.0258L29.3419 28.9387C29.2112 29.0476 29.3583 28.8352 29.2765 28.8733L29.2439 28.906C29.1894 28.9114 29.2384 28.8406 29.1948 28.8406L29.2057 28.8243C29.124 28.8079 29.1567 28.7099 29.0695 28.8079C29.124 28.7153 29.1512 28.8188 29.2275 28.6826C28.966 28.6173 28.808 28.432 28.6392 28.2741C28.6555 28.2196 28.6555 28.1923 28.6827 28.1542C28.6501 28.1597 28.601 28.1106 28.5411 28.1433C28.5466 28.1488 28.5738 28.0834 28.5738 28.0725C28.5792 28.0071 28.443 28.1433 28.4485 28.067C28.4866 28.0562 28.5193 28.0289 28.5466 27.9908C28.4485 28.0344 28.4213 27.9908 28.3613 27.9799C28.3831 27.969 28.3995 27.969 28.4267 27.9363C28.3069 27.9853 28.3777 27.8546 28.2905 27.8764L28.3559 27.8328C28.3668 27.7184 28.2306 27.9309 28.2251 27.8491C28.2524 27.8437 28.2687 27.8165 28.2905 27.7947C28.1543 27.8546 28.1162 27.7565 28.0399 27.7456C28.0508 27.7402 28.0617 27.7238 28.0617 27.7238C28.0018 27.6912 27.9854 27.6149 27.8928 27.6094C27.8983 27.5659 28.0236 27.4841 27.9582 27.4569C27.8547 27.5713 27.8329 27.4242 27.7403 27.5768C27.7131 27.5168 27.6858 27.4133 27.6259 27.4242C27.6858 27.4024 27.7348 27.2717 27.7784 27.2935L27.8166 27.2009C27.8656 27.1573 27.8275 27.2444 27.8765 27.1791C27.8547 27.1682 27.7621 27.1627 27.7621 27.13C27.664 27.1682 27.5169 27.2662 27.4516 27.2281C27.5169 27.2063 27.5551 27.0919 27.5878 27.0919L27.3154 27.2336C27.2936 27.2227 27.3916 27.1409 27.3426 27.1464C27.3154 27.1791 27.2881 27.1845 27.2555 27.2009C27.2609 27.1845 27.1574 27.1573 27.25 27.0429C27.2827 26.9939 27.299 27.0483 27.3154 26.9884C27.2827 26.9612 27.2446 26.9939 27.2119 26.9666L27.2228 26.9503C27.2173 26.9121 27.1138 26.9394 27.0811 27.0211C27.092 27.0374 27.1356 26.9503 27.1302 27.0047C27.0539 27.0538 26.9994 27.0374 26.9667 27.0047C26.994 26.9993 27.0212 26.9666 27.0539 26.9394C26.9286 26.983 26.8578 26.9666 26.7761 26.9557C26.727 27.0047 26.885 26.8795 26.8632 26.9121C26.8687 26.7814 26.6399 26.8903 26.6889 26.7378C26.7052 26.7378 26.6235 26.8141 26.6399 26.7977C26.6181 26.7651 26.6889 26.6888 26.6399 26.6997C26.678 26.6561 26.6017 26.6888 26.569 26.6833C26.5309 26.7051 26.5854 26.6561 26.6072 26.667C26.5418 26.6779 26.3675 26.6398 26.362 26.5145C26.3348 26.5471 26.2204 26.5853 26.2095 26.5635L26.2803 26.5036C26.3076 26.4491 26.2258 26.46 26.2749 26.4001C26.1659 26.4545 26.4655 26.4436 26.362 26.4709C26.4056 26.4055 26.1986 26.5199 26.2967 26.4382C26.264 26.411 26.1605 26.46 26.1932 26.3728C26.1932 26.3892 26.3076 26.302 26.2803 26.2857C26.2258 26.2584 26.2367 26.3074 26.1823 26.2966L26.1332 26.302C26.0679 26.3674 26.106 26.2584 26.0515 26.3456C26.1005 26.2857 25.9589 26.3183 26.0679 26.2148L26.155 26.1331C26.1332 26.1222 26.0406 26.193 25.9861 26.2203C25.9916 26.2094 26.0025 26.1876 26.0188 26.1767C25.8881 26.3074 25.9861 26.1222 25.8663 26.2039C25.8717 26.1222 25.7737 26.1059 25.8336 26.0078C25.7682 26.0187 25.692 26.0405 25.6865 25.9806C25.7029 25.9751 25.7192 25.9806 25.7464 25.9533C25.7628 25.8934 25.7247 25.9261 25.6865 25.9261C25.7083 25.9098 25.7192 25.8063 25.741 25.7409C25.6756 25.7518 25.6157 25.8335 25.5721 25.8716C25.6702 25.7136 25.4087 25.8771 25.4904 25.7245C25.5176 25.7137 25.5939 25.7028 25.5994 25.6428C25.6974 25.4903 25.4523 25.6864 25.4686 25.5829L25.376 25.7028C25.4196 25.6156 25.2507 25.7028 25.3597 25.5992C25.3106 25.6265 25.3433 25.5175 25.2453 25.6265C25.2562 25.4685 25.0219 25.5175 25.1581 25.2833C25.1309 25.2887 25.1254 25.2506 25.0764 25.3105C25.0382 25.3868 25.1418 25.2887 25.1091 25.3378C25.0982 25.3323 25.0655 25.3596 25.0546 25.3704C25.0546 25.3269 25.0437 25.2996 25.1472 25.2343C25.1581 25.1199 24.9238 25.365 24.9021 25.2669C24.9456 25.2288 24.9565 25.207 24.9347 25.1961L24.8312 25.2397C24.8094 25.1852 24.9021 25.1199 24.9729 25.0436C24.9402 25.0381 24.9184 25.0055 24.853 25.0545L24.913 24.9346C24.8694 25.0218 24.853 24.9619 24.8258 24.9728L24.853 24.9619C24.8803 24.9292 24.8367 24.9237 24.8149 24.9183C24.7768 24.9673 24.7822 25.0109 24.7822 25.0381C24.7386 25.0599 24.7277 25.0381 24.6787 25.0599C24.755 24.9946 24.6896 24.9728 24.6841 24.951C24.6787 24.9183 24.6024 24.9946 24.597 24.9891C24.6297 24.951 24.5697 24.951 24.6351 24.9128C24.6515 24.9074 24.6133 24.9619 24.6569 24.9401C24.6678 24.9019 24.7332 24.8366 24.6624 24.8584C24.6079 24.8747 24.5316 25.0055 24.5371 24.9237C24.5643 24.9128 24.5915 24.8856 24.6242 24.8693V24.7984L24.5589 24.8638C24.5698 24.842 24.5806 24.842 24.5861 24.8311C24.5098 24.891 24.5098 24.7984 24.4281 24.8693C24.4009 24.8584 24.4336 24.7875 24.4227 24.7658H24.4336C24.4499 24.7058 24.3954 24.7058 24.3355 24.7331L24.3518 24.7222C24.3464 24.7058 24.3083 24.6895 24.2592 24.7167C24.2756 24.6405 24.488 24.4607 24.3736 24.5097C24.3409 24.4825 24.2102 24.586 24.183 24.6405C24.1721 24.5424 24.0086 24.5969 24.0577 24.4443C24.025 24.4661 24.0141 24.4825 23.9814 24.4879C23.9269 24.3899 23.7417 24.4062 23.8016 24.221C23.8507 24.2155 23.867 24.1556 23.8997 24.1175C23.8234 24.1611 23.9378 24.0358 23.8343 24.1284C23.7798 24.1883 23.7526 24.2155 23.7472 24.2646C23.6709 24.2537 23.6001 24.1829 23.6273 24.1066C23.6164 24.1447 23.5892 24.1556 23.5619 24.1611C23.6545 24.0684 23.6327 24.0194 23.5783 24.0303L23.5183 24.0848L23.5565 24.0085C23.5292 24.0194 23.4312 24.1175 23.4584 24.0412C23.4802 24.0194 23.4966 23.9922 23.5075 23.9704C23.4366 23.9922 23.3222 24.0358 23.3386 23.9595L23.3931 23.8505C23.3713 23.8505 23.3004 23.8778 23.3004 23.9268C23.3004 23.8288 23.2732 23.7906 23.3277 23.7035C23.0716 23.8015 22.9409 23.6871 22.8537 23.5782L22.8973 23.54C22.9082 23.4747 22.8101 23.5999 22.821 23.5564C22.8701 23.5237 22.8864 23.4474 22.9572 23.4147C22.9627 23.333 22.8374 23.442 22.7938 23.4365C22.7339 23.491 22.8483 23.4202 22.7775 23.4855C22.7557 23.5019 22.7666 23.3929 22.6794 23.4692C22.7012 23.4256 22.772 23.3711 22.8102 23.3385L22.7448 23.3603C22.8101 23.235 22.979 23.2404 23.0662 23.0879L23.0335 23.0824C23.0989 22.9735 23.186 23.0334 23.1642 22.9517C23.0989 22.9735 22.9627 23.077 22.9463 23.1369C22.8755 23.1151 22.7284 23.3221 22.6849 23.2622C22.7175 23.1968 22.7393 23.2894 22.7938 23.2077C22.8374 23.1151 22.7066 23.1968 22.7066 23.1532C22.7012 23.2077 22.5977 23.2785 22.565 23.2785C22.5759 23.2132 22.6576 23.2132 22.6304 23.1696C22.5759 23.2132 22.5051 23.2186 22.5051 23.2785C22.3852 23.3766 22.4942 23.2077 22.3907 23.2785C22.456 23.1859 22.6031 23.1314 22.5977 23.0552C22.5323 23.1369 22.4452 23.1097 22.3634 23.2459C22.3689 23.2077 22.4234 23.1478 22.4778 23.1097C22.4996 23.0388 22.2872 23.1968 22.4234 23.0388L22.3416 23.1097C22.358 23.077 22.3634 23.0497 22.3961 22.9953C22.3743 22.9735 22.2272 23.0388 22.3416 22.919C22.3253 22.9244 22.2817 22.8754 22.2218 22.9735C22.2055 23.0497 22.3144 22.9462 22.2218 23.0715C22.2872 22.9626 22.1673 23.0443 22.1237 23.0552L22.1619 23.0062C22.1346 23.0116 22.1237 22.9844 22.0693 23.0279C22.102 23.0116 22.1292 22.9735 22.1292 22.9571L22.0529 23.017C21.9767 23.0116 22.1619 22.8863 22.102 22.87L22.1837 22.8427C22.1673 22.8482 22.2164 22.7719 22.1728 22.7719C22.1074 22.8264 22.0202 22.8918 21.9658 22.9353C21.9167 22.9408 22.0257 22.8536 21.9385 22.8972L22.042 22.8482C22.0638 22.8318 22.1237 22.7229 22.0911 22.6956C22.0529 22.7011 21.9331 22.761 21.9331 22.8264C21.9167 22.8155 21.9331 22.7556 21.9876 22.7174C21.9331 22.7065 21.9276 22.7882 21.8623 22.7991C21.8895 22.7447 21.9113 22.6521 21.944 22.5649L22.0747 22.4886L22.0529 22.4668C22.1619 22.4069 22.102 22.3906 22.2 22.3143C22.2 22.2871 22.151 22.3034 22.1183 22.3143C22.0202 22.4941 21.884 22.4668 21.7751 22.6085C21.6879 22.5921 22.042 22.2544 21.7914 22.4069C21.7696 22.4505 21.6443 22.5213 21.7152 22.5213C21.6934 22.4723 21.5681 22.6303 21.579 22.5377C21.6607 22.5104 21.6716 22.3742 21.7914 22.3361C21.7479 22.3742 21.786 22.3906 21.8023 22.3851C21.835 22.3197 21.9276 22.2544 21.8949 22.2217C21.8623 22.2162 21.8296 22.189 21.7696 22.2598C21.6988 22.3361 21.8078 22.2816 21.7261 22.347C21.6607 22.3306 21.7587 22.2108 21.6171 22.3252C21.6552 22.3415 21.5899 22.4233 21.5408 22.4777H21.4809L21.5354 22.4341C21.519 22.3524 21.4319 22.5104 21.3992 22.4505L21.47 22.3306C21.5626 22.2598 21.5082 22.4341 21.628 22.2925C21.6008 22.2544 21.5245 22.3143 21.5299 22.2544C21.5463 22.2489 21.5626 22.2544 21.579 22.2489C21.5735 22.2326 21.7315 22.0419 21.5844 22.1018C21.5191 22.1236 21.5299 22.1454 21.4809 22.1944C21.4155 22.1618 21.3502 22.1999 21.3066 22.1781C21.4101 22.0855 21.2576 22.1127 21.3938 22.0419C21.3556 22.1182 21.4319 22.1836 21.5463 22.1018C21.6389 21.9656 21.5681 22.1563 21.6988 22.0474C21.6607 22.0038 21.7751 21.8894 21.8405 21.8077C21.835 21.7913 21.7914 21.8131 21.7751 21.8186C21.6988 21.8839 21.7152 21.9003 21.6498 21.9765C21.6226 21.9112 21.5408 21.9112 21.4482 21.9602C21.4646 21.9112 21.5408 21.8404 21.5626 21.8512C21.4864 21.8186 21.4373 21.7532 21.4046 21.6824C21.3284 21.8349 21.3175 21.6551 21.2521 21.775C21.2576 21.8295 21.1976 21.933 21.1323 21.9711C21.1214 21.9493 21.1813 21.9221 21.1976 21.8894C21.1159 21.933 21.263 21.7532 21.1432 21.8349C21.2303 21.8458 21.2902 21.6987 21.3883 21.617C21.3011 21.6333 21.4537 21.5516 21.4155 21.5189C21.3284 21.5353 21.2467 21.5353 21.1867 21.5189C21.2194 21.3827 21.0614 21.3936 21.0124 21.3555C21.0342 21.2847 21.1486 21.1975 21.1432 21.1539C21.1105 21.1267 21.056 21.2901 21.0614 21.1975L21.0832 21.1812C21.0451 21.1921 21.0669 21.0341 20.9144 21.1703L21.0342 21.0722C21.0342 21.0559 21.0015 21.0722 20.9852 21.0777C21.0179 21.0395 21.0397 20.996 21.0778 20.9851C21.1268 20.8816 21.007 20.9415 20.9743 20.9197L20.9307 21.0069C20.8272 21.0123 20.8599 20.9142 20.7891 20.887L20.8544 20.8216L20.7891 20.8325C20.8544 20.7781 20.8708 20.7072 20.8054 20.7454L21.0342 20.6582C21.0179 20.7181 20.9361 20.7181 20.8871 20.7944C20.8435 20.8598 20.9089 20.887 20.9743 20.8325C20.9634 20.8107 20.947 20.8216 20.9144 20.8325C20.9961 20.7345 21.0179 20.7617 21.0887 20.7181C21.0778 20.7127 21.0887 20.6745 21.0614 20.7018C21.1214 20.6745 21.1486 20.6854 21.1758 20.7127C21.1214 20.729 21.1323 20.7781 21.0996 20.7998C21.1758 20.7236 21.2303 20.7236 21.2467 20.7835C21.1867 20.9033 21.372 20.7889 21.3938 20.8543C21.3011 20.9197 21.214 20.9633 21.1595 20.9742C21.1486 21.0395 21.1922 21.0014 21.1813 21.0668C21.2521 21.0177 21.3502 20.936 21.421 20.9306L21.3665 20.9905C21.4264 20.9905 21.5136 20.9034 21.5354 20.9578C21.579 21.0504 21.6498 21.1213 21.6934 21.1812L21.6389 21.2411C21.7914 21.143 21.7805 21.2847 21.8731 21.2683C21.884 21.3882 22.0747 21.3501 22.0093 21.4863C22.1728 21.5516 22.3199 21.6061 22.4234 21.7477L22.3199 21.8131C22.4016 21.7695 22.2872 21.8785 22.3199 21.8839C22.3634 21.7913 22.4343 21.824 22.4996 21.7804C22.4887 21.9003 22.6304 21.8948 22.7393 21.8785L22.6849 21.9384C22.8428 21.873 22.8047 22.0256 22.8483 22.1018C22.8319 22.1345 22.7884 22.1999 22.8156 22.2108C22.9409 22.1454 22.9518 22.1672 23.0607 22.1563C23.0989 22.189 23.1316 22.2707 23.1316 22.3415C23.393 22.3306 23.4475 22.5485 23.6654 22.5976L23.611 22.6793C23.8888 22.6575 23.9269 22.9517 24.1121 22.9844L23.9868 23.0933C23.9868 23.1641 24.1013 23.1423 24.1721 23.0443C24.1721 23.1151 24.3192 23.0715 24.2483 23.1914C24.2647 23.2513 24.3464 23.1805 24.39 23.1914C24.4227 23.3058 24.4553 23.3221 24.548 23.3657L24.5371 23.3439C24.5044 23.3657 24.4553 23.4147 24.4662 23.4365C24.5262 23.4256 24.5316 23.5618 24.6406 23.3929C24.6351 23.5455 24.8803 23.491 24.8421 23.6708C24.8748 23.6272 24.8966 23.6326 24.9293 23.6163C24.9947 23.6762 24.9892 23.8233 25.1036 23.807C25.0927 23.8342 25.0219 23.856 25.0437 23.8887C25.0709 23.8887 25.0927 23.8396 25.1309 23.8342C25.3052 23.8614 25.2725 24.112 25.3869 24.1883C25.632 24.2755 25.7737 24.4825 25.948 24.6241L25.9208 24.6514C26.0788 24.5914 25.9426 24.8856 26.1441 24.7603C26.1332 24.7984 26.1823 24.8202 26.1169 24.8693C26.2367 24.8311 26.1714 25.0599 26.3293 25.0218C26.3239 25.0109 26.3185 25.0163 26.2967 25.0218C26.3021 25.1471 26.4383 25.1144 26.4492 25.2343C26.4329 25.2397 26.4111 25.2397 26.3784 25.2669C26.3511 25.3487 26.5582 25.2016 26.4383 25.3541C26.4546 25.365 26.5146 25.2942 26.5037 25.2887C26.6017 25.4848 26.8414 25.5448 27.0267 25.6592C27.0593 25.8498 26.8087 25.8989 26.994 25.8771C26.9776 25.9098 27.0484 25.8281 27.0212 25.8607C27.092 25.8553 26.9231 26.0677 27.0158 26.0133C27.0866 25.9207 27.0757 25.9806 27.1247 25.9261C27.1411 26.046 27.0811 26.1331 27.1955 26.1222L27.1465 26.1658C27.3317 26.095 27.3372 26.2366 27.5278 26.1386C27.8983 26.4382 28.3014 26.667 28.6555 26.9721C28.9606 27.3153 29.3474 27.555 29.6089 27.9526C29.5762 28.1488 29.5816 28.1488 29.7178 28.1814C29.696 28.1978 29.6851 28.1978 29.6742 28.2196C29.7723 28.127 29.745 28.2686 29.8377 28.1814C29.9466 28.3176 30.0828 28.3994 30.2135 28.5192C30.1809 28.5083 30.0991 28.5791 30.1264 28.5955L30.2081 28.5573L30.1863 28.59C30.219 28.59 30.2789 28.5628 30.2898 28.5138C30.6929 28.7371 30.8237 29.2274 31.156 29.5052C31.1941 29.6142 31.3358 29.6796 31.4338 29.7395C31.5537 30.099 31.6681 30.4095 32.0004 30.5512C32.0058 30.5403 31.7334 30.7582 31.5809 30.7201Z" fill="var(--icon-color, #8BC8E3)"/>
<path d="M20.947 20.5059C20.9089 20.5603 20.9143 20.6148 20.8271 20.6584C20.8707 20.6148 20.9034 20.5494 20.947 20.5059Z" fill="var(--icon-color, #8BC8E3)"/>
<path d="M21.2189 21.7148C21.2353 21.7039 21.2135 21.7421 21.208 21.753C21.1971 21.7475 21.1481 21.7802 21.1644 21.7475C21.1753 21.7584 21.1971 21.7312 21.2189 21.7148Z" fill="var(--icon-color, #8BC8E3)"/>
<path d="M21.3824 21.9277C21.3389 21.9659 21.2626 21.9659 21.2354 21.9441L21.3824 21.9277Z" fill="var(--icon-color, #8BC8E3)"/>
<path d="M21.3929 22.2764C21.3711 22.3254 21.3494 22.3417 21.333 22.3254C21.3494 22.2982 21.3657 22.2927 21.3929 22.2764Z" fill="var(--icon-color, #8BC8E3)"/>
<path d="M21.4964 22.1895C21.5127 22.2003 21.4964 22.233 21.48 22.2657C21.5127 22.2276 21.4255 22.2548 21.4964 22.1895Z" fill="var(--icon-color, #8BC8E3)"/>
</g>
<defs>
<clipPath id="clip0_226_31932">
<rect width="32" height="31" fill="white"/>
</clipPath>
</defs>
</svg>
