<svg width="539" height="134" viewBox="0 0 539 134" fill="none" xmlns="http://www.w3.org/2000/svg">
<path d="M224 53L223.876 51.5051L224 53ZM537.335 129.962C538.142 129.777 538.647 128.973 538.462 128.165L535.448 115.006C535.263 114.198 534.458 113.694 533.651 113.879C532.843 114.064 532.339 114.868 532.524 115.676L535.203 127.373L523.506 130.052C522.698 130.237 522.194 131.042 522.379 131.849C522.564 132.657 523.368 133.161 524.176 132.976L537.335 129.962ZM0.553828 3.16394C2.28317 4.56973 4.24768 6.05237 6.44063 7.59277L8.16503 5.13789C6.02249 3.63289 4.11475 2.19245 2.44617 0.836059L0.553828 3.16394ZM18.8322 15.4321C22.7507 17.6879 27.0689 19.9961 31.7734 22.3103L33.0976 19.6184C28.4493 17.3318 24.1887 15.0541 20.3289 12.8321L18.8322 15.4321ZM45.0874 28.4053C49.3848 30.2358 53.9221 32.0443 58.6925 33.8073L59.7324 30.9933C55.0075 29.2472 50.5155 27.4566 46.2631 25.6452L45.0874 28.4053ZM72.5108 38.5594C77.0153 39.9971 81.6904 41.3841 86.5317 42.7047L87.3212 39.8105C82.5213 38.5011 77.8871 37.1263 73.423 35.7015L72.5108 38.5594ZM100.712 46.2613C105.344 47.3237 110.108 48.3206 114.999 49.2408L115.554 46.2925C110.702 45.3797 105.977 44.3908 101.382 43.3372L100.712 46.2613ZM129.404 51.6641C134.136 52.3674 138.975 52.9963 143.916 53.542L144.246 50.5602C139.342 50.0186 134.541 49.3945 129.845 48.6967L129.404 51.6641ZM158.439 54.8763C163.22 55.2277 168.088 55.4997 173.041 55.6852L173.154 52.6873C168.236 52.5032 163.404 52.2332 158.659 51.8843L158.439 54.8763ZM187.625 55.9741C192.428 55.9851 197.304 55.9139 202.251 55.7545L202.154 52.756C197.242 52.9143 192.4 52.9851 187.632 52.9741L187.625 55.9741ZM216.817 55.0384C219.237 54.8787 221.672 54.6978 224.124 54.4949L223.876 51.5051C221.442 51.7066 219.023 51.8863 216.619 52.045L216.817 55.0384ZM224.124 54.4949C226.608 54.2893 229.084 54.1028 231.549 53.935L231.346 50.9419C228.865 51.1107 226.376 51.2983 223.876 51.5051L224.124 54.4949ZM246.364 53.1444C251.349 52.9515 256.292 52.834 261.193 52.7882L261.165 49.7883C256.235 49.8344 251.263 49.9526 246.248 50.1466L246.364 53.1444ZM276.021 52.8674C281.013 52.9674 285.958 53.1406 290.855 53.3829L291.003 50.3865C286.077 50.1428 281.103 49.9686 276.081 49.868L276.021 52.8674ZM305.674 54.3344C310.654 54.7277 315.581 55.1909 320.453 55.7195L320.776 52.7371C315.876 52.2053 310.92 51.7394 305.911 51.3438L305.674 54.3344ZM335.174 57.5346C340.12 58.2177 345.006 58.9664 349.828 59.7756L350.325 56.8169C345.474 56.003 340.56 55.2499 335.584 54.5628L335.174 57.5346ZM364.445 62.4461C369.355 63.4165 374.195 64.4475 378.962 65.5329L379.628 62.6078C374.833 61.516 369.965 60.4791 365.027 59.503L364.445 62.4461ZM393.362 69.0282C398.225 70.2822 403.005 71.5899 407.702 72.9446L408.533 70.0621C403.81 68.6996 399.002 67.3844 394.111 66.1233L393.362 69.0282ZM421.893 77.2559C426.684 78.7856 431.378 80.3601 435.973 81.9712L436.966 79.1401C432.345 77.5199 427.624 75.9364 422.806 74.398L421.893 77.2559ZM449.902 87.076C454.62 88.8809 459.22 90.7184 463.699 92.5782L464.849 89.8076C460.345 87.9371 455.718 86.0892 450.974 84.2741L449.902 87.076ZM477.302 98.4543C481.941 100.537 486.43 102.633 490.764 104.731L492.071 102.03C487.711 99.9207 483.197 97.8119 478.531 95.7174L477.302 98.4543ZM504.035 111.395C508.597 113.77 512.951 116.128 517.092 118.448L518.559 115.83C514.391 113.496 510.01 111.124 505.421 108.734L504.035 111.395ZM529.907 125.898C532.084 127.211 534.183 128.504 536.203 129.771L537.797 127.229C535.762 125.953 533.649 124.652 531.458 123.329L529.907 125.898Z" fill="#54ACFE"/>
</svg>
