<svg width="559" height="190" viewBox="0 0 559 190" fill="none" xmlns="http://www.w3.org/2000/svg">
<path d="M332.5 74.5004L333.248 73.2005L332.5 74.5004ZM557.459 185.428C558.247 185.175 558.681 184.33 558.428 183.541L554.3 170.688C554.046 169.899 553.201 169.465 552.413 169.719C551.624 169.972 551.19 170.817 551.443 171.606L555.113 183.031L543.688 186.701C542.899 186.954 542.465 187.799 542.719 188.587C542.972 189.376 543.817 189.81 544.606 189.557L557.459 185.428ZM3.26346 66.8087C4.63561 64.6644 6.04728 62.5661 7.49909 60.5151L5.05049 58.7818C3.57102 60.8718 2.13328 63.0089 0.736543 65.1916L3.26346 66.8087ZM16.8574 48.6048C20.1988 44.7783 23.7174 41.1655 27.4188 37.7789L25.3937 35.5656C21.6068 39.0304 18.0102 42.7236 14.5977 46.6316L16.8574 48.6048ZM39.1504 28.2574C43.2232 25.3399 47.4859 22.6594 51.9445 20.2287L50.5085 17.5947C45.9413 20.0846 41.5749 22.8303 37.4034 25.8186L39.1504 28.2574ZM65.6293 13.8112C70.2289 11.9813 75.012 10.3865 79.9841 9.03813L79.1989 6.14271C74.1189 7.52038 69.2277 9.15097 64.5203 11.0237L65.6293 13.8112ZM94.7617 5.85707C99.6212 5.06762 104.642 4.49114 109.829 4.13633L109.625 1.14332C104.348 1.50424 99.2349 2.09105 94.2807 2.89589L94.7617 5.85707ZM124.99 3.73181C129.915 3.79639 134.976 4.04504 140.175 4.48403L140.428 1.49467C135.16 1.04994 130.028 0.797614 125.029 0.732066L124.99 3.73181ZM155.251 6.23787C160.14 6.95673 165.142 7.83269 170.26 8.87019L170.856 5.93001C165.687 4.8822 160.632 3.99682 155.687 3.26978L155.251 6.23787ZM185.147 12.2655C189.938 13.4755 194.823 14.819 199.804 16.2992L200.659 13.4235C195.64 11.932 190.715 10.5774 185.882 9.3568L185.147 12.2655ZM214.317 20.9098C219.022 22.4986 223.808 24.2034 228.676 26.0265L229.728 23.217C224.831 21.3829 220.014 19.6671 215.277 18.0675L214.317 20.9098ZM242.88 31.5896C247.495 33.4739 252.179 35.4599 256.933 37.5495L258.141 34.8031C253.363 32.7032 248.654 30.7068 244.014 28.8122L242.88 31.5896ZM270.843 43.8656C275.375 45.9876 279.967 48.2001 284.621 50.5044L285.952 47.8158C281.279 45.5022 276.667 43.2803 272.116 41.1487L270.843 43.8656ZM298.26 57.4291C302.687 59.7316 307.168 62.1141 311.703 64.5781L313.135 61.942C308.585 59.4697 304.088 57.0786 299.645 54.7676L298.26 57.4291ZM325.037 71.9695C327.262 73.2275 329.501 74.5044 331.752 75.8004L333.248 73.2005C330.991 71.9006 328.745 70.6197 326.513 69.3578L325.037 71.9695ZM331.752 75.8004C334.083 77.1427 336.383 78.4634 338.651 79.7629L340.142 77.1599C337.876 75.8614 335.578 74.5418 333.248 73.2005L331.752 75.8004ZM352.227 87.5004C356.909 90.154 361.447 92.7103 365.847 95.1739L367.313 92.5563C362.917 90.0953 358.384 87.5415 353.707 84.8905L352.227 87.5004ZM379.517 102.775C384.261 105.393 388.829 107.893 393.233 110.284L394.665 107.647C390.267 105.26 385.704 102.763 380.967 100.148L379.517 102.775ZM406.975 117.671C411.798 120.238 416.404 122.659 420.806 124.946L422.189 122.283C417.796 120.001 413.199 117.585 408.384 115.023L406.975 117.671ZM434.764 132.093C439.714 134.588 444.377 136.895 448.784 139.035L450.094 136.337C445.701 134.203 441.052 131.903 436.115 129.414L434.764 132.093ZM462.914 145.742C468.043 148.118 472.782 150.242 477.203 152.169L478.401 149.419C474.002 147.501 469.284 145.386 464.174 143.02L462.914 145.742ZM491.613 158.233C496.864 160.364 501.658 162.227 506.188 163.959L507.259 161.157C502.74 159.429 497.967 157.574 492.741 155.453L491.613 158.233ZM520.775 169.52C525.544 171.364 530.252 173.242 535.193 175.362L536.376 172.606C531.39 170.465 526.645 168.573 521.857 166.722L520.775 169.52ZM549.322 181.833C551.566 182.927 553.891 184.089 556.315 185.334L557.685 182.666C555.243 181.411 552.899 180.239 550.635 179.136L549.322 181.833Z" fill="#54ACFE"/>
</svg>
