<svg width="424" height="754" viewBox="0 0 424 754" fill="none" xmlns="http://www.w3.org/2000/svg">
<path d="M700.025 176.94C667.582 263.028 642.165 340.861 616.717 431.104C591.649 519.928 570.365 609.766 552.627 700.554C544.107 744.648 537.478 789.249 528.958 833.342C520.138 877.609 507.783 923.716 482.446 961.53C469.287 981.319 452.679 997.903 430.435 1007.15C408.19 1016.39 383.278 1014.79 360.389 1009.41C316.266 999.112 272.54 986.382 229.114 973.479C153.312 950.887 62.6297 923.294 42.9779 834.905C25.2719 754.387 65.4211 672.645 119.827 615.25C147.457 585.907 179.511 561.804 215.5 543.824C233.644 534.748 252.528 527.643 271.474 520.302C280.198 517.064 288.748 513.526 297.126 509.689C298.262 509.233 303.895 506.181 303.595 506.354C307.729 504.167 311.69 501.68 315.65 499.194C319.375 496.644 323.099 494.094 326.65 491.244C326.714 491.008 326.95 491.071 327.014 490.834C328.34 489.669 329.492 488.204 330.818 487.039C333.66 483.999 336.266 480.896 338.935 477.556C339.361 476.91 339.788 476.264 340.451 475.681C340.451 475.681 342.647 472.215 343.373 471.396C345.332 467.866 347.355 464.1 349.142 460.271C349.822 458.679 350.501 457.087 351.245 455.259C351.372 454.786 352.178 452.721 352.795 451.366C352.985 450.656 353.175 449.947 353.175 449.947C353.808 447.583 354.379 445.455 355.012 443.09C355.98 438.534 356.774 433.679 357.268 428.996C357.285 427.987 357.475 427.277 357.602 426.805C357.729 426.332 357.619 425.795 357.573 425.023C357.64 420.986 357.535 416.65 357.13 412.486C356.835 408.859 356.303 405.169 355.772 401.479C356.13 404.869 354.045 394.68 353.543 392.772C352.302 388.891 350.824 384.948 349.047 381.177C348.701 380.577 348.591 380.041 348.418 379.741C347.616 378.006 346.514 376.443 345.712 374.708C341.102 366.377 335.955 358.155 331.645 349.651C320.884 329.281 312.631 308.063 313.385 284.443C314.138 260.823 320.157 238.36 331.787 217.655C350.466 183.886 378.678 155.206 411.091 134.493C442.604 114.3 477.263 101.286 513.821 95.369C548.833 89.5451 590.208 90.2412 623.463 104.22C631.422 107.62 638.718 111.602 645.823 116.294C657.355 112.034 670.71 112.319 680.89 117.834C702.525 130.727 708.725 153.929 700.025 176.94Z" fill="#F8DDE0"/>
</svg>
