<svg width="402" height="521" viewBox="0 0 402 521" fill="none" xmlns="http://www.w3.org/2000/svg">
<path d="M379.029 522.877C361.754 497.431 337.964 475.923 309.78 463.2C295.081 456.535 280.231 452.143 264.321 449.265C250.532 446.69 236.439 444.721 223.105 440.48C221.286 439.874 219.62 439.268 217.953 438.663C217.953 438.663 217.801 438.663 217.65 438.511C216.589 438.057 214.619 436.996 216.589 437.905C214.165 436.694 211.892 435.482 209.619 434.119C209.467 433.967 209.013 433.816 208.558 433.513C207.8 432.907 205.376 431.089 205.376 430.938C204.315 430.029 203.254 428.969 202.345 427.909C201.133 426.546 198.557 422.002 201.436 427C199.921 424.425 198.406 422.002 196.89 419.427C196.739 419.124 196.436 418.669 196.284 418.215C196.436 418.518 196.587 418.972 196.739 419.578C196.587 419.124 196.436 418.669 196.284 418.064C195.83 417.003 195.526 415.943 195.981 417.155C195.83 416.7 195.678 416.246 195.526 415.943C194.617 413.217 193.86 410.339 193.254 407.461C192.95 405.795 192.647 404.28 192.193 402.614C192.193 402.311 192.041 402.16 192.041 402.008C192.041 401.857 192.041 401.705 192.041 401.554C189.92 374.896 193.557 348.239 191.587 321.732C190.374 305.677 187.041 290.682 180.525 275.99C174.615 262.813 164.311 250.544 153.856 240.548C142.946 230.097 130.217 221.463 116.883 214.344C110.822 211.164 104.609 208.134 98.2446 205.408C94.1533 203.59 90.062 201.924 85.9707 200.258C84.91 199.804 83.8493 199.349 82.7886 198.895C82.6371 198.744 79.3034 197.38 78.8488 197.229C72.7876 194.503 66.7265 191.625 60.9683 188.293C59.7561 187.535 58.5439 186.778 57.3316 186.021C56.8771 185.718 56.4225 185.566 56.1194 185.263C55.9679 185.112 55.8164 184.96 55.6648 184.809C54.3011 183.749 52.9373 182.537 51.7251 181.325C51.2705 180.871 48.6945 178.144 48.846 178.447C41.4211 168.451 42.1787 158.151 43.5425 144.519C45.0578 129.676 48.2399 113.318 46.1185 96.8083C44.1486 81.2075 38.8451 65.9096 29.6018 53.0351C10.0545 25.7716 -18.8877 9.71642 -51.618 3.65786C-59.4975 2.14322 -67.5286 1.23444 -75.4081 0.477116C-80.8632 0.022724 -86.6213 0.780047 -92.3794 1.84029C-95.41 0.477119 -98.7437 -0.128745 -102.38 0.0227194C-114.957 0.628576 -129.353 11.2311 -127.837 25.4687C-120.109 99.0802 -129.504 172.692 -135.111 246C-140.717 319.915 -137.99 392.92 -128.443 466.381C-123.443 504.095 -117.533 541.658 -111.169 579.221C-107.532 601.032 -104.805 625.721 -79.8025 633.142C-71.3168 635.717 -62.0735 635.414 -53.2848 635.869C-43.7385 636.323 -34.1921 636.778 -24.4942 637.232C50.6644 640.716 125.671 644.351 200.83 647.834C238.712 649.652 276.443 651.47 314.326 653.136C333.57 654.044 352.663 656.014 370.694 647.532C385.544 640.564 396.151 625.418 399.94 609.817C406.759 579.373 395.848 547.868 379.029 522.877Z" fill="#F9DFA6"/>
</svg>
