<svg width="509" height="304" viewBox="0 0 509 304" fill="none" xmlns="http://www.w3.org/2000/svg">
<path d="M506.474 1.22357C506.322 0.409329 505.538 -0.126978 504.724 0.0256917L491.455 2.51359C490.641 2.66626 490.104 3.45009 490.257 4.26433C490.41 5.07857 491.193 5.61487 492.008 5.4622L503.802 3.25074L506.014 15.0452C506.166 15.8594 506.95 16.3958 507.764 16.2431C508.579 16.0904 509.115 15.3066 508.962 14.4923L506.474 1.22357ZM0.114145 296.426C-0.202833 297.191 0.160674 298.069 0.92606 298.386L13.3988 303.551C14.1641 303.868 15.0416 303.505 15.3585 302.739C15.6755 301.974 15.312 301.097 14.5466 300.78L3.45979 296.188L8.05131 285.101C8.36829 284.336 8.00478 283.458 7.2394 283.141C6.47401 282.824 5.59658 283.188 5.2796 283.953L0.114145 296.426ZM2.07411 298.386C4.45432 297.4 6.78685 296.417 9.07331 295.438L7.89209 292.68C5.61678 293.655 3.29525 294.633 0.925889 295.614L2.07411 298.386ZM22.741 289.376C27.4379 287.218 31.9216 285.076 36.2103 282.949L34.8774 280.262C30.616 282.375 26.1591 284.504 21.4885 286.65L22.741 289.376ZM49.5319 276.064C54.124 273.589 58.471 271.134 62.6028 268.698L61.0794 266.114C56.9809 268.53 52.6673 270.966 48.1085 273.423L49.5319 276.064ZM75.3332 260.834C79.7044 258.004 83.8195 255.2 87.7281 252.42L85.9893 249.976C82.1149 252.731 78.0359 255.511 73.7029 258.316L75.3332 260.834ZM99.7665 243.468C103.837 240.31 107.701 237.183 111.434 234.086L109.519 231.777C105.804 234.859 101.966 237.964 97.9276 241.097L99.7665 243.468ZM122.841 224.431C126.647 221.167 130.388 217.94 134.172 214.734L132.233 212.445C128.44 215.659 124.685 218.897 120.888 222.154L122.841 224.431ZM145.651 205.257C149.439 202.231 153.347 199.225 157.461 196.237L155.697 193.81C151.541 196.829 147.596 199.863 143.778 202.913L145.651 205.257ZM169.689 187.839C173.672 185.26 177.871 182.69 182.342 180.127L180.85 177.525C176.331 180.115 172.086 182.713 168.058 185.321L169.689 187.839ZM195.419 173.067C199.639 170.92 204.088 168.776 208.799 166.634L207.557 163.903C202.807 166.063 198.319 168.225 194.058 170.393L195.419 173.067ZM222.501 160.722C226.888 158.924 231.482 157.127 236.301 155.329L235.253 152.518C230.405 154.326 225.781 156.136 221.363 157.946L222.501 160.722ZM250.302 150.328C252.642 149.527 255.03 148.726 257.468 147.925L256.532 145.075C254.082 145.88 251.682 146.685 249.33 147.49L250.302 150.328ZM257.468 147.925C259.794 147.161 262.105 146.39 264.402 145.613L263.441 142.771C261.152 143.545 258.849 144.313 256.532 145.075L257.468 147.925ZM278.146 140.832C282.761 139.181 287.314 137.506 291.802 135.811L290.742 133.005C286.27 134.694 281.734 136.362 277.135 138.007L278.146 140.832ZM305.365 130.551C309.922 128.737 314.409 126.902 318.825 125.051L317.665 122.284C313.266 124.129 308.796 125.956 304.255 127.764L305.365 130.551ZM332.194 119.301C336.7 117.314 341.126 115.311 345.472 113.296L344.21 110.574C339.881 112.582 335.472 114.577 330.983 116.556L332.194 119.301ZM358.624 107.043C363.053 104.885 367.391 102.717 371.637 100.543L370.27 97.8727C366.042 100.038 361.721 102.197 357.31 104.346L358.624 107.043ZM384.513 93.7863C388.878 91.4385 393.135 89.0889 397.285 86.7423L395.808 84.1309C391.677 86.4671 387.438 88.8065 383.092 91.1442L384.513 93.7863ZM409.863 79.4464C414.14 76.9012 418.287 74.366 422.304 71.8472L420.71 69.3056C416.713 71.812 412.586 74.335 408.328 76.8682L409.863 79.4464ZM434.527 63.9703C438.713 61.1974 442.733 58.4536 446.585 55.748L444.861 53.293C441.031 55.9828 437.033 58.7112 432.87 61.4692L434.527 63.9703ZM458.382 47.1981C462.453 44.1509 466.293 41.1686 469.9 38.2656L468.019 35.9285C464.44 38.8087 460.628 41.7695 456.584 44.7965L458.382 47.1981ZM481.082 28.8794C485.033 25.4097 488.598 22.095 491.769 18.9659L489.661 16.8305C486.536 19.9147 483.015 23.1898 479.103 26.6253L481.082 28.8794ZM501.747 8.22823C503.497 6.12741 504.996 4.16158 506.238 2.34703L503.762 0.652974C502.584 2.3747 501.144 4.26463 499.442 6.30797L501.747 8.22823Z" fill="#54ACFE"/>
</svg>
