<svg width="356" height="559" viewBox="0 0 356 559" fill="none" xmlns="http://www.w3.org/2000/svg">
<path d="M369.862 492.458C494.732 399.463 498.346 214.244 438.679 82.6929C409.811 18.8736 361.084 -41.8311 294.323 -67.9489C230.888 -92.7594 155.456 -89.5581 98.4619 -50.5395C47.5238 -15.9044 21.5117 47.6747 25.6262 108.37C24.9245 116.743 24.6746 124.817 24.6938 133.104C25.1073 164.989 33.259 198.384 48.3416 226.559C65.6255 258.858 88.6675 286.322 110.258 315.91C114.641 321.966 118.756 327.811 122.687 334.165C123.61 335.761 124.504 337.116 125.427 338.712C127.09 342.413 129.205 345.815 130.868 349.516C132.531 353.217 133.983 357.187 135.405 360.917C135.761 361.85 136.145 363.022 136.261 363.984C136.665 367.348 137.52 370.415 137.924 373.779C138.212 376.182 138.26 378.614 138.549 381.018C138.549 381.018 138.549 381.018 138.577 381.258C138.577 381.258 138.577 381.258 138.606 381.498C135.53 402.589 132.118 424.938 133.935 446.173C135.829 470.08 146.864 490.94 163.956 507.416C190.968 533.428 233.658 539.763 269.649 534.957C305.552 529.429 340.543 514.26 369.862 492.458Z" fill="#FDFEB0"/>
</svg>
