<svg width="370" height="353" viewBox="0 0 370 353" fill="none" xmlns="http://www.w3.org/2000/svg">
<path d="M0 20.1114C0 8.6411 9.627 -0.479133 21.0805 0.140558L350.733 17.9764C361.344 18.5504 369.653 27.3213 369.653 37.9472V332.621C369.653 343.667 360.698 352.621 349.653 352.621H20C8.95432 352.621 0 343.667 0 332.621V20.1114Z" fill="white"/>
<path d="M21.0535 0.639828L350.706 18.4756C361.051 19.0354 369.153 27.587 369.153 37.9472V332.621C369.153 343.391 360.422 352.121 349.653 352.121H20C9.23046 352.121 0.5 343.391 0.5 332.621V20.1114C0.5 8.92786 9.88632 0.0356292 21.0535 0.639828Z" stroke="black" stroke-opacity="0.04"/>
</svg>
